%TF.GenerationSoftware,KiCad,Pcbnew,(6.0.9)*%
%TF.CreationDate,2023-01-10T21:20:11-08:00*%
%TF.ProjectId,RPCM1 IO Board,5250434d-3120-4494-9f20-426f6172642e,1*%
%TF.SameCoordinates,Original*%
%TF.FileFunction,Soldermask,Top*%
%TF.FilePolarity,Negative*%
%FSLAX46Y46*%
G04 Gerber Fmt 4.6, Leading zero omitted, Abs format (unit mm)*
G04 Created by KiCad (PCBNEW (6.0.9)) date 2023-01-10 21:20:11*
%MOMM*%
%LPD*%
G01*
G04 APERTURE LIST*
G04 Aperture macros list*
%AMRoundRect*
0 Rectangle with rounded corners*
0 $1 Rounding radius*
0 $2 $3 $4 $5 $6 $7 $8 $9 X,Y pos of 4 corners*
0 Add a 4 corners polygon primitive as box body*
4,1,4,$2,$3,$4,$5,$6,$7,$8,$9,$2,$3,0*
0 Add four circle primitives for the rounded corners*
1,1,$1+$1,$2,$3*
1,1,$1+$1,$4,$5*
1,1,$1+$1,$6,$7*
1,1,$1+$1,$8,$9*
0 Add four rect primitives between the rounded corners*
20,1,$1+$1,$2,$3,$4,$5,0*
20,1,$1+$1,$4,$5,$6,$7,0*
20,1,$1+$1,$6,$7,$8,$9,0*
20,1,$1+$1,$8,$9,$2,$3,0*%
G04 Aperture macros list end*
%ADD10C,0.711200*%
%ADD11C,0.762000*%
%ADD12O,1.219200X2.717800*%
%ADD13O,1.219200X2.006600*%
%ADD14C,5.801600*%
%ADD15C,9.301600*%
%ADD16RoundRect,0.050800X0.660000X0.955000X-0.660000X0.955000X-0.660000X-0.955000X0.660000X-0.955000X0*%
%ADD17RoundRect,0.050800X-0.955000X0.660000X-0.955000X-0.660000X0.955000X-0.660000X0.955000X0.660000X0*%
%ADD18RoundRect,0.101600X-0.424180X-0.449580X0.424180X-0.449580X0.424180X0.449580X-0.424180X0.449580X0*%
%ADD19RoundRect,0.101600X-0.449580X0.424180X-0.449580X-0.424180X0.449580X-0.424180X0.449580X0.424180X0*%
%ADD20RoundRect,0.050800X-0.177400X0.390899X-0.177400X-0.390899X0.177400X-0.390899X0.177400X0.390899X0*%
%ADD21RoundRect,0.101600X-0.499110X0.549910X-0.499110X-0.549910X0.499110X-0.549910X0.499110X0.549910X0*%
%ADD22RoundRect,0.089800X0.446000X0.156000X-0.446000X0.156000X-0.446000X-0.156000X0.446000X-0.156000X0*%
%ADD23RoundRect,0.101600X0.599440X-0.398780X0.599440X0.398780X-0.599440X0.398780X-0.599440X-0.398780X0*%
%ADD24RoundRect,0.100800X-0.350000X-0.050000X0.350000X-0.050000X0.350000X0.050000X-0.350000X0.050000X0*%
%ADD25RoundRect,0.050800X-0.850000X-1.250000X0.850000X-1.250000X0.850000X1.250000X-0.850000X1.250000X0*%
%ADD26C,0.609600*%
%ADD27RoundRect,0.050800X-0.203200X-0.673100X0.203200X-0.673100X0.203200X0.673100X-0.203200X0.673100X0*%
%ADD28RoundRect,0.050800X-0.800100X-0.698500X0.800100X-0.698500X0.800100X0.698500X-0.800100X0.698500X0*%
%ADD29RoundRect,0.050800X-0.952500X-0.952500X0.952500X-0.952500X0.952500X0.952500X-0.952500X0.952500X0*%
%ADD30O,1.016000X1.701800*%
%ADD31RoundRect,0.101600X0.549910X0.499110X-0.549910X0.499110X-0.549910X-0.499110X0.549910X-0.499110X0*%
%ADD32RoundRect,0.101600X0.424180X0.449580X-0.424180X0.449580X-0.424180X-0.449580X0.424180X-0.449580X0*%
%ADD33RoundRect,0.050800X-0.750000X-1.600000X0.750000X-1.600000X0.750000X1.600000X-0.750000X1.600000X0*%
%ADD34RoundRect,0.050800X-0.255000X0.200000X-0.255000X-0.200000X0.255000X-0.200000X0.255000X0.200000X0*%
%ADD35RoundRect,0.050800X0.200000X0.255000X-0.200000X0.255000X-0.200000X-0.255000X0.200000X-0.255000X0*%
%ADD36RoundRect,0.050800X-0.200000X-0.255000X0.200000X-0.255000X0.200000X0.255000X-0.200000X0.255000X0*%
%ADD37RoundRect,0.050800X0.220000X0.549999X-0.220000X0.549999X-0.220000X-0.549999X0.220000X-0.549999X0*%
%ADD38C,1.752600*%
%ADD39RoundRect,0.050800X0.714000X-0.714000X0.714000X0.714000X-0.714000X0.714000X-0.714000X-0.714000X0*%
%ADD40C,1.529600*%
%ADD41C,3.417600*%
%ADD42RoundRect,0.050800X-0.165100X-0.977900X0.165100X-0.977900X0.165100X0.977900X-0.165100X0.977900X0*%
%ADD43C,1.930400*%
%ADD44RoundRect,0.101600X-0.499110X0.499110X-0.499110X-0.499110X0.499110X-0.499110X0.499110X0.499110X0*%
%ADD45C,1.524000*%
%ADD46C,2.921000*%
%ADD47RoundRect,0.050800X0.749300X1.803400X-0.749300X1.803400X-0.749300X-1.803400X0.749300X-1.803400X0*%
%ADD48C,1.625600*%
%ADD49RoundRect,0.050800X0.255000X-0.200000X0.255000X0.200000X-0.255000X0.200000X-0.255000X-0.200000X0*%
%ADD50C,1.301600*%
%ADD51C,1.801600*%
%ADD52RoundRect,0.050800X-0.175000X-1.000000X0.175000X-1.000000X0.175000X1.000000X-0.175000X1.000000X0*%
%ADD53RoundRect,0.050800X-2.250000X-2.300000X2.250000X-2.300000X2.250000X2.300000X-2.250000X2.300000X0*%
%ADD54RoundRect,0.050800X-0.711200X-0.711200X0.711200X-0.711200X0.711200X0.711200X-0.711200X0.711200X0*%
%ADD55RoundRect,0.050800X0.375000X-0.102000X0.375000X0.102000X-0.375000X0.102000X-0.375000X-0.102000X0*%
%ADD56RoundRect,0.050800X-0.102000X-0.375000X0.102000X-0.375000X0.102000X0.375000X-0.102000X0.375000X0*%
G04 APERTURE END LIST*
D10*
%TO.C,J1*%
X62172759Y-85786180D03*
X62172759Y-84998780D03*
X70822729Y-84998780D03*
X62172744Y-81258181D03*
X62172744Y-82756781D03*
X70822729Y-82756780D03*
X70822729Y-85786180D03*
X70822729Y-81258180D03*
D11*
X63522744Y-81027480D03*
X64372745Y-81027480D03*
X65222743Y-81027480D03*
X66072744Y-81027480D03*
X66922745Y-81027480D03*
X67772746Y-81027480D03*
X68622744Y-81027480D03*
X69472745Y-81027480D03*
X63522744Y-82377480D03*
X64372745Y-82377480D03*
X65222743Y-82377480D03*
X66072744Y-82377480D03*
X66922745Y-82377480D03*
X67772746Y-82377480D03*
X68622744Y-82377480D03*
X69472745Y-82377480D03*
D12*
X62172744Y-82007481D03*
X70822729Y-82007480D03*
D13*
X62172759Y-85392480D03*
X70822729Y-85392480D03*
%TD*%
D14*
%TO.C,H4*%
X143510000Y-83312000D03*
D15*
X143510000Y-83312000D03*
%TD*%
D16*
%TO.C,C17*%
X96454700Y-72712580D03*
X93562700Y-72712580D03*
%TD*%
D17*
%TO.C,C9*%
X119773700Y-57677580D03*
X119773700Y-60569580D03*
%TD*%
D18*
%TO.C,R3*%
X76014580Y-83761580D03*
X77172820Y-83761580D03*
%TD*%
D14*
%TO.C,H3*%
X143522700Y-42232580D03*
D15*
X143522700Y-42232580D03*
%TD*%
D19*
%TO.C,R5*%
X101104700Y-73784460D03*
X101104700Y-74942700D03*
%TD*%
D18*
%TO.C,R8*%
X102049580Y-38422580D03*
X103207820Y-38422580D03*
%TD*%
D19*
%TO.C,R2*%
X83070700Y-67688460D03*
X83070700Y-68846700D03*
%TD*%
D20*
%TO.C,U2*%
X85117699Y-74569579D03*
X84467700Y-74569579D03*
X83817701Y-74569579D03*
X83817701Y-76697581D03*
X84467700Y-76697581D03*
X85117699Y-76697581D03*
%TD*%
D18*
%TO.C,R6*%
X114241580Y-38168580D03*
X115399820Y-38168580D03*
%TD*%
D21*
%TO.C,R14*%
X100723700Y-85961220D03*
X100723700Y-87657940D03*
%TD*%
D19*
%TO.C,C11*%
X95516700Y-62608460D03*
X95516700Y-63766700D03*
%TD*%
D22*
%TO.C,U4*%
X93702700Y-60027580D03*
X93702700Y-59377580D03*
X93702700Y-58727580D03*
X91742700Y-58727580D03*
X91742700Y-60027580D03*
%TD*%
D19*
%TO.C,C1*%
X85102700Y-65402460D03*
X85102700Y-66560700D03*
%TD*%
D23*
%TO.C,C7*%
X104787700Y-63070740D03*
X104787700Y-61272420D03*
%TD*%
D24*
%TO.C,U3*%
X105115700Y-69555580D03*
X105115700Y-70005580D03*
X105115700Y-70455580D03*
X105115700Y-70905580D03*
X105115700Y-71355580D03*
X105115700Y-71805580D03*
X108015700Y-71805580D03*
X108015700Y-71355580D03*
X108015700Y-70905580D03*
X108015700Y-70455580D03*
X108015700Y-70005580D03*
X108015700Y-69555580D03*
D25*
X106565700Y-70680580D03*
%TD*%
D26*
%TO.C,J7*%
X112913698Y-87041782D03*
X106313702Y-86355982D03*
X112913698Y-86355982D03*
X106313702Y-87041782D03*
D27*
X108313700Y-84023881D03*
X108963701Y-84023881D03*
X109613700Y-84023881D03*
X110263699Y-84023881D03*
X110913700Y-84023881D03*
D28*
X106413699Y-84248881D03*
X112813701Y-84248881D03*
D29*
X108413700Y-86698882D03*
X110813700Y-86698882D03*
D30*
X106313702Y-86698882D03*
X112913698Y-86698882D03*
%TD*%
D31*
%TO.C,C13*%
X82395060Y-60393580D03*
X80698340Y-60393580D03*
%TD*%
D32*
%TO.C,R13*%
X57106820Y-76116180D03*
X55948580Y-76116180D03*
%TD*%
D15*
%TO.C,H2*%
X55384700Y-42232580D03*
D14*
X55384700Y-42232580D03*
%TD*%
D33*
%TO.C,F1*%
X69159700Y-73728580D03*
X73359700Y-73728580D03*
%TD*%
D17*
%TO.C,C3*%
X76593700Y-75838580D03*
X76593700Y-78730580D03*
%TD*%
D34*
%TO.C,Q4*%
X125219700Y-38811580D03*
X125219700Y-39811580D03*
X126519700Y-39311580D03*
%TD*%
D35*
%TO.C,Q1*%
X82554700Y-71808580D03*
X81554700Y-71808580D03*
X82054700Y-73108580D03*
%TD*%
D36*
%TO.C,Q5*%
X117495700Y-84665580D03*
X118495700Y-84665580D03*
X117995700Y-83365580D03*
%TD*%
D37*
%TO.C,U1*%
X90239700Y-62876580D03*
X89039700Y-65276580D03*
X87839700Y-62876580D03*
%TD*%
D38*
%TO.C,J3*%
X64147700Y-75252580D03*
X64147700Y-72712580D03*
%TD*%
D32*
%TO.C,R15*%
X57157620Y-55694580D03*
X55999380Y-55694580D03*
%TD*%
D36*
%TO.C,Q2*%
X98064700Y-77553580D03*
X99064700Y-77553580D03*
X98564700Y-76253580D03*
%TD*%
D39*
%TO.C,J5*%
X141714700Y-69989580D03*
D40*
X141714700Y-67489580D03*
X141714700Y-65489580D03*
X141714700Y-62989580D03*
D41*
X144424700Y-73059580D03*
X144424700Y-59919580D03*
%TD*%
D42*
%TO.C,J2*%
X93539701Y-80796257D03*
X93039699Y-80796257D03*
X92539700Y-80796257D03*
X92039699Y-80796257D03*
X91539700Y-80796257D03*
X91039701Y-80796257D03*
X90539699Y-80796257D03*
X90039700Y-80796257D03*
X89539699Y-80796257D03*
X89039700Y-80796257D03*
X88539701Y-80796257D03*
X88039699Y-80796257D03*
X87539700Y-80796257D03*
X87039699Y-80796257D03*
X86539700Y-80796257D03*
X86039701Y-80796257D03*
X85539699Y-80796257D03*
X85039700Y-80796257D03*
X84539699Y-80796257D03*
D43*
X81789702Y-81796258D03*
X96289698Y-81796258D03*
X81189700Y-86696169D03*
X96889699Y-86696169D03*
%TD*%
D17*
%TO.C,C10*%
X124726700Y-57677580D03*
X124726700Y-60569580D03*
%TD*%
D19*
%TO.C,R10*%
X115100100Y-60906660D03*
X115100100Y-62064900D03*
%TD*%
D44*
%TO.C,D2*%
X55778400Y-52900580D03*
X57531000Y-52900580D03*
%TD*%
D19*
%TO.C,R9*%
X112001300Y-60855860D03*
X112001300Y-62014100D03*
%TD*%
D32*
%TO.C,C12*%
X86824820Y-57726580D03*
X85666580Y-57726580D03*
%TD*%
D21*
%TO.C,R11*%
X128917700Y-64625220D03*
X128917700Y-66321940D03*
%TD*%
D31*
%TO.C,R7*%
X146784060Y-54551580D03*
X145087340Y-54551580D03*
%TD*%
D14*
%TO.C,H1*%
X55372000Y-83312000D03*
D15*
X55372000Y-83312000D03*
%TD*%
D23*
%TO.C,C4*%
X122440700Y-69039740D03*
X122440700Y-67241420D03*
%TD*%
%TO.C,C5*%
X113931700Y-66753740D03*
X113931700Y-64955420D03*
%TD*%
D18*
%TO.C,C6*%
X109288580Y-66489580D03*
X110446820Y-66489580D03*
%TD*%
D45*
%TO.C,J6*%
X125731700Y-76630571D03*
X128246300Y-76630571D03*
X130252900Y-76630571D03*
X132767500Y-76630571D03*
D46*
X122679600Y-79322971D03*
X135819600Y-79322971D03*
%TD*%
D47*
%TO.C,L2*%
X115836700Y-76268580D03*
X112788700Y-76268580D03*
%TD*%
D48*
%TO.C,M1*%
X57035700Y-68013580D03*
X57035700Y-65473580D03*
X57035700Y-62933580D03*
X57035700Y-60393580D03*
%TD*%
D19*
%TO.C,C2*%
X87007700Y-67180460D03*
X87007700Y-68338700D03*
%TD*%
D32*
%TO.C,R12*%
X57411620Y-72407780D03*
X56253380Y-72407780D03*
%TD*%
D23*
%TO.C,C8*%
X108216700Y-62943740D03*
X108216700Y-61145420D03*
%TD*%
D19*
%TO.C,C14*%
X125869700Y-64767460D03*
X125869700Y-65925700D03*
%TD*%
%TO.C,R1*%
X90690700Y-68958460D03*
X90690700Y-70116700D03*
%TD*%
D49*
%TO.C,Q3*%
X134393700Y-40065580D03*
X134393700Y-39065580D03*
X133093700Y-39565580D03*
%TD*%
D50*
%TO.C,U5*%
X66431700Y-47094580D03*
D51*
X133231700Y-47094580D03*
D52*
X131481700Y-42994580D03*
X131181700Y-51194580D03*
X130881700Y-42994580D03*
X130581700Y-51194580D03*
X130281700Y-42994580D03*
X129981700Y-51194580D03*
X129681700Y-42994580D03*
X129381700Y-51194580D03*
X129081700Y-42994580D03*
X128781700Y-51194580D03*
X128481700Y-42994580D03*
X128181700Y-51194580D03*
X127881700Y-42994580D03*
X127581700Y-51194580D03*
X127281700Y-42994580D03*
X126981700Y-51194580D03*
X126681700Y-42994580D03*
X126381700Y-51194580D03*
X126081700Y-42994580D03*
X125781700Y-51194580D03*
X125481700Y-42994580D03*
X125181700Y-51194580D03*
X124881700Y-42994580D03*
X124581700Y-51194580D03*
X124281700Y-42994580D03*
X123981700Y-51194580D03*
X123681700Y-42994580D03*
X123381700Y-51194580D03*
X123081700Y-42994580D03*
X122781700Y-51194580D03*
X122481700Y-42994580D03*
X122181700Y-51194580D03*
X121881700Y-42994580D03*
X121581700Y-51194580D03*
X121281700Y-42994580D03*
X120981700Y-51194580D03*
X120681700Y-42994580D03*
X120381700Y-51194580D03*
X120081700Y-42994580D03*
X119781700Y-51194580D03*
X115881700Y-42994580D03*
X115581700Y-51194580D03*
X115281700Y-42994580D03*
X114981700Y-51194580D03*
X114681700Y-42994580D03*
X114381700Y-51194580D03*
X114081700Y-42994580D03*
X113781700Y-51194580D03*
X113481700Y-42994580D03*
X113181700Y-51194580D03*
X112881700Y-42994580D03*
X112581700Y-51194580D03*
X112281700Y-42994580D03*
X111981700Y-51194580D03*
X111681700Y-42994580D03*
X111381700Y-51194580D03*
X111081700Y-42994580D03*
X110781700Y-51194580D03*
X110481700Y-42994580D03*
X110181700Y-51194580D03*
X109881700Y-42994580D03*
X109581700Y-51194580D03*
X109281700Y-42994580D03*
X108981700Y-51194580D03*
X108681700Y-42994580D03*
X108381700Y-51194580D03*
X108081700Y-42994580D03*
X107781700Y-51194580D03*
X107481700Y-42994580D03*
X107181700Y-51194580D03*
X106881700Y-42994580D03*
X106581700Y-51194580D03*
X106281700Y-42994580D03*
X105981700Y-51194580D03*
X105681700Y-42994580D03*
X105381700Y-51194580D03*
X105081700Y-42994580D03*
X104781700Y-51194580D03*
X104481700Y-42994580D03*
X104181700Y-51194580D03*
X103881700Y-42994580D03*
X103581700Y-51194580D03*
X103281700Y-42994580D03*
X102981700Y-51194580D03*
X102681700Y-42994580D03*
X102381700Y-51194580D03*
X102081700Y-42994580D03*
X101781700Y-51194580D03*
X101481700Y-42994580D03*
X101181700Y-51194580D03*
X100881700Y-42994580D03*
X100581700Y-51194580D03*
X100281700Y-42994580D03*
X99981700Y-51194580D03*
X99681700Y-42994580D03*
X99381700Y-51194580D03*
X99081700Y-42994580D03*
X98781700Y-51194580D03*
X98481700Y-42994580D03*
X98181700Y-51194580D03*
X97881700Y-42994580D03*
X97581700Y-51194580D03*
X97281700Y-42994580D03*
X96981700Y-51194580D03*
X96681700Y-42994580D03*
X96381700Y-51194580D03*
X96081700Y-42994580D03*
X95781700Y-51194580D03*
X95481700Y-42994580D03*
X95181700Y-51194580D03*
X94881700Y-42994580D03*
X94581700Y-51194580D03*
X94281700Y-42994580D03*
X93981700Y-51194580D03*
X93681700Y-42994580D03*
X93381700Y-51194580D03*
X93081700Y-42994580D03*
X92781700Y-51194580D03*
X92481700Y-42994580D03*
X92181700Y-51194580D03*
X91881700Y-42994580D03*
X91581700Y-51194580D03*
X91281700Y-42994580D03*
X90981700Y-51194580D03*
X90681700Y-42994580D03*
X90381700Y-51194580D03*
X90081700Y-42994580D03*
X89781700Y-51194580D03*
X89481700Y-42994580D03*
X89181700Y-51194580D03*
X88881700Y-42994580D03*
X88581700Y-51194580D03*
X88281700Y-42994580D03*
X87981700Y-51194580D03*
X87681700Y-42994580D03*
X87381700Y-51194580D03*
X87081700Y-42994580D03*
X86781700Y-51194580D03*
X86481700Y-42994580D03*
X86181700Y-51194580D03*
X85881700Y-42994580D03*
X85581700Y-51194580D03*
X85281700Y-42994580D03*
X84981700Y-51194580D03*
X84681700Y-42994580D03*
X84381700Y-51194580D03*
X84081700Y-42994580D03*
X83781700Y-51194580D03*
X83481700Y-42994580D03*
X83181700Y-51194580D03*
X82881700Y-42994580D03*
X82581700Y-51194580D03*
X82281700Y-42994580D03*
X81981700Y-51194580D03*
X81681700Y-42994580D03*
X81381700Y-51194580D03*
X81081700Y-42994580D03*
X80781700Y-51194580D03*
X80481700Y-42994580D03*
X80181700Y-51194580D03*
X79881700Y-42994580D03*
X79581700Y-51194580D03*
X79281700Y-42994580D03*
X78981700Y-51194580D03*
X78681700Y-42994580D03*
X78381700Y-51194580D03*
X78081700Y-42994580D03*
X77781700Y-51194580D03*
X77481700Y-42994580D03*
X77181700Y-51194580D03*
X76881700Y-42994580D03*
X76581700Y-51194580D03*
X76281700Y-42994580D03*
X75981700Y-51194580D03*
X75681700Y-42994580D03*
X75381700Y-51194580D03*
X75081700Y-42994580D03*
X74781700Y-51194580D03*
X74481700Y-42994580D03*
X74181700Y-51194580D03*
X73881700Y-42994580D03*
X73581700Y-51194580D03*
X73281700Y-42994580D03*
X72981700Y-51194580D03*
X72681700Y-42994580D03*
X72381700Y-51194580D03*
X72081700Y-42994580D03*
X71781700Y-51194580D03*
X71481700Y-42994580D03*
X71181700Y-51194580D03*
X70881700Y-42994580D03*
X70581700Y-51194580D03*
X70281700Y-42994580D03*
X69981700Y-51194580D03*
X69681700Y-42994580D03*
X69381700Y-51194580D03*
X69081700Y-42994580D03*
X68781700Y-51194580D03*
X68481700Y-42994580D03*
X68181700Y-51194580D03*
D53*
X132381700Y-59094580D03*
X67281700Y-59094580D03*
%TD*%
D44*
%TO.C,D1*%
X118516400Y-38295580D03*
X120269000Y-38295580D03*
%TD*%
D47*
%TO.C,L1*%
X119011700Y-71061580D03*
X115963700Y-71061580D03*
%TD*%
D17*
%TO.C,C16*%
X100215700Y-64203580D03*
X100215700Y-67095580D03*
%TD*%
D54*
%TO.C,J4*%
X140220700Y-51503580D03*
D45*
X142760700Y-51503580D03*
X145300700Y-51503580D03*
%TD*%
D18*
%TO.C,R4*%
X105859580Y-66489580D03*
X107017820Y-66489580D03*
%TD*%
D17*
%TO.C,C15*%
X72275700Y-65297580D03*
X72275700Y-68189580D03*
%TD*%
D55*
%TO.C,U6*%
X127532201Y-70861580D03*
X127532201Y-71261580D03*
D56*
X127755701Y-71888279D03*
X128155700Y-71888279D03*
X128555699Y-71888279D03*
D55*
X128779199Y-71261580D03*
X128779199Y-70861580D03*
D56*
X128555699Y-70234881D03*
X128155700Y-70234881D03*
X127755701Y-70234881D03*
%TD*%
M02*
