M48
; DRILL file {KiCad (6.0.9)} date Tue Jan 10 21:20:55 2023
; FORMAT={-:-/ absolute / inch / decimal}
; #@! TF.CreationDate,2023-01-10T21:20:55-08:00
; #@! TF.GenerationSoftware,Kicad,Pcbnew,(6.0.9)
; #@! TF.FileFunction,MixedPlating,1,2
FMAT,2
INCH
; #@! TA.AperFunction,Plated,PTH,ComponentDrill
T1C0.0010
; #@! TA.AperFunction,Plated,PTH,ViaDrill
T2C0.0100
; #@! TA.AperFunction,Plated,PTH,ViaDrill
T3C0.0157
; #@! TA.AperFunction,Plated,PTH,ComponentDrill
T4C0.0160
; #@! TA.AperFunction,Plated,PTH,ComponentDrill
T5C0.0360
; #@! TA.AperFunction,Plated,PTH,ComponentDrill
T6C0.0362
; #@! TA.AperFunction,Plated,PTH,ComponentDrill
T7C0.0400
; #@! TA.AperFunction,Plated,PTH,ComponentDrill
T8C0.0450
; #@! TA.AperFunction,Plated,PTH,ComponentDrill
T9C0.0520
; #@! TA.AperFunction,Plated,PTH,ComponentDrill
T10C0.0906
; #@! TA.AperFunction,Plated,PTH,ComponentDrill
T11C0.0910
; #@! TA.AperFunction,Plated,PTH,ComponentDrill
T12C0.2087
; #@! TA.AperFunction,NonPlated,NPTH,ComponentDrill
T13C0.0200
; #@! TA.AperFunction,NonPlated,NPTH,ComponentDrill
T14C0.0240
; #@! TA.AperFunction,NonPlated,NPTH,ComponentDrill
T15C0.0472
; #@! TA.AperFunction,NonPlated,NPTH,ComponentDrill
T16C0.0669
%
G90
G05
T1
X2.4477Y-3.2286
X2.4477Y-3.3619
X2.7883Y-3.2286
X2.7883Y-3.3619
X4.1856Y-3.4133
X4.4454Y-3.4133
T2
X3.07Y-2.31
X3.31Y-1.85
X3.4Y-3.24
X4.19Y-2.69
X4.27Y-1.82
X4.7Y-2.97
X4.92Y-2.78
X4.98Y-2.73
X5.22Y-2.74
T3
X2.3395Y-3.0567
X2.3435Y-2.8527
X2.3495Y-2.2007
X2.3935Y-1.8847
X2.4455Y-1.9887
X2.7935Y-2.1767
X2.9555Y-1.7727
X3.0255Y-1.7827
X3.0305Y-1.8477
X3.1305Y-3.0477
X3.1605Y-2.7527
X3.2655Y-2.7777
X3.2705Y-3.0877
X3.3955Y-2.9077
X3.4005Y-3.1077
X3.4055Y-2.9477
X3.4205Y-3.0677
X3.4255Y-3.2627
X3.4605Y-2.7927
X3.4655Y-3.0677
X3.5055Y-2.6577
X3.5055Y-3.0677
X3.5455Y-3.0677
X3.5805Y-1.6077
X3.5905Y-3.0677
X3.5955Y-2.1527
X3.6305Y-3.0677
X3.6655Y-2.6577
X3.6755Y-3.0677
X3.7155Y-3.0677
X3.7355Y-1.7777
X3.7655Y-1.8177
X3.8005Y-1.8577
X3.8405Y-1.8877
X3.8905Y-1.7727
X3.9355Y-1.7977
X3.9755Y-1.8227
X3.9905Y-2.8477
X4.0605Y-2.2727
X4.0755Y-2.9677
X4.0805Y-1.9027
X4.0875Y-2.1507
X4.0905Y-2.7477
X4.1655Y-1.5127
X4.1755Y-2.8977
X4.1795Y-2.1147
X4.2205Y-3.0227
X4.4195Y-1.8767
X4.4255Y-2.3227
X4.4295Y-2.1927
X4.4655Y-2.7877
X4.4755Y-1.8067
X4.5375Y-2.3227
X4.5455Y-2.2107
X4.6005Y-1.7227
X4.6555Y-3.1987
X4.6655Y-1.7227
X4.6955Y-1.8677
X4.7555Y-1.5977
X4.7805Y-2.5427
X4.8005Y-2.8477
X4.9605Y-2.8427
X4.9955Y-2.6627
T4
X2.5009Y-3.1901
X2.5009Y-3.2432
X2.5344Y-3.1901
X2.5344Y-3.2432
X2.5678Y-3.1901
X2.5678Y-3.2432
X2.6013Y-3.1901
X2.6013Y-3.2432
X2.6348Y-3.1901
X2.6348Y-3.2432
X2.6682Y-3.1901
X2.6682Y-3.2432
X2.7017Y-3.1901
X2.7017Y-3.2432
X2.7351Y-3.1901
X2.7351Y-3.2432
T5
X4.9501Y-3.017
X5.0491Y-3.017
X5.1281Y-3.017
X5.2271Y-3.017
X5.5205Y-2.0277
X5.6205Y-2.0277
X5.7205Y-2.0277
T6
X5.5793Y-2.4799
X5.5793Y-2.5783
X5.5793Y-2.6571
X5.5793Y-2.7555
T7
X2.2455Y-2.3777
X2.2455Y-2.4777
X2.2455Y-2.5777
X2.2455Y-2.6777
T8
X2.5255Y-2.8627
X2.5255Y-2.9627
T9
X3.1964Y-3.4132
X3.2201Y-3.2203
X3.7909Y-3.2203
X3.8146Y-3.4132
T10
X5.686Y-2.359
X5.686Y-2.8764
T11
X4.8299Y-3.123
X5.3472Y-3.123
T12
X2.18Y-3.28
X2.1805Y-1.6627
X5.65Y-3.28
X5.6505Y-1.6627
T13
X4.1856Y-3.3998
X4.1856Y-3.4268
X4.4454Y-3.3998
X4.4454Y-3.4268
T14
X2.4477Y-3.1991
X2.4477Y-3.2581
X2.4477Y-3.3464
X2.4477Y-3.3774
X2.7883Y-3.1991
X2.7883Y-3.2581
X2.7883Y-3.3464
X2.7883Y-3.3774
T15
X2.6154Y-1.8541
T16
X5.2453Y-1.8541
T0
M30
