%TF.GenerationSoftware,KiCad,Pcbnew,(6.0.9)*%
%TF.CreationDate,2023-01-10T21:20:11-08:00*%
%TF.ProjectId,RPCM1 IO Board,5250434d-3120-4494-9f20-426f6172642e,1*%
%TF.SameCoordinates,Original*%
%TF.FileFunction,Legend,Bot*%
%TF.FilePolarity,Positive*%
%FSLAX46Y46*%
G04 Gerber Fmt 4.6, Leading zero omitted, Abs format (unit mm)*
G04 Created by KiCad (PCBNEW (6.0.9)) date 2023-01-10 21:20:11*
%MOMM*%
%LPD*%
G01*
G04 APERTURE LIST*
%ADD10C,0.152400*%
%ADD11C,0.120000*%
G04 APERTURE END LIST*
D10*
%TO.C,*%
X136513333Y-39958095D02*
X136946666Y-39339047D01*
X137256190Y-39958095D02*
X137256190Y-38658095D01*
X136760952Y-38658095D01*
X136637142Y-38720000D01*
X136575238Y-38781904D01*
X136513333Y-38905714D01*
X136513333Y-39091428D01*
X136575238Y-39215238D01*
X136637142Y-39277142D01*
X136760952Y-39339047D01*
X137256190Y-39339047D01*
X135460952Y-39896190D02*
X135584761Y-39958095D01*
X135832380Y-39958095D01*
X135956190Y-39896190D01*
X136018095Y-39772380D01*
X136018095Y-39277142D01*
X135956190Y-39153333D01*
X135832380Y-39091428D01*
X135584761Y-39091428D01*
X135460952Y-39153333D01*
X135399047Y-39277142D01*
X135399047Y-39400952D01*
X136018095Y-39524761D01*
X134656190Y-39958095D02*
X134780000Y-39896190D01*
X134841904Y-39772380D01*
X134841904Y-38658095D01*
X133665714Y-39896190D02*
X133789523Y-39958095D01*
X134037142Y-39958095D01*
X134160952Y-39896190D01*
X134222857Y-39772380D01*
X134222857Y-39277142D01*
X134160952Y-39153333D01*
X134037142Y-39091428D01*
X133789523Y-39091428D01*
X133665714Y-39153333D01*
X133603809Y-39277142D01*
X133603809Y-39400952D01*
X134222857Y-39524761D01*
X132489523Y-39958095D02*
X132489523Y-39277142D01*
X132551428Y-39153333D01*
X132675238Y-39091428D01*
X132922857Y-39091428D01*
X133046666Y-39153333D01*
X132489523Y-39896190D02*
X132613333Y-39958095D01*
X132922857Y-39958095D01*
X133046666Y-39896190D01*
X133108571Y-39772380D01*
X133108571Y-39648571D01*
X133046666Y-39524761D01*
X132922857Y-39462857D01*
X132613333Y-39462857D01*
X132489523Y-39400952D01*
X131932380Y-39896190D02*
X131808571Y-39958095D01*
X131560952Y-39958095D01*
X131437142Y-39896190D01*
X131375238Y-39772380D01*
X131375238Y-39710476D01*
X131437142Y-39586666D01*
X131560952Y-39524761D01*
X131746666Y-39524761D01*
X131870476Y-39462857D01*
X131932380Y-39339047D01*
X131932380Y-39277142D01*
X131870476Y-39153333D01*
X131746666Y-39091428D01*
X131560952Y-39091428D01*
X131437142Y-39153333D01*
X130322857Y-39896190D02*
X130446666Y-39958095D01*
X130694285Y-39958095D01*
X130818095Y-39896190D01*
X130879999Y-39772380D01*
X130879999Y-39277142D01*
X130818095Y-39153333D01*
X130694285Y-39091428D01*
X130446666Y-39091428D01*
X130322857Y-39153333D01*
X130260952Y-39277142D01*
X130260952Y-39400952D01*
X130879999Y-39524761D01*
X129146666Y-39958095D02*
X129146666Y-38658095D01*
X129146666Y-39896190D02*
X129270476Y-39958095D01*
X129518095Y-39958095D01*
X129641904Y-39896190D01*
X129703809Y-39834285D01*
X129765714Y-39710476D01*
X129765714Y-39339047D01*
X129703809Y-39215238D01*
X129641904Y-39153333D01*
X129518095Y-39091428D01*
X129270476Y-39091428D01*
X129146666Y-39153333D01*
X126979999Y-39091428D02*
X126979999Y-39958095D01*
X127537142Y-39091428D02*
X127537142Y-39772380D01*
X127475238Y-39896190D01*
X127351428Y-39958095D01*
X127165714Y-39958095D01*
X127041904Y-39896190D01*
X126979999Y-39834285D01*
X126360952Y-39091428D02*
X126360952Y-39958095D01*
X126360952Y-39215238D02*
X126299047Y-39153333D01*
X126175238Y-39091428D01*
X125989523Y-39091428D01*
X125865714Y-39153333D01*
X125803809Y-39277142D01*
X125803809Y-39958095D01*
X124627619Y-39958095D02*
X124627619Y-38658095D01*
X124627619Y-39896190D02*
X124751428Y-39958095D01*
X124999047Y-39958095D01*
X125122857Y-39896190D01*
X125184761Y-39834285D01*
X125246666Y-39710476D01*
X125246666Y-39339047D01*
X125184761Y-39215238D01*
X125122857Y-39153333D01*
X124999047Y-39091428D01*
X124751428Y-39091428D01*
X124627619Y-39153333D01*
X123513333Y-39896190D02*
X123637142Y-39958095D01*
X123884761Y-39958095D01*
X124008571Y-39896190D01*
X124070476Y-39772380D01*
X124070476Y-39277142D01*
X124008571Y-39153333D01*
X123884761Y-39091428D01*
X123637142Y-39091428D01*
X123513333Y-39153333D01*
X123451428Y-39277142D01*
X123451428Y-39400952D01*
X124070476Y-39524761D01*
X122894285Y-39958095D02*
X122894285Y-39091428D01*
X122894285Y-39339047D02*
X122832380Y-39215238D01*
X122770476Y-39153333D01*
X122646666Y-39091428D01*
X122522857Y-39091428D01*
X121284761Y-39091428D02*
X120789523Y-39091428D01*
X121099047Y-38658095D02*
X121099047Y-39772380D01*
X121037142Y-39896190D01*
X120913333Y-39958095D01*
X120789523Y-39958095D01*
X120356190Y-39958095D02*
X120356190Y-38658095D01*
X119799047Y-39958095D02*
X119799047Y-39277142D01*
X119860952Y-39153333D01*
X119984761Y-39091428D01*
X120170476Y-39091428D01*
X120294285Y-39153333D01*
X120356190Y-39215238D01*
X118684761Y-39896190D02*
X118808571Y-39958095D01*
X119056190Y-39958095D01*
X119179999Y-39896190D01*
X119241904Y-39772380D01*
X119241904Y-39277142D01*
X119179999Y-39153333D01*
X119056190Y-39091428D01*
X118808571Y-39091428D01*
X118684761Y-39153333D01*
X118622857Y-39277142D01*
X118622857Y-39400952D01*
X119241904Y-39524761D01*
X116332380Y-39834285D02*
X116394285Y-39896190D01*
X116579999Y-39958095D01*
X116703809Y-39958095D01*
X116889523Y-39896190D01*
X117013333Y-39772380D01*
X117075238Y-39648571D01*
X117137142Y-39400952D01*
X117137142Y-39215238D01*
X117075238Y-38967619D01*
X117013333Y-38843809D01*
X116889523Y-38720000D01*
X116703809Y-38658095D01*
X116579999Y-38658095D01*
X116394285Y-38720000D01*
X116332380Y-38781904D01*
X115775238Y-39958095D02*
X115775238Y-39091428D01*
X115775238Y-39339047D02*
X115713333Y-39215238D01*
X115651428Y-39153333D01*
X115527619Y-39091428D01*
X115403809Y-39091428D01*
X114475238Y-39896190D02*
X114599047Y-39958095D01*
X114846666Y-39958095D01*
X114970476Y-39896190D01*
X115032380Y-39772380D01*
X115032380Y-39277142D01*
X114970476Y-39153333D01*
X114846666Y-39091428D01*
X114599047Y-39091428D01*
X114475238Y-39153333D01*
X114413333Y-39277142D01*
X114413333Y-39400952D01*
X115032380Y-39524761D01*
X113299047Y-39958095D02*
X113299047Y-39277142D01*
X113360952Y-39153333D01*
X113484761Y-39091428D01*
X113732380Y-39091428D01*
X113856190Y-39153333D01*
X113299047Y-39896190D02*
X113422857Y-39958095D01*
X113732380Y-39958095D01*
X113856190Y-39896190D01*
X113918095Y-39772380D01*
X113918095Y-39648571D01*
X113856190Y-39524761D01*
X113732380Y-39462857D01*
X113422857Y-39462857D01*
X113299047Y-39400952D01*
X112865714Y-39091428D02*
X112370476Y-39091428D01*
X112679999Y-38658095D02*
X112679999Y-39772380D01*
X112618095Y-39896190D01*
X112494285Y-39958095D01*
X112370476Y-39958095D01*
X111937142Y-39958095D02*
X111937142Y-39091428D01*
X111937142Y-38658095D02*
X111999047Y-38720000D01*
X111937142Y-38781904D01*
X111875238Y-38720000D01*
X111937142Y-38658095D01*
X111937142Y-38781904D01*
X111441904Y-39091428D02*
X111132380Y-39958095D01*
X110822857Y-39091428D01*
X109832380Y-39896190D02*
X109956190Y-39958095D01*
X110203809Y-39958095D01*
X110327619Y-39896190D01*
X110389523Y-39772380D01*
X110389523Y-39277142D01*
X110327619Y-39153333D01*
X110203809Y-39091428D01*
X109956190Y-39091428D01*
X109832380Y-39153333D01*
X109770476Y-39277142D01*
X109770476Y-39400952D01*
X110389523Y-39524761D01*
X107479999Y-39834285D02*
X107541904Y-39896190D01*
X107727619Y-39958095D01*
X107851428Y-39958095D01*
X108037142Y-39896190D01*
X108160952Y-39772380D01*
X108222857Y-39648571D01*
X108284761Y-39400952D01*
X108284761Y-39215238D01*
X108222857Y-38967619D01*
X108160952Y-38843809D01*
X108037142Y-38720000D01*
X107851428Y-38658095D01*
X107727619Y-38658095D01*
X107541904Y-38720000D01*
X107479999Y-38781904D01*
X106737142Y-39958095D02*
X106860952Y-39896190D01*
X106922857Y-39834285D01*
X106984761Y-39710476D01*
X106984761Y-39339047D01*
X106922857Y-39215238D01*
X106860952Y-39153333D01*
X106737142Y-39091428D01*
X106551428Y-39091428D01*
X106427619Y-39153333D01*
X106365714Y-39215238D01*
X106303809Y-39339047D01*
X106303809Y-39710476D01*
X106365714Y-39834285D01*
X106427619Y-39896190D01*
X106551428Y-39958095D01*
X106737142Y-39958095D01*
X105746666Y-39958095D02*
X105746666Y-39091428D01*
X105746666Y-39215238D02*
X105684761Y-39153333D01*
X105560952Y-39091428D01*
X105375238Y-39091428D01*
X105251428Y-39153333D01*
X105189523Y-39277142D01*
X105189523Y-39958095D01*
X105189523Y-39277142D02*
X105127619Y-39153333D01*
X105003809Y-39091428D01*
X104818095Y-39091428D01*
X104694285Y-39153333D01*
X104632380Y-39277142D01*
X104632380Y-39958095D01*
X104013333Y-39958095D02*
X104013333Y-39091428D01*
X104013333Y-39215238D02*
X103951428Y-39153333D01*
X103827619Y-39091428D01*
X103641904Y-39091428D01*
X103518095Y-39153333D01*
X103456190Y-39277142D01*
X103456190Y-39958095D01*
X103456190Y-39277142D02*
X103394285Y-39153333D01*
X103270476Y-39091428D01*
X103084761Y-39091428D01*
X102960952Y-39153333D01*
X102899047Y-39277142D01*
X102899047Y-39958095D01*
X102094285Y-39958095D02*
X102218095Y-39896190D01*
X102279999Y-39834285D01*
X102341904Y-39710476D01*
X102341904Y-39339047D01*
X102279999Y-39215238D01*
X102218095Y-39153333D01*
X102094285Y-39091428D01*
X101908571Y-39091428D01*
X101784761Y-39153333D01*
X101722857Y-39215238D01*
X101660952Y-39339047D01*
X101660952Y-39710476D01*
X101722857Y-39834285D01*
X101784761Y-39896190D01*
X101908571Y-39958095D01*
X102094285Y-39958095D01*
X101103809Y-39091428D02*
X101103809Y-39958095D01*
X101103809Y-39215238D02*
X101041904Y-39153333D01*
X100918095Y-39091428D01*
X100732380Y-39091428D01*
X100608571Y-39153333D01*
X100546666Y-39277142D01*
X100546666Y-39958095D01*
X99989523Y-39896190D02*
X99865714Y-39958095D01*
X99618095Y-39958095D01*
X99494285Y-39896190D01*
X99432380Y-39772380D01*
X99432380Y-39710476D01*
X99494285Y-39586666D01*
X99618095Y-39524761D01*
X99803809Y-39524761D01*
X99927619Y-39462857D01*
X99989523Y-39339047D01*
X99989523Y-39277142D01*
X99927619Y-39153333D01*
X99803809Y-39091428D01*
X99618095Y-39091428D01*
X99494285Y-39153333D01*
X97946666Y-39586666D02*
X97327619Y-39586666D01*
X98070476Y-39958095D02*
X97637142Y-38658095D01*
X97203809Y-39958095D01*
X96956190Y-39091428D02*
X96460952Y-39091428D01*
X96770476Y-38658095D02*
X96770476Y-39772380D01*
X96708571Y-39896190D01*
X96584761Y-39958095D01*
X96460952Y-39958095D01*
X96213333Y-39091428D02*
X95718095Y-39091428D01*
X96027619Y-38658095D02*
X96027619Y-39772380D01*
X95965714Y-39896190D01*
X95841904Y-39958095D01*
X95718095Y-39958095D01*
X95284761Y-39958095D02*
X95284761Y-39091428D01*
X95284761Y-39339047D02*
X95222857Y-39215238D01*
X95160952Y-39153333D01*
X95037142Y-39091428D01*
X94913333Y-39091428D01*
X94479999Y-39958095D02*
X94479999Y-39091428D01*
X94479999Y-38658095D02*
X94541904Y-38720000D01*
X94479999Y-38781904D01*
X94418095Y-38720000D01*
X94479999Y-38658095D01*
X94479999Y-38781904D01*
X93860952Y-39958095D02*
X93860952Y-38658095D01*
X93860952Y-39153333D02*
X93737142Y-39091428D01*
X93489523Y-39091428D01*
X93365714Y-39153333D01*
X93303809Y-39215238D01*
X93241904Y-39339047D01*
X93241904Y-39710476D01*
X93303809Y-39834285D01*
X93365714Y-39896190D01*
X93489523Y-39958095D01*
X93737142Y-39958095D01*
X93860952Y-39896190D01*
X92127619Y-39091428D02*
X92127619Y-39958095D01*
X92684761Y-39091428D02*
X92684761Y-39772380D01*
X92622857Y-39896190D01*
X92499047Y-39958095D01*
X92313333Y-39958095D01*
X92189523Y-39896190D01*
X92127619Y-39834285D01*
X91694285Y-39091428D02*
X91199047Y-39091428D01*
X91508571Y-38658095D02*
X91508571Y-39772380D01*
X91446666Y-39896190D01*
X91322857Y-39958095D01*
X91199047Y-39958095D01*
X90765714Y-39958095D02*
X90765714Y-39091428D01*
X90765714Y-38658095D02*
X90827619Y-38720000D01*
X90765714Y-38781904D01*
X90703809Y-38720000D01*
X90765714Y-38658095D01*
X90765714Y-38781904D01*
X89960952Y-39958095D02*
X90084761Y-39896190D01*
X90146666Y-39834285D01*
X90208571Y-39710476D01*
X90208571Y-39339047D01*
X90146666Y-39215238D01*
X90084761Y-39153333D01*
X89960952Y-39091428D01*
X89775238Y-39091428D01*
X89651428Y-39153333D01*
X89589523Y-39215238D01*
X89527619Y-39339047D01*
X89527619Y-39710476D01*
X89589523Y-39834285D01*
X89651428Y-39896190D01*
X89775238Y-39958095D01*
X89960952Y-39958095D01*
X88970476Y-39091428D02*
X88970476Y-39958095D01*
X88970476Y-39215238D02*
X88908571Y-39153333D01*
X88784761Y-39091428D01*
X88599047Y-39091428D01*
X88475238Y-39153333D01*
X88413333Y-39277142D01*
X88413333Y-39958095D01*
X86865714Y-39896190D02*
X86679999Y-39958095D01*
X86370476Y-39958095D01*
X86246666Y-39896190D01*
X86184761Y-39834285D01*
X86122857Y-39710476D01*
X86122857Y-39586666D01*
X86184761Y-39462857D01*
X86246666Y-39400952D01*
X86370476Y-39339047D01*
X86618095Y-39277142D01*
X86741904Y-39215238D01*
X86803809Y-39153333D01*
X86865714Y-39029523D01*
X86865714Y-38905714D01*
X86803809Y-38781904D01*
X86741904Y-38720000D01*
X86618095Y-38658095D01*
X86308571Y-38658095D01*
X86122857Y-38720000D01*
X85565714Y-39958095D02*
X85565714Y-38658095D01*
X85008571Y-39958095D02*
X85008571Y-39277142D01*
X85070476Y-39153333D01*
X85194285Y-39091428D01*
X85379999Y-39091428D01*
X85503809Y-39153333D01*
X85565714Y-39215238D01*
X83832380Y-39958095D02*
X83832380Y-39277142D01*
X83894285Y-39153333D01*
X84018095Y-39091428D01*
X84265714Y-39091428D01*
X84389523Y-39153333D01*
X83832380Y-39896190D02*
X83956190Y-39958095D01*
X84265714Y-39958095D01*
X84389523Y-39896190D01*
X84451428Y-39772380D01*
X84451428Y-39648571D01*
X84389523Y-39524761D01*
X84265714Y-39462857D01*
X83956190Y-39462857D01*
X83832380Y-39400952D01*
X83213333Y-39958095D02*
X83213333Y-39091428D01*
X83213333Y-39339047D02*
X83151428Y-39215238D01*
X83089523Y-39153333D01*
X82965714Y-39091428D01*
X82841904Y-39091428D01*
X81913333Y-39896190D02*
X82037142Y-39958095D01*
X82284761Y-39958095D01*
X82408571Y-39896190D01*
X82470476Y-39772380D01*
X82470476Y-39277142D01*
X82408571Y-39153333D01*
X82284761Y-39091428D01*
X82037142Y-39091428D01*
X81913333Y-39153333D01*
X81851428Y-39277142D01*
X81851428Y-39400952D01*
X82470476Y-39524761D01*
X81294285Y-39462857D02*
X80303809Y-39462857D01*
X79746666Y-39586666D02*
X79127619Y-39586666D01*
X79870476Y-39958095D02*
X79437142Y-38658095D01*
X79003809Y-39958095D01*
X78384761Y-39958095D02*
X78508571Y-39896190D01*
X78570476Y-39772380D01*
X78570476Y-38658095D01*
X77889523Y-39958095D02*
X77889523Y-39091428D01*
X77889523Y-38658095D02*
X77951428Y-38720000D01*
X77889523Y-38781904D01*
X77827619Y-38720000D01*
X77889523Y-38658095D01*
X77889523Y-38781904D01*
X77270476Y-39958095D02*
X77270476Y-38658095D01*
X77146666Y-39462857D02*
X76775238Y-39958095D01*
X76775238Y-39091428D02*
X77270476Y-39586666D01*
X75722857Y-39896190D02*
X75846666Y-39958095D01*
X76094285Y-39958095D01*
X76218095Y-39896190D01*
X76279999Y-39772380D01*
X76279999Y-39277142D01*
X76218095Y-39153333D01*
X76094285Y-39091428D01*
X75846666Y-39091428D01*
X75722857Y-39153333D01*
X75660952Y-39277142D01*
X75660952Y-39400952D01*
X76279999Y-39524761D01*
X73556190Y-39091428D02*
X73556190Y-39958095D01*
X73865714Y-38596190D02*
X74175238Y-39524761D01*
X73370476Y-39524761D01*
X72875238Y-39834285D02*
X72813333Y-39896190D01*
X72875238Y-39958095D01*
X72937142Y-39896190D01*
X72875238Y-39834285D01*
X72875238Y-39958095D01*
X72008571Y-38658095D02*
X71884761Y-38658095D01*
X71760952Y-38720000D01*
X71699047Y-38781904D01*
X71637142Y-38905714D01*
X71575238Y-39153333D01*
X71575238Y-39462857D01*
X71637142Y-39710476D01*
X71699047Y-39834285D01*
X71760952Y-39896190D01*
X71884761Y-39958095D01*
X72008571Y-39958095D01*
X72132380Y-39896190D01*
X72194285Y-39834285D01*
X72256190Y-39710476D01*
X72318095Y-39462857D01*
X72318095Y-39153333D01*
X72256190Y-38905714D01*
X72194285Y-38781904D01*
X72132380Y-38720000D01*
X72008571Y-38658095D01*
X69408571Y-39958095D02*
X70027619Y-39958095D01*
X70027619Y-38658095D01*
X68975238Y-39958095D02*
X68975238Y-39091428D01*
X68975238Y-38658095D02*
X69037142Y-38720000D01*
X68975238Y-38781904D01*
X68913333Y-38720000D01*
X68975238Y-38658095D01*
X68975238Y-38781904D01*
X67799047Y-39896190D02*
X67922857Y-39958095D01*
X68170476Y-39958095D01*
X68294285Y-39896190D01*
X68356190Y-39834285D01*
X68418095Y-39710476D01*
X68418095Y-39339047D01*
X68356190Y-39215238D01*
X68294285Y-39153333D01*
X68170476Y-39091428D01*
X67922857Y-39091428D01*
X67799047Y-39153333D01*
X66746666Y-39896190D02*
X66870476Y-39958095D01*
X67118095Y-39958095D01*
X67241904Y-39896190D01*
X67303809Y-39772380D01*
X67303809Y-39277142D01*
X67241904Y-39153333D01*
X67118095Y-39091428D01*
X66870476Y-39091428D01*
X66746666Y-39153333D01*
X66684761Y-39277142D01*
X66684761Y-39400952D01*
X67303809Y-39524761D01*
X66127619Y-39091428D02*
X66127619Y-39958095D01*
X66127619Y-39215238D02*
X66065714Y-39153333D01*
X65941904Y-39091428D01*
X65756190Y-39091428D01*
X65632380Y-39153333D01*
X65570476Y-39277142D01*
X65570476Y-39958095D01*
X65013333Y-39896190D02*
X64889523Y-39958095D01*
X64641904Y-39958095D01*
X64518095Y-39896190D01*
X64456190Y-39772380D01*
X64456190Y-39710476D01*
X64518095Y-39586666D01*
X64641904Y-39524761D01*
X64827619Y-39524761D01*
X64951428Y-39462857D01*
X65013333Y-39339047D01*
X65013333Y-39277142D01*
X64951428Y-39153333D01*
X64827619Y-39091428D01*
X64641904Y-39091428D01*
X64518095Y-39153333D01*
X63403809Y-39896190D02*
X63527619Y-39958095D01*
X63775238Y-39958095D01*
X63899047Y-39896190D01*
X63960952Y-39772380D01*
X63960952Y-39277142D01*
X63899047Y-39153333D01*
X63775238Y-39091428D01*
X63527619Y-39091428D01*
X63403809Y-39153333D01*
X63341904Y-39277142D01*
X63341904Y-39400952D01*
X63960952Y-39524761D01*
X137224361Y-41736095D02*
X137224361Y-40436095D01*
X136667219Y-41736095D02*
X136667219Y-41055142D01*
X136729123Y-40931333D01*
X136852933Y-40869428D01*
X137038647Y-40869428D01*
X137162457Y-40931333D01*
X137224361Y-40993238D01*
X136233885Y-40869428D02*
X135738647Y-40869428D01*
X136048171Y-40436095D02*
X136048171Y-41550380D01*
X135986266Y-41674190D01*
X135862457Y-41736095D01*
X135738647Y-41736095D01*
X135491028Y-40869428D02*
X134995790Y-40869428D01*
X135305314Y-40436095D02*
X135305314Y-41550380D01*
X135243409Y-41674190D01*
X135119600Y-41736095D01*
X134995790Y-41736095D01*
X134562457Y-40869428D02*
X134562457Y-42169428D01*
X134562457Y-40931333D02*
X134438647Y-40869428D01*
X134191028Y-40869428D01*
X134067219Y-40931333D01*
X134005314Y-40993238D01*
X133943409Y-41117047D01*
X133943409Y-41488476D01*
X134005314Y-41612285D01*
X134067219Y-41674190D01*
X134191028Y-41736095D01*
X134438647Y-41736095D01*
X134562457Y-41674190D01*
X133448171Y-41674190D02*
X133324361Y-41736095D01*
X133076742Y-41736095D01*
X132952933Y-41674190D01*
X132891028Y-41550380D01*
X132891028Y-41488476D01*
X132952933Y-41364666D01*
X133076742Y-41302761D01*
X133262457Y-41302761D01*
X133386266Y-41240857D01*
X133448171Y-41117047D01*
X133448171Y-41055142D01*
X133386266Y-40931333D01*
X133262457Y-40869428D01*
X133076742Y-40869428D01*
X132952933Y-40931333D01*
X132333885Y-41612285D02*
X132271980Y-41674190D01*
X132333885Y-41736095D01*
X132395790Y-41674190D01*
X132333885Y-41612285D01*
X132333885Y-41736095D01*
X132333885Y-40931333D02*
X132271980Y-40993238D01*
X132333885Y-41055142D01*
X132395790Y-40993238D01*
X132333885Y-40931333D01*
X132333885Y-41055142D01*
X130786266Y-40374190D02*
X131900552Y-42045619D01*
X129424361Y-40374190D02*
X130538647Y-42045619D01*
X128433885Y-41674190D02*
X128557695Y-41736095D01*
X128805314Y-41736095D01*
X128929123Y-41674190D01*
X128991028Y-41612285D01*
X129052933Y-41488476D01*
X129052933Y-41117047D01*
X128991028Y-40993238D01*
X128929123Y-40931333D01*
X128805314Y-40869428D01*
X128557695Y-40869428D01*
X128433885Y-40931333D01*
X127876742Y-41736095D02*
X127876742Y-40869428D01*
X127876742Y-41117047D02*
X127814838Y-40993238D01*
X127752933Y-40931333D01*
X127629123Y-40869428D01*
X127505314Y-40869428D01*
X126576742Y-41674190D02*
X126700552Y-41736095D01*
X126948171Y-41736095D01*
X127071980Y-41674190D01*
X127133885Y-41550380D01*
X127133885Y-41055142D01*
X127071980Y-40931333D01*
X126948171Y-40869428D01*
X126700552Y-40869428D01*
X126576742Y-40931333D01*
X126514838Y-41055142D01*
X126514838Y-41178952D01*
X127133885Y-41302761D01*
X125400552Y-41736095D02*
X125400552Y-41055142D01*
X125462457Y-40931333D01*
X125586266Y-40869428D01*
X125833885Y-40869428D01*
X125957695Y-40931333D01*
X125400552Y-41674190D02*
X125524361Y-41736095D01*
X125833885Y-41736095D01*
X125957695Y-41674190D01*
X126019599Y-41550380D01*
X126019599Y-41426571D01*
X125957695Y-41302761D01*
X125833885Y-41240857D01*
X125524361Y-41240857D01*
X125400552Y-41178952D01*
X124967219Y-40869428D02*
X124471980Y-40869428D01*
X124781504Y-40436095D02*
X124781504Y-41550380D01*
X124719599Y-41674190D01*
X124595790Y-41736095D01*
X124471980Y-41736095D01*
X124038647Y-41736095D02*
X124038647Y-40869428D01*
X124038647Y-40436095D02*
X124100552Y-40498000D01*
X124038647Y-40559904D01*
X123976742Y-40498000D01*
X124038647Y-40436095D01*
X124038647Y-40559904D01*
X123543409Y-40869428D02*
X123233885Y-41736095D01*
X122924361Y-40869428D01*
X121933885Y-41674190D02*
X122057695Y-41736095D01*
X122305314Y-41736095D01*
X122429123Y-41674190D01*
X122491028Y-41550380D01*
X122491028Y-41055142D01*
X122429123Y-40931333D01*
X122305314Y-40869428D01*
X122057695Y-40869428D01*
X121933885Y-40931333D01*
X121871980Y-41055142D01*
X121871980Y-41178952D01*
X122491028Y-41302761D01*
X120757695Y-41674190D02*
X120881504Y-41736095D01*
X121129123Y-41736095D01*
X121252933Y-41674190D01*
X121314838Y-41612285D01*
X121376742Y-41488476D01*
X121376742Y-41117047D01*
X121314838Y-40993238D01*
X121252933Y-40931333D01*
X121129123Y-40869428D01*
X120881504Y-40869428D01*
X120757695Y-40931333D01*
X120014838Y-41736095D02*
X120138647Y-41674190D01*
X120200552Y-41612285D01*
X120262457Y-41488476D01*
X120262457Y-41117047D01*
X120200552Y-40993238D01*
X120138647Y-40931333D01*
X120014838Y-40869428D01*
X119829123Y-40869428D01*
X119705314Y-40931333D01*
X119643409Y-40993238D01*
X119581504Y-41117047D01*
X119581504Y-41488476D01*
X119643409Y-41612285D01*
X119705314Y-41674190D01*
X119829123Y-41736095D01*
X120014838Y-41736095D01*
X119024361Y-41736095D02*
X119024361Y-40869428D01*
X119024361Y-40993238D02*
X118962457Y-40931333D01*
X118838647Y-40869428D01*
X118652933Y-40869428D01*
X118529123Y-40931333D01*
X118467219Y-41055142D01*
X118467219Y-41736095D01*
X118467219Y-41055142D02*
X118405314Y-40931333D01*
X118281504Y-40869428D01*
X118095790Y-40869428D01*
X117971980Y-40931333D01*
X117910076Y-41055142D01*
X117910076Y-41736095D01*
X117291028Y-41736095D02*
X117291028Y-40869428D01*
X117291028Y-40993238D02*
X117229123Y-40931333D01*
X117105314Y-40869428D01*
X116919599Y-40869428D01*
X116795790Y-40931333D01*
X116733885Y-41055142D01*
X116733885Y-41736095D01*
X116733885Y-41055142D02*
X116671980Y-40931333D01*
X116548171Y-40869428D01*
X116362457Y-40869428D01*
X116238647Y-40931333D01*
X116176742Y-41055142D01*
X116176742Y-41736095D01*
X115371980Y-41736095D02*
X115495790Y-41674190D01*
X115557695Y-41612285D01*
X115619599Y-41488476D01*
X115619599Y-41117047D01*
X115557695Y-40993238D01*
X115495790Y-40931333D01*
X115371980Y-40869428D01*
X115186266Y-40869428D01*
X115062457Y-40931333D01*
X115000552Y-40993238D01*
X114938647Y-41117047D01*
X114938647Y-41488476D01*
X115000552Y-41612285D01*
X115062457Y-41674190D01*
X115186266Y-41736095D01*
X115371980Y-41736095D01*
X114381504Y-40869428D02*
X114381504Y-41736095D01*
X114381504Y-40993238D02*
X114319599Y-40931333D01*
X114195790Y-40869428D01*
X114010076Y-40869428D01*
X113886266Y-40931333D01*
X113824361Y-41055142D01*
X113824361Y-41736095D01*
X113267219Y-41674190D02*
X113143409Y-41736095D01*
X112895790Y-41736095D01*
X112771980Y-41674190D01*
X112710076Y-41550380D01*
X112710076Y-41488476D01*
X112771980Y-41364666D01*
X112895790Y-41302761D01*
X113081504Y-41302761D01*
X113205314Y-41240857D01*
X113267219Y-41117047D01*
X113267219Y-41055142D01*
X113205314Y-40931333D01*
X113081504Y-40869428D01*
X112895790Y-40869428D01*
X112771980Y-40931333D01*
X112152933Y-41612285D02*
X112091028Y-41674190D01*
X112152933Y-41736095D01*
X112214838Y-41674190D01*
X112152933Y-41612285D01*
X112152933Y-41736095D01*
X111348171Y-41736095D02*
X111471980Y-41674190D01*
X111533885Y-41612285D01*
X111595790Y-41488476D01*
X111595790Y-41117047D01*
X111533885Y-40993238D01*
X111471980Y-40931333D01*
X111348171Y-40869428D01*
X111162457Y-40869428D01*
X111038647Y-40931333D01*
X110976742Y-40993238D01*
X110914838Y-41117047D01*
X110914838Y-41488476D01*
X110976742Y-41612285D01*
X111038647Y-41674190D01*
X111162457Y-41736095D01*
X111348171Y-41736095D01*
X110357695Y-41736095D02*
X110357695Y-40869428D01*
X110357695Y-41117047D02*
X110295790Y-40993238D01*
X110233885Y-40931333D01*
X110110076Y-40869428D01*
X109986266Y-40869428D01*
X108995790Y-40869428D02*
X108995790Y-41921809D01*
X109057695Y-42045619D01*
X109119599Y-42107523D01*
X109243409Y-42169428D01*
X109429123Y-42169428D01*
X109552933Y-42107523D01*
X108995790Y-41674190D02*
X109119599Y-41736095D01*
X109367219Y-41736095D01*
X109491028Y-41674190D01*
X109552933Y-41612285D01*
X109614838Y-41488476D01*
X109614838Y-41117047D01*
X109552933Y-40993238D01*
X109491028Y-40931333D01*
X109367219Y-40869428D01*
X109119599Y-40869428D01*
X108995790Y-40931333D01*
X107448171Y-40374190D02*
X108562457Y-42045619D01*
X106829123Y-41736095D02*
X106952933Y-41674190D01*
X107014838Y-41550380D01*
X107014838Y-40436095D01*
X106333885Y-41736095D02*
X106333885Y-40869428D01*
X106333885Y-40436095D02*
X106395790Y-40498000D01*
X106333885Y-40559904D01*
X106271980Y-40498000D01*
X106333885Y-40436095D01*
X106333885Y-40559904D01*
X105157695Y-41674190D02*
X105281504Y-41736095D01*
X105529123Y-41736095D01*
X105652933Y-41674190D01*
X105714838Y-41612285D01*
X105776742Y-41488476D01*
X105776742Y-41117047D01*
X105714838Y-40993238D01*
X105652933Y-40931333D01*
X105529123Y-40869428D01*
X105281504Y-40869428D01*
X105157695Y-40931333D01*
X104105314Y-41674190D02*
X104229123Y-41736095D01*
X104476742Y-41736095D01*
X104600552Y-41674190D01*
X104662457Y-41550380D01*
X104662457Y-41055142D01*
X104600552Y-40931333D01*
X104476742Y-40869428D01*
X104229123Y-40869428D01*
X104105314Y-40931333D01*
X104043409Y-41055142D01*
X104043409Y-41178952D01*
X104662457Y-41302761D01*
X103486266Y-40869428D02*
X103486266Y-41736095D01*
X103486266Y-40993238D02*
X103424361Y-40931333D01*
X103300552Y-40869428D01*
X103114838Y-40869428D01*
X102991028Y-40931333D01*
X102929123Y-41055142D01*
X102929123Y-41736095D01*
X102371980Y-41674190D02*
X102248171Y-41736095D01*
X102000552Y-41736095D01*
X101876742Y-41674190D01*
X101814838Y-41550380D01*
X101814838Y-41488476D01*
X101876742Y-41364666D01*
X102000552Y-41302761D01*
X102186266Y-41302761D01*
X102310076Y-41240857D01*
X102371980Y-41117047D01*
X102371980Y-41055142D01*
X102310076Y-40931333D01*
X102186266Y-40869428D01*
X102000552Y-40869428D01*
X101876742Y-40931333D01*
X100762457Y-41674190D02*
X100886266Y-41736095D01*
X101133885Y-41736095D01*
X101257695Y-41674190D01*
X101319599Y-41550380D01*
X101319599Y-41055142D01*
X101257695Y-40931333D01*
X101133885Y-40869428D01*
X100886266Y-40869428D01*
X100762457Y-40931333D01*
X100700552Y-41055142D01*
X100700552Y-41178952D01*
X101319599Y-41302761D01*
X100205314Y-41674190D02*
X100081504Y-41736095D01*
X99833885Y-41736095D01*
X99710076Y-41674190D01*
X99648171Y-41550380D01*
X99648171Y-41488476D01*
X99710076Y-41364666D01*
X99833885Y-41302761D01*
X100019599Y-41302761D01*
X100143409Y-41240857D01*
X100205314Y-41117047D01*
X100205314Y-41055142D01*
X100143409Y-40931333D01*
X100019599Y-40869428D01*
X99833885Y-40869428D01*
X99710076Y-40931333D01*
X98162457Y-40374190D02*
X99276742Y-42045619D01*
X97729123Y-41736095D02*
X97729123Y-40436095D01*
X97729123Y-40931333D02*
X97605314Y-40869428D01*
X97357695Y-40869428D01*
X97233885Y-40931333D01*
X97171980Y-40993238D01*
X97110076Y-41117047D01*
X97110076Y-41488476D01*
X97171980Y-41612285D01*
X97233885Y-41674190D01*
X97357695Y-41736095D01*
X97605314Y-41736095D01*
X97729123Y-41674190D01*
X96676742Y-40869428D02*
X96367219Y-41736095D01*
X96057695Y-40869428D02*
X96367219Y-41736095D01*
X96491028Y-42045619D01*
X96552933Y-42107523D01*
X96676742Y-42169428D01*
X95562457Y-41240857D02*
X94571980Y-41240857D01*
X94014838Y-41674190D02*
X93891028Y-41736095D01*
X93643409Y-41736095D01*
X93519599Y-41674190D01*
X93457695Y-41550380D01*
X93457695Y-41488476D01*
X93519599Y-41364666D01*
X93643409Y-41302761D01*
X93829123Y-41302761D01*
X93952933Y-41240857D01*
X94014838Y-41117047D01*
X94014838Y-41055142D01*
X93952933Y-40931333D01*
X93829123Y-40869428D01*
X93643409Y-40869428D01*
X93519599Y-40931333D01*
X92343409Y-41736095D02*
X92343409Y-41055142D01*
X92405314Y-40931333D01*
X92529123Y-40869428D01*
X92776742Y-40869428D01*
X92900552Y-40931333D01*
X92343409Y-41674190D02*
X92467219Y-41736095D01*
X92776742Y-41736095D01*
X92900552Y-41674190D01*
X92962457Y-41550380D01*
X92962457Y-41426571D01*
X92900552Y-41302761D01*
X92776742Y-41240857D01*
X92467219Y-41240857D01*
X92343409Y-41178952D01*
X90795790Y-40374190D02*
X91910076Y-42045619D01*
X89805314Y-40869428D02*
X89805314Y-41736095D01*
X90114838Y-40374190D02*
X90424361Y-41302761D01*
X89619599Y-41302761D01*
X89124361Y-41612285D02*
X89062457Y-41674190D01*
X89124361Y-41736095D01*
X89186266Y-41674190D01*
X89124361Y-41612285D01*
X89124361Y-41736095D01*
X88257695Y-40436095D02*
X88133885Y-40436095D01*
X88010076Y-40498000D01*
X87948171Y-40559904D01*
X87886266Y-40683714D01*
X87824361Y-40931333D01*
X87824361Y-41240857D01*
X87886266Y-41488476D01*
X87948171Y-41612285D01*
X88010076Y-41674190D01*
X88133885Y-41736095D01*
X88257695Y-41736095D01*
X88381504Y-41674190D01*
X88443409Y-41612285D01*
X88505314Y-41488476D01*
X88567219Y-41240857D01*
X88567219Y-40931333D01*
X88505314Y-40683714D01*
X88443409Y-40559904D01*
X88381504Y-40498000D01*
X88257695Y-40436095D01*
X86338647Y-40374190D02*
X87452933Y-42045619D01*
X137272380Y-43590295D02*
X137272380Y-42290295D01*
X136962857Y-42290295D01*
X136777142Y-42352200D01*
X136653333Y-42476009D01*
X136591428Y-42599819D01*
X136529523Y-42847438D01*
X136529523Y-43033152D01*
X136591428Y-43280771D01*
X136653333Y-43404580D01*
X136777142Y-43528390D01*
X136962857Y-43590295D01*
X137272380Y-43590295D01*
X135477142Y-43528390D02*
X135600952Y-43590295D01*
X135848571Y-43590295D01*
X135972380Y-43528390D01*
X136034285Y-43404580D01*
X136034285Y-42909342D01*
X135972380Y-42785533D01*
X135848571Y-42723628D01*
X135600952Y-42723628D01*
X135477142Y-42785533D01*
X135415238Y-42909342D01*
X135415238Y-43033152D01*
X136034285Y-43156961D01*
X134920000Y-43528390D02*
X134796190Y-43590295D01*
X134548571Y-43590295D01*
X134424761Y-43528390D01*
X134362857Y-43404580D01*
X134362857Y-43342676D01*
X134424761Y-43218866D01*
X134548571Y-43156961D01*
X134734285Y-43156961D01*
X134858095Y-43095057D01*
X134920000Y-42971247D01*
X134920000Y-42909342D01*
X134858095Y-42785533D01*
X134734285Y-42723628D01*
X134548571Y-42723628D01*
X134424761Y-42785533D01*
X133805714Y-43590295D02*
X133805714Y-42723628D01*
X133805714Y-42290295D02*
X133867619Y-42352200D01*
X133805714Y-42414104D01*
X133743809Y-42352200D01*
X133805714Y-42290295D01*
X133805714Y-42414104D01*
X132629523Y-42723628D02*
X132629523Y-43776009D01*
X132691428Y-43899819D01*
X132753333Y-43961723D01*
X132877142Y-44023628D01*
X133062857Y-44023628D01*
X133186666Y-43961723D01*
X132629523Y-43528390D02*
X132753333Y-43590295D01*
X133000952Y-43590295D01*
X133124761Y-43528390D01*
X133186666Y-43466485D01*
X133248571Y-43342676D01*
X133248571Y-42971247D01*
X133186666Y-42847438D01*
X133124761Y-42785533D01*
X133000952Y-42723628D01*
X132753333Y-42723628D01*
X132629523Y-42785533D01*
X132010476Y-42723628D02*
X132010476Y-43590295D01*
X132010476Y-42847438D02*
X131948571Y-42785533D01*
X131824761Y-42723628D01*
X131639047Y-42723628D01*
X131515238Y-42785533D01*
X131453333Y-42909342D01*
X131453333Y-43590295D01*
X130339047Y-43528390D02*
X130462857Y-43590295D01*
X130710476Y-43590295D01*
X130834285Y-43528390D01*
X130896190Y-43404580D01*
X130896190Y-42909342D01*
X130834285Y-42785533D01*
X130710476Y-42723628D01*
X130462857Y-42723628D01*
X130339047Y-42785533D01*
X130277142Y-42909342D01*
X130277142Y-43033152D01*
X130896190Y-43156961D01*
X129162857Y-43590295D02*
X129162857Y-42290295D01*
X129162857Y-43528390D02*
X129286666Y-43590295D01*
X129534285Y-43590295D01*
X129658095Y-43528390D01*
X129720000Y-43466485D01*
X129781904Y-43342676D01*
X129781904Y-42971247D01*
X129720000Y-42847438D01*
X129658095Y-42785533D01*
X129534285Y-42723628D01*
X129286666Y-42723628D01*
X129162857Y-42785533D01*
X127553333Y-43590295D02*
X127553333Y-42290295D01*
X127553333Y-42785533D02*
X127429523Y-42723628D01*
X127181904Y-42723628D01*
X127058095Y-42785533D01*
X126996190Y-42847438D01*
X126934285Y-42971247D01*
X126934285Y-43342676D01*
X126996190Y-43466485D01*
X127058095Y-43528390D01*
X127181904Y-43590295D01*
X127429523Y-43590295D01*
X127553333Y-43528390D01*
X126500952Y-42723628D02*
X126191428Y-43590295D01*
X125881904Y-42723628D02*
X126191428Y-43590295D01*
X126315238Y-43899819D01*
X126377142Y-43961723D01*
X126500952Y-44023628D01*
X125386666Y-43466485D02*
X125324761Y-43528390D01*
X125386666Y-43590295D01*
X125448571Y-43528390D01*
X125386666Y-43466485D01*
X125386666Y-43590295D01*
X125386666Y-42785533D02*
X125324761Y-42847438D01*
X125386666Y-42909342D01*
X125448571Y-42847438D01*
X125386666Y-42785533D01*
X125386666Y-42909342D01*
X123777142Y-43590295D02*
X123777142Y-42290295D01*
X123034285Y-43590295D01*
X123034285Y-42290295D01*
X121858095Y-43590295D02*
X121858095Y-42909342D01*
X121920000Y-42785533D01*
X122043809Y-42723628D01*
X122291428Y-42723628D01*
X122415238Y-42785533D01*
X121858095Y-43528390D02*
X121981904Y-43590295D01*
X122291428Y-43590295D01*
X122415238Y-43528390D01*
X122477142Y-43404580D01*
X122477142Y-43280771D01*
X122415238Y-43156961D01*
X122291428Y-43095057D01*
X121981904Y-43095057D01*
X121858095Y-43033152D01*
X121424761Y-42723628D02*
X120929523Y-42723628D01*
X121239047Y-42290295D02*
X121239047Y-43404580D01*
X121177142Y-43528390D01*
X121053333Y-43590295D01*
X120929523Y-43590295D01*
X120496190Y-43590295D02*
X120496190Y-42290295D01*
X119939047Y-43590295D02*
X119939047Y-42909342D01*
X120000952Y-42785533D01*
X120124761Y-42723628D01*
X120310476Y-42723628D01*
X120434285Y-42785533D01*
X120496190Y-42847438D01*
X118762857Y-43590295D02*
X118762857Y-42909342D01*
X118824761Y-42785533D01*
X118948571Y-42723628D01*
X119196190Y-42723628D01*
X119320000Y-42785533D01*
X118762857Y-43528390D02*
X118886666Y-43590295D01*
X119196190Y-43590295D01*
X119320000Y-43528390D01*
X119381904Y-43404580D01*
X119381904Y-43280771D01*
X119320000Y-43156961D01*
X119196190Y-43095057D01*
X118886666Y-43095057D01*
X118762857Y-43033152D01*
X118143809Y-42723628D02*
X118143809Y-43590295D01*
X118143809Y-42847438D02*
X118081904Y-42785533D01*
X117958095Y-42723628D01*
X117772380Y-42723628D01*
X117648571Y-42785533D01*
X117586666Y-42909342D01*
X117586666Y-43590295D01*
X116967619Y-43590295D02*
X116967619Y-42723628D01*
X116967619Y-42290295D02*
X117029523Y-42352200D01*
X116967619Y-42414104D01*
X116905714Y-42352200D01*
X116967619Y-42290295D01*
X116967619Y-42414104D01*
X115853333Y-43528390D02*
X115977142Y-43590295D01*
X116224761Y-43590295D01*
X116348571Y-43528390D01*
X116410476Y-43404580D01*
X116410476Y-42909342D01*
X116348571Y-42785533D01*
X116224761Y-42723628D01*
X115977142Y-42723628D01*
X115853333Y-42785533D01*
X115791428Y-42909342D01*
X115791428Y-43033152D01*
X116410476Y-43156961D01*
X115048571Y-43590295D02*
X115172380Y-43528390D01*
X115234285Y-43404580D01*
X115234285Y-42290295D01*
X113562857Y-43590295D02*
X113562857Y-42290295D01*
X113129523Y-43218866D01*
X112696190Y-42290295D01*
X112696190Y-43590295D01*
X111520000Y-43528390D02*
X111643809Y-43590295D01*
X111891428Y-43590295D01*
X112015238Y-43528390D01*
X112077142Y-43466485D01*
X112139047Y-43342676D01*
X112139047Y-42971247D01*
X112077142Y-42847438D01*
X112015238Y-42785533D01*
X111891428Y-42723628D01*
X111643809Y-42723628D01*
X111520000Y-42785533D01*
X110529523Y-42909342D02*
X110343809Y-42971247D01*
X110281904Y-43033152D01*
X110220000Y-43156961D01*
X110220000Y-43342676D01*
X110281904Y-43466485D01*
X110343809Y-43528390D01*
X110467619Y-43590295D01*
X110962857Y-43590295D01*
X110962857Y-42290295D01*
X110529523Y-42290295D01*
X110405714Y-42352200D01*
X110343809Y-42414104D01*
X110281904Y-42537914D01*
X110281904Y-42661723D01*
X110343809Y-42785533D01*
X110405714Y-42847438D01*
X110529523Y-42909342D01*
X110962857Y-42909342D01*
X109662857Y-43590295D02*
X109662857Y-42723628D01*
X109662857Y-42971247D02*
X109600952Y-42847438D01*
X109539047Y-42785533D01*
X109415238Y-42723628D01*
X109291428Y-42723628D01*
X108858095Y-43590295D02*
X108858095Y-42723628D01*
X108858095Y-42290295D02*
X108920000Y-42352200D01*
X108858095Y-42414104D01*
X108796190Y-42352200D01*
X108858095Y-42290295D01*
X108858095Y-42414104D01*
X107681904Y-43590295D02*
X107681904Y-42290295D01*
X107681904Y-43528390D02*
X107805714Y-43590295D01*
X108053333Y-43590295D01*
X108177142Y-43528390D01*
X108239047Y-43466485D01*
X108300952Y-43342676D01*
X108300952Y-42971247D01*
X108239047Y-42847438D01*
X108177142Y-42785533D01*
X108053333Y-42723628D01*
X107805714Y-42723628D01*
X107681904Y-42785533D01*
X106567619Y-43528390D02*
X106691428Y-43590295D01*
X106939047Y-43590295D01*
X107062857Y-43528390D01*
X107124761Y-43404580D01*
X107124761Y-42909342D01*
X107062857Y-42785533D01*
X106939047Y-42723628D01*
X106691428Y-42723628D01*
X106567619Y-42785533D01*
X106505714Y-42909342D01*
X106505714Y-43033152D01*
X107124761Y-43156961D01*
D11*
%TO.C,J1*%
X61646344Y-81027480D02*
G75*
G03*
X61646344Y-81027480I-381000J0D01*
G01*
%TO.C,J2*%
X97688400Y-80796257D02*
G75*
G03*
X97688400Y-80796257I-381000J0D01*
G01*
%TD*%
M02*
