%TF.GenerationSoftware,KiCad,Pcbnew,(6.0.9)*%
%TF.CreationDate,2023-01-10T21:20:11-08:00*%
%TF.ProjectId,RPCM1 IO Board,5250434d-3120-4494-9f20-426f6172642e,1*%
%TF.SameCoordinates,Original*%
%TF.FileFunction,Legend,Top*%
%TF.FilePolarity,Positive*%
%FSLAX46Y46*%
G04 Gerber Fmt 4.6, Leading zero omitted, Abs format (unit mm)*
G04 Created by KiCad (PCBNEW (6.0.9)) date 2023-01-10 21:20:11*
%MOMM*%
%LPD*%
G01*
G04 APERTURE LIST*
%ADD10C,0.150000*%
%ADD11C,0.098425*%
%ADD12C,0.127000*%
%ADD13C,0.120000*%
%ADD14C,0.066040*%
%ADD15C,0.100000*%
%ADD16C,0.200000*%
G04 APERTURE END LIST*
D10*
%TO.C,J1*%
X66164410Y-83526380D02*
X66164410Y-84240666D01*
X66116791Y-84383523D01*
X66021553Y-84478761D01*
X65878696Y-84526380D01*
X65783458Y-84526380D01*
X67164410Y-84526380D02*
X66592982Y-84526380D01*
X66878696Y-84526380D02*
X66878696Y-83526380D01*
X66783458Y-83669238D01*
X66688220Y-83764476D01*
X66592982Y-83812095D01*
X63286095Y-87066380D02*
X63286095Y-86066380D01*
X63667047Y-86066380D01*
X63762285Y-86114000D01*
X63809904Y-86161619D01*
X63857523Y-86256857D01*
X63857523Y-86399714D01*
X63809904Y-86494952D01*
X63762285Y-86542571D01*
X63667047Y-86590190D01*
X63286095Y-86590190D01*
X64428952Y-87066380D02*
X64333714Y-87018761D01*
X64286095Y-86971142D01*
X64238476Y-86875904D01*
X64238476Y-86590190D01*
X64286095Y-86494952D01*
X64333714Y-86447333D01*
X64428952Y-86399714D01*
X64571809Y-86399714D01*
X64667047Y-86447333D01*
X64714666Y-86494952D01*
X64762285Y-86590190D01*
X64762285Y-86875904D01*
X64714666Y-86971142D01*
X64667047Y-87018761D01*
X64571809Y-87066380D01*
X64428952Y-87066380D01*
X65095619Y-86399714D02*
X65286095Y-87066380D01*
X65476571Y-86590190D01*
X65667047Y-87066380D01*
X65857523Y-86399714D01*
X66619428Y-87018761D02*
X66524190Y-87066380D01*
X66333714Y-87066380D01*
X66238476Y-87018761D01*
X66190857Y-86923523D01*
X66190857Y-86542571D01*
X66238476Y-86447333D01*
X66333714Y-86399714D01*
X66524190Y-86399714D01*
X66619428Y-86447333D01*
X66667047Y-86542571D01*
X66667047Y-86637809D01*
X66190857Y-86733047D01*
X67095619Y-87066380D02*
X67095619Y-86399714D01*
X67095619Y-86590190D02*
X67143238Y-86494952D01*
X67190857Y-86447333D01*
X67286095Y-86399714D01*
X67381333Y-86399714D01*
X68952761Y-86066380D02*
X68476571Y-86066380D01*
X68428952Y-86542571D01*
X68476571Y-86494952D01*
X68571809Y-86447333D01*
X68809904Y-86447333D01*
X68905142Y-86494952D01*
X68952761Y-86542571D01*
X69000380Y-86637809D01*
X69000380Y-86875904D01*
X68952761Y-86971142D01*
X68905142Y-87018761D01*
X68809904Y-87066380D01*
X68571809Y-87066380D01*
X68476571Y-87018761D01*
X68428952Y-86971142D01*
X69286095Y-86066380D02*
X69619428Y-87066380D01*
X69952761Y-86066380D01*
D11*
%TO.C,C17*%
X95865606Y-74403187D02*
X95846858Y-74421935D01*
X95790615Y-74440682D01*
X95753120Y-74440682D01*
X95696877Y-74421935D01*
X95659382Y-74384439D01*
X95640634Y-74346944D01*
X95621886Y-74271953D01*
X95621886Y-74215710D01*
X95640634Y-74140720D01*
X95659382Y-74103224D01*
X95696877Y-74065729D01*
X95753120Y-74046981D01*
X95790615Y-74046981D01*
X95846858Y-74065729D01*
X95865606Y-74084477D01*
X96240559Y-74440682D02*
X96015587Y-74440682D01*
X96128073Y-74440682D02*
X96128073Y-74046981D01*
X96090578Y-74103224D01*
X96053083Y-74140720D01*
X96015587Y-74159467D01*
X96371793Y-74046981D02*
X96634260Y-74046981D01*
X96465531Y-74440682D01*
%TO.C,C9*%
X121464307Y-58079196D02*
X121483055Y-58097944D01*
X121501802Y-58154187D01*
X121501802Y-58191682D01*
X121483055Y-58247925D01*
X121445559Y-58285421D01*
X121408064Y-58304168D01*
X121333073Y-58322916D01*
X121276830Y-58322916D01*
X121201840Y-58304168D01*
X121164344Y-58285421D01*
X121126849Y-58247925D01*
X121108101Y-58191682D01*
X121108101Y-58154187D01*
X121126849Y-58097944D01*
X121145597Y-58079196D01*
X121501802Y-57891720D02*
X121501802Y-57816729D01*
X121483055Y-57779234D01*
X121464307Y-57760486D01*
X121408064Y-57722991D01*
X121333073Y-57704243D01*
X121183092Y-57704243D01*
X121145597Y-57722991D01*
X121126849Y-57741738D01*
X121108101Y-57779234D01*
X121108101Y-57854224D01*
X121126849Y-57891720D01*
X121145597Y-57910467D01*
X121183092Y-57929215D01*
X121276830Y-57929215D01*
X121314326Y-57910467D01*
X121333073Y-57891720D01*
X121351821Y-57854224D01*
X121351821Y-57779234D01*
X121333073Y-57741738D01*
X121314326Y-57722991D01*
X121276830Y-57704243D01*
D12*
%TO.C,R3*%
X76492100Y-82767351D02*
X76288900Y-82477065D01*
X76143757Y-82767351D02*
X76143757Y-82157751D01*
X76375985Y-82157751D01*
X76434042Y-82186780D01*
X76463071Y-82215808D01*
X76492100Y-82273865D01*
X76492100Y-82360951D01*
X76463071Y-82419008D01*
X76434042Y-82448037D01*
X76375985Y-82477065D01*
X76143757Y-82477065D01*
X76695300Y-82157751D02*
X77072671Y-82157751D01*
X76869471Y-82389980D01*
X76956557Y-82389980D01*
X77014614Y-82419008D01*
X77043642Y-82448037D01*
X77072671Y-82506094D01*
X77072671Y-82651237D01*
X77043642Y-82709294D01*
X77014614Y-82738322D01*
X76956557Y-82767351D01*
X76782385Y-82767351D01*
X76724328Y-82738322D01*
X76695300Y-82709294D01*
X74793928Y-85307351D02*
X74445585Y-85307351D01*
X74619757Y-85307351D02*
X74619757Y-84697751D01*
X74561700Y-84784837D01*
X74503642Y-84842894D01*
X74445585Y-84871922D01*
X75171300Y-84697751D02*
X75229357Y-84697751D01*
X75287414Y-84726780D01*
X75316442Y-84755808D01*
X75345471Y-84813865D01*
X75374500Y-84929980D01*
X75374500Y-85075122D01*
X75345471Y-85191237D01*
X75316442Y-85249294D01*
X75287414Y-85278322D01*
X75229357Y-85307351D01*
X75171300Y-85307351D01*
X75113242Y-85278322D01*
X75084214Y-85249294D01*
X75055185Y-85191237D01*
X75026157Y-85075122D01*
X75026157Y-84929980D01*
X75055185Y-84813865D01*
X75084214Y-84755808D01*
X75113242Y-84726780D01*
X75171300Y-84697751D01*
X75751871Y-84697751D02*
X75809928Y-84697751D01*
X75867985Y-84726780D01*
X75897014Y-84755808D01*
X75926042Y-84813865D01*
X75955071Y-84929980D01*
X75955071Y-85075122D01*
X75926042Y-85191237D01*
X75897014Y-85249294D01*
X75867985Y-85278322D01*
X75809928Y-85307351D01*
X75751871Y-85307351D01*
X75693814Y-85278322D01*
X75664785Y-85249294D01*
X75635757Y-85191237D01*
X75606728Y-85075122D01*
X75606728Y-84929980D01*
X75635757Y-84813865D01*
X75664785Y-84755808D01*
X75693814Y-84726780D01*
X75751871Y-84697751D01*
X76796900Y-84697751D02*
X76854957Y-84697751D01*
X76913014Y-84726780D01*
X76942042Y-84755808D01*
X76971071Y-84813865D01*
X77000100Y-84929980D01*
X77000100Y-85075122D01*
X76971071Y-85191237D01*
X76942042Y-85249294D01*
X76913014Y-85278322D01*
X76854957Y-85307351D01*
X76796900Y-85307351D01*
X76738842Y-85278322D01*
X76709814Y-85249294D01*
X76680785Y-85191237D01*
X76651757Y-85075122D01*
X76651757Y-84929980D01*
X76680785Y-84813865D01*
X76709814Y-84755808D01*
X76738842Y-84726780D01*
X76796900Y-84697751D01*
X77522614Y-84900951D02*
X77522614Y-85307351D01*
X77377471Y-84668722D02*
X77232328Y-85104151D01*
X77609700Y-85104151D01*
X77958042Y-84697751D02*
X78016100Y-84697751D01*
X78074157Y-84726780D01*
X78103185Y-84755808D01*
X78132214Y-84813865D01*
X78161242Y-84929980D01*
X78161242Y-85075122D01*
X78132214Y-85191237D01*
X78103185Y-85249294D01*
X78074157Y-85278322D01*
X78016100Y-85307351D01*
X77958042Y-85307351D01*
X77899985Y-85278322D01*
X77870957Y-85249294D01*
X77841928Y-85191237D01*
X77812900Y-85075122D01*
X77812900Y-84929980D01*
X77841928Y-84813865D01*
X77870957Y-84755808D01*
X77899985Y-84726780D01*
X77958042Y-84697751D01*
X78393471Y-84755808D02*
X78422500Y-84726780D01*
X78480557Y-84697751D01*
X78625700Y-84697751D01*
X78683757Y-84726780D01*
X78712785Y-84755808D01*
X78741814Y-84813865D01*
X78741814Y-84871922D01*
X78712785Y-84959008D01*
X78364442Y-85307351D01*
X78741814Y-85307351D01*
%TO.C,R5*%
X102650471Y-74465180D02*
X102360185Y-74668380D01*
X102650471Y-74813522D02*
X102040871Y-74813522D01*
X102040871Y-74581294D01*
X102069900Y-74523237D01*
X102098928Y-74494208D01*
X102156985Y-74465180D01*
X102244071Y-74465180D01*
X102302128Y-74494208D01*
X102331157Y-74523237D01*
X102360185Y-74581294D01*
X102360185Y-74813522D01*
X102040871Y-73913637D02*
X102040871Y-74203922D01*
X102331157Y-74232951D01*
X102302128Y-74203922D01*
X102273100Y-74145865D01*
X102273100Y-74000722D01*
X102302128Y-73942665D01*
X102331157Y-73913637D01*
X102389214Y-73884608D01*
X102534357Y-73884608D01*
X102592414Y-73913637D01*
X102621442Y-73942665D01*
X102650471Y-74000722D01*
X102650471Y-74145865D01*
X102621442Y-74203922D01*
X102592414Y-74232951D01*
X100110471Y-76468151D02*
X100110471Y-76816494D01*
X100110471Y-76642322D02*
X99500871Y-76642322D01*
X99587957Y-76700380D01*
X99646014Y-76758437D01*
X99675042Y-76816494D01*
X99500871Y-76090780D02*
X99500871Y-76032722D01*
X99529900Y-75974665D01*
X99558928Y-75945637D01*
X99616985Y-75916608D01*
X99733100Y-75887580D01*
X99878242Y-75887580D01*
X99994357Y-75916608D01*
X100052414Y-75945637D01*
X100081442Y-75974665D01*
X100110471Y-76032722D01*
X100110471Y-76090780D01*
X100081442Y-76148837D01*
X100052414Y-76177865D01*
X99994357Y-76206894D01*
X99878242Y-76235922D01*
X99733100Y-76235922D01*
X99616985Y-76206894D01*
X99558928Y-76177865D01*
X99529900Y-76148837D01*
X99500871Y-76090780D01*
X99500871Y-75510208D02*
X99500871Y-75452151D01*
X99529900Y-75394094D01*
X99558928Y-75365065D01*
X99616985Y-75336037D01*
X99733100Y-75307008D01*
X99878242Y-75307008D01*
X99994357Y-75336037D01*
X100052414Y-75365065D01*
X100081442Y-75394094D01*
X100110471Y-75452151D01*
X100110471Y-75510208D01*
X100081442Y-75568265D01*
X100052414Y-75597294D01*
X99994357Y-75626322D01*
X99878242Y-75655351D01*
X99733100Y-75655351D01*
X99616985Y-75626322D01*
X99558928Y-75597294D01*
X99529900Y-75568265D01*
X99500871Y-75510208D01*
X100110471Y-75045751D02*
X99500871Y-75045751D01*
X100110471Y-74697408D02*
X99762128Y-74958665D01*
X99500871Y-74697408D02*
X99849214Y-75045751D01*
X99500871Y-73855580D02*
X99500871Y-73797522D01*
X99529900Y-73739465D01*
X99558928Y-73710437D01*
X99616985Y-73681408D01*
X99733100Y-73652380D01*
X99878242Y-73652380D01*
X99994357Y-73681408D01*
X100052414Y-73710437D01*
X100081442Y-73739465D01*
X100110471Y-73797522D01*
X100110471Y-73855580D01*
X100081442Y-73913637D01*
X100052414Y-73942665D01*
X99994357Y-73971694D01*
X99878242Y-74000722D01*
X99733100Y-74000722D01*
X99616985Y-73971694D01*
X99558928Y-73942665D01*
X99529900Y-73913637D01*
X99500871Y-73855580D01*
X99704071Y-73129865D02*
X100110471Y-73129865D01*
X99471842Y-73275008D02*
X99907271Y-73420151D01*
X99907271Y-73042780D01*
X99500871Y-72694437D02*
X99500871Y-72636380D01*
X99529900Y-72578322D01*
X99558928Y-72549294D01*
X99616985Y-72520265D01*
X99733100Y-72491237D01*
X99878242Y-72491237D01*
X99994357Y-72520265D01*
X100052414Y-72549294D01*
X100081442Y-72578322D01*
X100110471Y-72636380D01*
X100110471Y-72694437D01*
X100081442Y-72752494D01*
X100052414Y-72781522D01*
X99994357Y-72810551D01*
X99878242Y-72839580D01*
X99733100Y-72839580D01*
X99616985Y-72810551D01*
X99558928Y-72781522D01*
X99529900Y-72752494D01*
X99500871Y-72694437D01*
X99558928Y-72259008D02*
X99529900Y-72229980D01*
X99500871Y-72171922D01*
X99500871Y-72026780D01*
X99529900Y-71968722D01*
X99558928Y-71939694D01*
X99616985Y-71910665D01*
X99675042Y-71910665D01*
X99762128Y-71939694D01*
X100110471Y-72288037D01*
X100110471Y-71910665D01*
%TO.C,R8*%
X102527100Y-37555351D02*
X102323900Y-37265065D01*
X102178757Y-37555351D02*
X102178757Y-36945751D01*
X102410985Y-36945751D01*
X102469042Y-36974780D01*
X102498071Y-37003808D01*
X102527100Y-37061865D01*
X102527100Y-37148951D01*
X102498071Y-37207008D01*
X102469042Y-37236037D01*
X102410985Y-37265065D01*
X102178757Y-37265065D01*
X102875442Y-37207008D02*
X102817385Y-37177980D01*
X102788357Y-37148951D01*
X102759328Y-37090894D01*
X102759328Y-37061865D01*
X102788357Y-37003808D01*
X102817385Y-36974780D01*
X102875442Y-36945751D01*
X102991557Y-36945751D01*
X103049614Y-36974780D01*
X103078642Y-37003808D01*
X103107671Y-37061865D01*
X103107671Y-37090894D01*
X103078642Y-37148951D01*
X103049614Y-37177980D01*
X102991557Y-37207008D01*
X102875442Y-37207008D01*
X102817385Y-37236037D01*
X102788357Y-37265065D01*
X102759328Y-37323122D01*
X102759328Y-37439237D01*
X102788357Y-37497294D01*
X102817385Y-37526322D01*
X102875442Y-37555351D01*
X102991557Y-37555351D01*
X103049614Y-37526322D01*
X103078642Y-37497294D01*
X103107671Y-37439237D01*
X103107671Y-37323122D01*
X103078642Y-37265065D01*
X103049614Y-37236037D01*
X102991557Y-37207008D01*
X100524128Y-39841351D02*
X100175785Y-39841351D01*
X100349957Y-39841351D02*
X100349957Y-39231751D01*
X100291900Y-39318837D01*
X100233842Y-39376894D01*
X100175785Y-39405922D01*
X100901500Y-39231751D02*
X100959557Y-39231751D01*
X101017614Y-39260780D01*
X101046642Y-39289808D01*
X101075671Y-39347865D01*
X101104700Y-39463980D01*
X101104700Y-39609122D01*
X101075671Y-39725237D01*
X101046642Y-39783294D01*
X101017614Y-39812322D01*
X100959557Y-39841351D01*
X100901500Y-39841351D01*
X100843442Y-39812322D01*
X100814414Y-39783294D01*
X100785385Y-39725237D01*
X100756357Y-39609122D01*
X100756357Y-39463980D01*
X100785385Y-39347865D01*
X100814414Y-39289808D01*
X100843442Y-39260780D01*
X100901500Y-39231751D01*
X101482071Y-39231751D02*
X101540128Y-39231751D01*
X101598185Y-39260780D01*
X101627214Y-39289808D01*
X101656242Y-39347865D01*
X101685271Y-39463980D01*
X101685271Y-39609122D01*
X101656242Y-39725237D01*
X101627214Y-39783294D01*
X101598185Y-39812322D01*
X101540128Y-39841351D01*
X101482071Y-39841351D01*
X101424014Y-39812322D01*
X101394985Y-39783294D01*
X101365957Y-39725237D01*
X101336928Y-39609122D01*
X101336928Y-39463980D01*
X101365957Y-39347865D01*
X101394985Y-39289808D01*
X101424014Y-39260780D01*
X101482071Y-39231751D01*
X101946528Y-39841351D02*
X101946528Y-39231751D01*
X102294871Y-39841351D02*
X102033614Y-39493008D01*
X102294871Y-39231751D02*
X101946528Y-39580094D01*
X103136700Y-39231751D02*
X103194757Y-39231751D01*
X103252814Y-39260780D01*
X103281842Y-39289808D01*
X103310871Y-39347865D01*
X103339900Y-39463980D01*
X103339900Y-39609122D01*
X103310871Y-39725237D01*
X103281842Y-39783294D01*
X103252814Y-39812322D01*
X103194757Y-39841351D01*
X103136700Y-39841351D01*
X103078642Y-39812322D01*
X103049614Y-39783294D01*
X103020585Y-39725237D01*
X102991557Y-39609122D01*
X102991557Y-39463980D01*
X103020585Y-39347865D01*
X103049614Y-39289808D01*
X103078642Y-39260780D01*
X103136700Y-39231751D01*
X103862414Y-39434951D02*
X103862414Y-39841351D01*
X103717271Y-39202722D02*
X103572128Y-39638151D01*
X103949500Y-39638151D01*
X104297842Y-39231751D02*
X104355900Y-39231751D01*
X104413957Y-39260780D01*
X104442985Y-39289808D01*
X104472014Y-39347865D01*
X104501042Y-39463980D01*
X104501042Y-39609122D01*
X104472014Y-39725237D01*
X104442985Y-39783294D01*
X104413957Y-39812322D01*
X104355900Y-39841351D01*
X104297842Y-39841351D01*
X104239785Y-39812322D01*
X104210757Y-39783294D01*
X104181728Y-39725237D01*
X104152700Y-39609122D01*
X104152700Y-39463980D01*
X104181728Y-39347865D01*
X104210757Y-39289808D01*
X104239785Y-39260780D01*
X104297842Y-39231751D01*
X104733271Y-39289808D02*
X104762300Y-39260780D01*
X104820357Y-39231751D01*
X104965500Y-39231751D01*
X105023557Y-39260780D01*
X105052585Y-39289808D01*
X105081614Y-39347865D01*
X105081614Y-39405922D01*
X105052585Y-39493008D01*
X104704242Y-39841351D01*
X105081614Y-39841351D01*
%TO.C,R2*%
X81301771Y-68427600D02*
X81011485Y-68630800D01*
X81301771Y-68775942D02*
X80692171Y-68775942D01*
X80692171Y-68543714D01*
X80721200Y-68485657D01*
X80750228Y-68456628D01*
X80808285Y-68427600D01*
X80895371Y-68427600D01*
X80953428Y-68456628D01*
X80982457Y-68485657D01*
X81011485Y-68543714D01*
X81011485Y-68775942D01*
X80750228Y-68195371D02*
X80721200Y-68166342D01*
X80692171Y-68108285D01*
X80692171Y-67963142D01*
X80721200Y-67905085D01*
X80750228Y-67876057D01*
X80808285Y-67847028D01*
X80866342Y-67847028D01*
X80953428Y-67876057D01*
X81301771Y-68224400D01*
X81301771Y-67847028D01*
X81593871Y-69167465D02*
X81593871Y-69109408D01*
X81622900Y-69051351D01*
X81651928Y-69022322D01*
X81709985Y-68993294D01*
X81826100Y-68964265D01*
X81971242Y-68964265D01*
X82087357Y-68993294D01*
X82145414Y-69022322D01*
X82174442Y-69051351D01*
X82203471Y-69109408D01*
X82203471Y-69167465D01*
X82174442Y-69225522D01*
X82145414Y-69254551D01*
X82087357Y-69283580D01*
X81971242Y-69312608D01*
X81826100Y-69312608D01*
X81709985Y-69283580D01*
X81651928Y-69254551D01*
X81622900Y-69225522D01*
X81593871Y-69167465D01*
X81797071Y-68441751D02*
X82203471Y-68441751D01*
X81564842Y-68586894D02*
X82000271Y-68732037D01*
X82000271Y-68354665D01*
X81593871Y-68006322D02*
X81593871Y-67948265D01*
X81622900Y-67890208D01*
X81651928Y-67861180D01*
X81709985Y-67832151D01*
X81826100Y-67803122D01*
X81971242Y-67803122D01*
X82087357Y-67832151D01*
X82145414Y-67861180D01*
X82174442Y-67890208D01*
X82203471Y-67948265D01*
X82203471Y-68006322D01*
X82174442Y-68064380D01*
X82145414Y-68093408D01*
X82087357Y-68122437D01*
X81971242Y-68151465D01*
X81826100Y-68151465D01*
X81709985Y-68122437D01*
X81651928Y-68093408D01*
X81622900Y-68064380D01*
X81593871Y-68006322D01*
X81651928Y-67570894D02*
X81622900Y-67541865D01*
X81593871Y-67483808D01*
X81593871Y-67338665D01*
X81622900Y-67280608D01*
X81651928Y-67251580D01*
X81709985Y-67222551D01*
X81768042Y-67222551D01*
X81855128Y-67251580D01*
X82203471Y-67599922D01*
X82203471Y-67222551D01*
D10*
%TO.C,U2*%
X86066380Y-76395484D02*
X86875904Y-76395484D01*
X86971142Y-76347865D01*
X87018761Y-76300246D01*
X87066380Y-76205008D01*
X87066380Y-76014532D01*
X87018761Y-75919294D01*
X86971142Y-75871675D01*
X86875904Y-75824056D01*
X86066380Y-75824056D01*
X86161619Y-75395484D02*
X86114000Y-75347865D01*
X86066380Y-75252627D01*
X86066380Y-75014532D01*
X86114000Y-74919294D01*
X86161619Y-74871675D01*
X86256857Y-74824056D01*
X86352095Y-74824056D01*
X86494952Y-74871675D01*
X87066380Y-75443103D01*
X87066380Y-74824056D01*
D12*
%TO.C,R6*%
X112420400Y-38375771D02*
X112217200Y-38085485D01*
X112072057Y-38375771D02*
X112072057Y-37766171D01*
X112304285Y-37766171D01*
X112362342Y-37795200D01*
X112391371Y-37824228D01*
X112420400Y-37882285D01*
X112420400Y-37969371D01*
X112391371Y-38027428D01*
X112362342Y-38056457D01*
X112304285Y-38085485D01*
X112072057Y-38085485D01*
X112942914Y-37766171D02*
X112826800Y-37766171D01*
X112768742Y-37795200D01*
X112739714Y-37824228D01*
X112681657Y-37911314D01*
X112652628Y-38027428D01*
X112652628Y-38259657D01*
X112681657Y-38317714D01*
X112710685Y-38346742D01*
X112768742Y-38375771D01*
X112884857Y-38375771D01*
X112942914Y-38346742D01*
X112971942Y-38317714D01*
X113000971Y-38259657D01*
X113000971Y-38114514D01*
X112971942Y-38056457D01*
X112942914Y-38027428D01*
X112884857Y-37998400D01*
X112768742Y-37998400D01*
X112710685Y-38027428D01*
X112681657Y-38056457D01*
X112652628Y-38114514D01*
X111629371Y-39180951D02*
X111629371Y-39587351D01*
X111484228Y-38948722D02*
X111339085Y-39384151D01*
X111716457Y-39384151D01*
X111890628Y-38977751D02*
X112297028Y-38977751D01*
X112035771Y-39587351D01*
X112645371Y-38977751D02*
X112703428Y-38977751D01*
X112761485Y-39006780D01*
X112790514Y-39035808D01*
X112819542Y-39093865D01*
X112848571Y-39209980D01*
X112848571Y-39355122D01*
X112819542Y-39471237D01*
X112790514Y-39529294D01*
X112761485Y-39558322D01*
X112703428Y-39587351D01*
X112645371Y-39587351D01*
X112587314Y-39558322D01*
X112558285Y-39529294D01*
X112529257Y-39471237D01*
X112500228Y-39355122D01*
X112500228Y-39209980D01*
X112529257Y-39093865D01*
X112558285Y-39035808D01*
X112587314Y-39006780D01*
X112645371Y-38977751D01*
X113458171Y-39587351D02*
X113254971Y-39297065D01*
X113109828Y-39587351D02*
X113109828Y-38977751D01*
X113342057Y-38977751D01*
X113400114Y-39006780D01*
X113429142Y-39035808D01*
X113458171Y-39093865D01*
X113458171Y-39180951D01*
X113429142Y-39239008D01*
X113400114Y-39268037D01*
X113342057Y-39297065D01*
X113109828Y-39297065D01*
X114300000Y-38977751D02*
X114358057Y-38977751D01*
X114416114Y-39006780D01*
X114445142Y-39035808D01*
X114474171Y-39093865D01*
X114503200Y-39209980D01*
X114503200Y-39355122D01*
X114474171Y-39471237D01*
X114445142Y-39529294D01*
X114416114Y-39558322D01*
X114358057Y-39587351D01*
X114300000Y-39587351D01*
X114241942Y-39558322D01*
X114212914Y-39529294D01*
X114183885Y-39471237D01*
X114154857Y-39355122D01*
X114154857Y-39209980D01*
X114183885Y-39093865D01*
X114212914Y-39035808D01*
X114241942Y-39006780D01*
X114300000Y-38977751D01*
X115025714Y-39180951D02*
X115025714Y-39587351D01*
X114880571Y-38948722D02*
X114735428Y-39384151D01*
X115112800Y-39384151D01*
X115461142Y-38977751D02*
X115519200Y-38977751D01*
X115577257Y-39006780D01*
X115606285Y-39035808D01*
X115635314Y-39093865D01*
X115664342Y-39209980D01*
X115664342Y-39355122D01*
X115635314Y-39471237D01*
X115606285Y-39529294D01*
X115577257Y-39558322D01*
X115519200Y-39587351D01*
X115461142Y-39587351D01*
X115403085Y-39558322D01*
X115374057Y-39529294D01*
X115345028Y-39471237D01*
X115316000Y-39355122D01*
X115316000Y-39209980D01*
X115345028Y-39093865D01*
X115374057Y-39035808D01*
X115403085Y-39006780D01*
X115461142Y-38977751D01*
X115896571Y-39035808D02*
X115925600Y-39006780D01*
X115983657Y-38977751D01*
X116128800Y-38977751D01*
X116186857Y-39006780D01*
X116215885Y-39035808D01*
X116244914Y-39093865D01*
X116244914Y-39151922D01*
X116215885Y-39239008D01*
X115867542Y-39587351D01*
X116244914Y-39587351D01*
%TO.C,R14*%
X102269471Y-87201465D02*
X101979185Y-87404665D01*
X102269471Y-87549808D02*
X101659871Y-87549808D01*
X101659871Y-87317580D01*
X101688900Y-87259522D01*
X101717928Y-87230494D01*
X101775985Y-87201465D01*
X101863071Y-87201465D01*
X101921128Y-87230494D01*
X101950157Y-87259522D01*
X101979185Y-87317580D01*
X101979185Y-87549808D01*
X102269471Y-86620894D02*
X102269471Y-86969237D01*
X102269471Y-86795065D02*
X101659871Y-86795065D01*
X101746957Y-86853122D01*
X101805014Y-86911180D01*
X101834042Y-86969237D01*
X101863071Y-86098380D02*
X102269471Y-86098380D01*
X101630842Y-86243522D02*
X102066271Y-86388665D01*
X102066271Y-86011294D01*
X99183371Y-87978342D02*
X99589771Y-87978342D01*
X98951142Y-88123485D02*
X99386571Y-88268628D01*
X99386571Y-87891257D01*
X98980171Y-87717085D02*
X98980171Y-87310685D01*
X99589771Y-87571942D01*
X99589771Y-87078457D02*
X98980171Y-87078457D01*
X99589771Y-86730114D02*
X99241428Y-86991371D01*
X98980171Y-86730114D02*
X99328514Y-87078457D01*
X98980171Y-85888285D02*
X98980171Y-85830228D01*
X99009200Y-85772171D01*
X99038228Y-85743142D01*
X99096285Y-85714114D01*
X99212400Y-85685085D01*
X99357542Y-85685085D01*
X99473657Y-85714114D01*
X99531714Y-85743142D01*
X99560742Y-85772171D01*
X99589771Y-85830228D01*
X99589771Y-85888285D01*
X99560742Y-85946342D01*
X99531714Y-85975371D01*
X99473657Y-86004400D01*
X99357542Y-86033428D01*
X99212400Y-86033428D01*
X99096285Y-86004400D01*
X99038228Y-85975371D01*
X99009200Y-85946342D01*
X98980171Y-85888285D01*
X98980171Y-85162571D02*
X98980171Y-85278685D01*
X99009200Y-85336742D01*
X99038228Y-85365771D01*
X99125314Y-85423828D01*
X99241428Y-85452857D01*
X99473657Y-85452857D01*
X99531714Y-85423828D01*
X99560742Y-85394800D01*
X99589771Y-85336742D01*
X99589771Y-85220628D01*
X99560742Y-85162571D01*
X99531714Y-85133542D01*
X99473657Y-85104514D01*
X99328514Y-85104514D01*
X99270457Y-85133542D01*
X99241428Y-85162571D01*
X99212400Y-85220628D01*
X99212400Y-85336742D01*
X99241428Y-85394800D01*
X99270457Y-85423828D01*
X99328514Y-85452857D01*
X98980171Y-84727142D02*
X98980171Y-84669085D01*
X99009200Y-84611028D01*
X99038228Y-84582000D01*
X99096285Y-84552971D01*
X99212400Y-84523942D01*
X99357542Y-84523942D01*
X99473657Y-84552971D01*
X99531714Y-84582000D01*
X99560742Y-84611028D01*
X99589771Y-84669085D01*
X99589771Y-84727142D01*
X99560742Y-84785200D01*
X99531714Y-84814228D01*
X99473657Y-84843257D01*
X99357542Y-84872285D01*
X99212400Y-84872285D01*
X99096285Y-84843257D01*
X99038228Y-84814228D01*
X99009200Y-84785200D01*
X98980171Y-84727142D01*
X98980171Y-84320742D02*
X98980171Y-83943371D01*
X99212400Y-84146571D01*
X99212400Y-84059485D01*
X99241428Y-84001428D01*
X99270457Y-83972400D01*
X99328514Y-83943371D01*
X99473657Y-83943371D01*
X99531714Y-83972400D01*
X99560742Y-84001428D01*
X99589771Y-84059485D01*
X99589771Y-84233657D01*
X99560742Y-84291714D01*
X99531714Y-84320742D01*
%TO.C,C11*%
X95721714Y-65669885D02*
X95750742Y-65698914D01*
X95779771Y-65786000D01*
X95779771Y-65844057D01*
X95750742Y-65931142D01*
X95692685Y-65989200D01*
X95634628Y-66018228D01*
X95518514Y-66047257D01*
X95431428Y-66047257D01*
X95315314Y-66018228D01*
X95257257Y-65989200D01*
X95199200Y-65931142D01*
X95170171Y-65844057D01*
X95170171Y-65786000D01*
X95199200Y-65698914D01*
X95228228Y-65669885D01*
X95779771Y-65089314D02*
X95779771Y-65437657D01*
X95779771Y-65263485D02*
X95170171Y-65263485D01*
X95257257Y-65321542D01*
X95315314Y-65379600D01*
X95344342Y-65437657D01*
X95779771Y-64508742D02*
X95779771Y-64857085D01*
X95779771Y-64682914D02*
X95170171Y-64682914D01*
X95257257Y-64740971D01*
X95315314Y-64799028D01*
X95344342Y-64857085D01*
X97049771Y-65727942D02*
X97049771Y-66076285D01*
X97049771Y-65902114D02*
X96440171Y-65902114D01*
X96527257Y-65960171D01*
X96585314Y-66018228D01*
X96614342Y-66076285D01*
X96991714Y-65466685D02*
X97020742Y-65437657D01*
X97049771Y-65466685D01*
X97020742Y-65495714D01*
X96991714Y-65466685D01*
X97049771Y-65466685D01*
X96440171Y-65060285D02*
X96440171Y-65002228D01*
X96469200Y-64944171D01*
X96498228Y-64915142D01*
X96556285Y-64886114D01*
X96672400Y-64857085D01*
X96817542Y-64857085D01*
X96933657Y-64886114D01*
X96991714Y-64915142D01*
X97020742Y-64944171D01*
X97049771Y-65002228D01*
X97049771Y-65060285D01*
X97020742Y-65118342D01*
X96991714Y-65147371D01*
X96933657Y-65176400D01*
X96817542Y-65205428D01*
X96672400Y-65205428D01*
X96556285Y-65176400D01*
X96498228Y-65147371D01*
X96469200Y-65118342D01*
X96440171Y-65060285D01*
X96440171Y-64595828D02*
X96933657Y-64595828D01*
X96991714Y-64566800D01*
X97020742Y-64537771D01*
X97049771Y-64479714D01*
X97049771Y-64363600D01*
X97020742Y-64305542D01*
X96991714Y-64276514D01*
X96933657Y-64247485D01*
X96440171Y-64247485D01*
X96440171Y-63376628D02*
X96440171Y-63318571D01*
X96469200Y-63260514D01*
X96498228Y-63231485D01*
X96556285Y-63202457D01*
X96672400Y-63173428D01*
X96817542Y-63173428D01*
X96933657Y-63202457D01*
X96991714Y-63231485D01*
X97020742Y-63260514D01*
X97049771Y-63318571D01*
X97049771Y-63376628D01*
X97020742Y-63434685D01*
X96991714Y-63463714D01*
X96933657Y-63492742D01*
X96817542Y-63521771D01*
X96672400Y-63521771D01*
X96556285Y-63492742D01*
X96498228Y-63463714D01*
X96469200Y-63434685D01*
X96440171Y-63376628D01*
X96643371Y-62650914D02*
X97049771Y-62650914D01*
X96411142Y-62796057D02*
X96846571Y-62941200D01*
X96846571Y-62563828D01*
X96440171Y-62215485D02*
X96440171Y-62157428D01*
X96469200Y-62099371D01*
X96498228Y-62070342D01*
X96556285Y-62041314D01*
X96672400Y-62012285D01*
X96817542Y-62012285D01*
X96933657Y-62041314D01*
X96991714Y-62070342D01*
X97020742Y-62099371D01*
X97049771Y-62157428D01*
X97049771Y-62215485D01*
X97020742Y-62273542D01*
X96991714Y-62302571D01*
X96933657Y-62331600D01*
X96817542Y-62360628D01*
X96672400Y-62360628D01*
X96556285Y-62331600D01*
X96498228Y-62302571D01*
X96469200Y-62273542D01*
X96440171Y-62215485D01*
X96498228Y-61780057D02*
X96469200Y-61751028D01*
X96440171Y-61692971D01*
X96440171Y-61547828D01*
X96469200Y-61489771D01*
X96498228Y-61460742D01*
X96556285Y-61431714D01*
X96614342Y-61431714D01*
X96701428Y-61460742D01*
X97049771Y-61809085D01*
X97049771Y-61431714D01*
D10*
%TO.C,U4*%
X92113176Y-56965904D02*
X92113176Y-57613523D01*
X92151271Y-57689714D01*
X92189366Y-57727809D01*
X92265557Y-57765904D01*
X92417938Y-57765904D01*
X92494128Y-57727809D01*
X92532223Y-57689714D01*
X92570319Y-57613523D01*
X92570319Y-56965904D01*
X93294128Y-57232571D02*
X93294128Y-57765904D01*
X93103652Y-56927809D02*
X92913176Y-57499238D01*
X93408414Y-57499238D01*
D12*
%TO.C,C1*%
X85307714Y-64109600D02*
X85336742Y-64138628D01*
X85365771Y-64225714D01*
X85365771Y-64283771D01*
X85336742Y-64370857D01*
X85278685Y-64428914D01*
X85220628Y-64457942D01*
X85104514Y-64486971D01*
X85017428Y-64486971D01*
X84901314Y-64457942D01*
X84843257Y-64428914D01*
X84785200Y-64370857D01*
X84756171Y-64283771D01*
X84756171Y-64225714D01*
X84785200Y-64138628D01*
X84814228Y-64109600D01*
X85365771Y-63529028D02*
X85365771Y-63877371D01*
X85365771Y-63703200D02*
X84756171Y-63703200D01*
X84843257Y-63761257D01*
X84901314Y-63819314D01*
X84930342Y-63877371D01*
X83486171Y-66693142D02*
X83486171Y-66635085D01*
X83515200Y-66577028D01*
X83544228Y-66548000D01*
X83602285Y-66518971D01*
X83718400Y-66489942D01*
X83863542Y-66489942D01*
X83979657Y-66518971D01*
X84037714Y-66548000D01*
X84066742Y-66577028D01*
X84095771Y-66635085D01*
X84095771Y-66693142D01*
X84066742Y-66751200D01*
X84037714Y-66780228D01*
X83979657Y-66809257D01*
X83863542Y-66838285D01*
X83718400Y-66838285D01*
X83602285Y-66809257D01*
X83544228Y-66780228D01*
X83515200Y-66751200D01*
X83486171Y-66693142D01*
X84037714Y-66228685D02*
X84066742Y-66199657D01*
X84095771Y-66228685D01*
X84066742Y-66257714D01*
X84037714Y-66228685D01*
X84095771Y-66228685D01*
X84095771Y-65619085D02*
X84095771Y-65967428D01*
X84095771Y-65793257D02*
X83486171Y-65793257D01*
X83573257Y-65851314D01*
X83631314Y-65909371D01*
X83660342Y-65967428D01*
X83486171Y-65357828D02*
X83979657Y-65357828D01*
X84037714Y-65328800D01*
X84066742Y-65299771D01*
X84095771Y-65241714D01*
X84095771Y-65125600D01*
X84066742Y-65067542D01*
X84037714Y-65038514D01*
X83979657Y-65009485D01*
X83486171Y-65009485D01*
X83486171Y-64138628D02*
X83486171Y-64080571D01*
X83515200Y-64022514D01*
X83544228Y-63993485D01*
X83602285Y-63964457D01*
X83718400Y-63935428D01*
X83863542Y-63935428D01*
X83979657Y-63964457D01*
X84037714Y-63993485D01*
X84066742Y-64022514D01*
X84095771Y-64080571D01*
X84095771Y-64138628D01*
X84066742Y-64196685D01*
X84037714Y-64225714D01*
X83979657Y-64254742D01*
X83863542Y-64283771D01*
X83718400Y-64283771D01*
X83602285Y-64254742D01*
X83544228Y-64225714D01*
X83515200Y-64196685D01*
X83486171Y-64138628D01*
X83689371Y-63412914D02*
X84095771Y-63412914D01*
X83457142Y-63558057D02*
X83892571Y-63703200D01*
X83892571Y-63325828D01*
X83486171Y-62977485D02*
X83486171Y-62919428D01*
X83515200Y-62861371D01*
X83544228Y-62832342D01*
X83602285Y-62803314D01*
X83718400Y-62774285D01*
X83863542Y-62774285D01*
X83979657Y-62803314D01*
X84037714Y-62832342D01*
X84066742Y-62861371D01*
X84095771Y-62919428D01*
X84095771Y-62977485D01*
X84066742Y-63035542D01*
X84037714Y-63064571D01*
X83979657Y-63093600D01*
X83863542Y-63122628D01*
X83718400Y-63122628D01*
X83602285Y-63093600D01*
X83544228Y-63064571D01*
X83515200Y-63035542D01*
X83486171Y-62977485D01*
X83544228Y-62542057D02*
X83515200Y-62513028D01*
X83486171Y-62454971D01*
X83486171Y-62309828D01*
X83515200Y-62251771D01*
X83544228Y-62222742D01*
X83602285Y-62193714D01*
X83660342Y-62193714D01*
X83747428Y-62222742D01*
X84095771Y-62571085D01*
X84095771Y-62193714D01*
%TO.C,C7*%
X105119714Y-60045600D02*
X105148742Y-60074628D01*
X105177771Y-60161714D01*
X105177771Y-60219771D01*
X105148742Y-60306857D01*
X105090685Y-60364914D01*
X105032628Y-60393942D01*
X104916514Y-60422971D01*
X104829428Y-60422971D01*
X104713314Y-60393942D01*
X104655257Y-60364914D01*
X104597200Y-60306857D01*
X104568171Y-60219771D01*
X104568171Y-60161714D01*
X104597200Y-60074628D01*
X104626228Y-60045600D01*
X104568171Y-59842400D02*
X104568171Y-59436000D01*
X105177771Y-59697257D01*
X106333471Y-63296800D02*
X106333471Y-63645142D01*
X106333471Y-63470971D02*
X105723871Y-63470971D01*
X105810957Y-63529028D01*
X105869014Y-63587085D01*
X105898042Y-63645142D01*
X105723871Y-62919428D02*
X105723871Y-62861371D01*
X105752900Y-62803314D01*
X105781928Y-62774285D01*
X105839985Y-62745257D01*
X105956100Y-62716228D01*
X106101242Y-62716228D01*
X106217357Y-62745257D01*
X106275414Y-62774285D01*
X106304442Y-62803314D01*
X106333471Y-62861371D01*
X106333471Y-62919428D01*
X106304442Y-62977485D01*
X106275414Y-63006514D01*
X106217357Y-63035542D01*
X106101242Y-63064571D01*
X105956100Y-63064571D01*
X105839985Y-63035542D01*
X105781928Y-63006514D01*
X105752900Y-62977485D01*
X105723871Y-62919428D01*
X105723871Y-62454971D02*
X106217357Y-62454971D01*
X106275414Y-62425942D01*
X106304442Y-62396914D01*
X106333471Y-62338857D01*
X106333471Y-62222742D01*
X106304442Y-62164685D01*
X106275414Y-62135657D01*
X106217357Y-62106628D01*
X105723871Y-62106628D01*
X105723871Y-61235771D02*
X105723871Y-61177714D01*
X105752900Y-61119657D01*
X105781928Y-61090628D01*
X105839985Y-61061600D01*
X105956100Y-61032571D01*
X106101242Y-61032571D01*
X106217357Y-61061600D01*
X106275414Y-61090628D01*
X106304442Y-61119657D01*
X106333471Y-61177714D01*
X106333471Y-61235771D01*
X106304442Y-61293828D01*
X106275414Y-61322857D01*
X106217357Y-61351885D01*
X106101242Y-61380914D01*
X105956100Y-61380914D01*
X105839985Y-61351885D01*
X105781928Y-61322857D01*
X105752900Y-61293828D01*
X105723871Y-61235771D01*
X105985128Y-60684228D02*
X105956100Y-60742285D01*
X105927071Y-60771314D01*
X105869014Y-60800342D01*
X105839985Y-60800342D01*
X105781928Y-60771314D01*
X105752900Y-60742285D01*
X105723871Y-60684228D01*
X105723871Y-60568114D01*
X105752900Y-60510057D01*
X105781928Y-60481028D01*
X105839985Y-60452000D01*
X105869014Y-60452000D01*
X105927071Y-60481028D01*
X105956100Y-60510057D01*
X105985128Y-60568114D01*
X105985128Y-60684228D01*
X106014157Y-60742285D01*
X106043185Y-60771314D01*
X106101242Y-60800342D01*
X106217357Y-60800342D01*
X106275414Y-60771314D01*
X106304442Y-60742285D01*
X106333471Y-60684228D01*
X106333471Y-60568114D01*
X106304442Y-60510057D01*
X106275414Y-60481028D01*
X106217357Y-60452000D01*
X106101242Y-60452000D01*
X106043185Y-60481028D01*
X106014157Y-60510057D01*
X105985128Y-60568114D01*
X105723871Y-60074628D02*
X105723871Y-60016571D01*
X105752900Y-59958514D01*
X105781928Y-59929485D01*
X105839985Y-59900457D01*
X105956100Y-59871428D01*
X106101242Y-59871428D01*
X106217357Y-59900457D01*
X106275414Y-59929485D01*
X106304442Y-59958514D01*
X106333471Y-60016571D01*
X106333471Y-60074628D01*
X106304442Y-60132685D01*
X106275414Y-60161714D01*
X106217357Y-60190742D01*
X106101242Y-60219771D01*
X105956100Y-60219771D01*
X105839985Y-60190742D01*
X105781928Y-60161714D01*
X105752900Y-60132685D01*
X105723871Y-60074628D01*
X105723871Y-59319885D02*
X105723871Y-59610171D01*
X106014157Y-59639200D01*
X105985128Y-59610171D01*
X105956100Y-59552114D01*
X105956100Y-59406971D01*
X105985128Y-59348914D01*
X106014157Y-59319885D01*
X106072214Y-59290857D01*
X106217357Y-59290857D01*
X106275414Y-59319885D01*
X106304442Y-59348914D01*
X106333471Y-59406971D01*
X106333471Y-59552114D01*
X106304442Y-59610171D01*
X106275414Y-59639200D01*
D10*
%TO.C,U3*%
X106680095Y-72604380D02*
X106680095Y-73413904D01*
X106727714Y-73509142D01*
X106775333Y-73556761D01*
X106870571Y-73604380D01*
X107061047Y-73604380D01*
X107156285Y-73556761D01*
X107203904Y-73509142D01*
X107251523Y-73413904D01*
X107251523Y-72604380D01*
X107632476Y-72604380D02*
X108251523Y-72604380D01*
X107918190Y-72985333D01*
X108061047Y-72985333D01*
X108156285Y-73032952D01*
X108203904Y-73080571D01*
X108251523Y-73175809D01*
X108251523Y-73413904D01*
X108203904Y-73509142D01*
X108156285Y-73556761D01*
X108061047Y-73604380D01*
X107775333Y-73604380D01*
X107680095Y-73556761D01*
X107632476Y-73509142D01*
%TO.C,J7*%
X109280366Y-80546960D02*
X109280366Y-81261246D01*
X109232747Y-81404103D01*
X109137509Y-81499341D01*
X108994652Y-81546960D01*
X108899414Y-81546960D01*
X109661319Y-80546960D02*
X110327985Y-80546960D01*
X109899414Y-81546960D01*
X105089890Y-81816960D02*
X105089890Y-82626484D01*
X105137509Y-82721722D01*
X105185128Y-82769341D01*
X105280366Y-82816960D01*
X105470842Y-82816960D01*
X105566080Y-82769341D01*
X105613700Y-82721722D01*
X105661319Y-82626484D01*
X105661319Y-81816960D01*
X106089890Y-82769341D02*
X106232747Y-82816960D01*
X106470842Y-82816960D01*
X106566080Y-82769341D01*
X106613700Y-82721722D01*
X106661319Y-82626484D01*
X106661319Y-82531246D01*
X106613700Y-82436008D01*
X106566080Y-82388389D01*
X106470842Y-82340770D01*
X106280366Y-82293151D01*
X106185128Y-82245532D01*
X106137509Y-82197913D01*
X106089890Y-82102675D01*
X106089890Y-82007437D01*
X106137509Y-81912199D01*
X106185128Y-81864580D01*
X106280366Y-81816960D01*
X106518461Y-81816960D01*
X106661319Y-81864580D01*
X107423223Y-82293151D02*
X107566080Y-82340770D01*
X107613700Y-82388389D01*
X107661319Y-82483627D01*
X107661319Y-82626484D01*
X107613700Y-82721722D01*
X107566080Y-82769341D01*
X107470842Y-82816960D01*
X107089890Y-82816960D01*
X107089890Y-81816960D01*
X107423223Y-81816960D01*
X107518461Y-81864580D01*
X107566080Y-81912199D01*
X107613700Y-82007437D01*
X107613700Y-82102675D01*
X107566080Y-82197913D01*
X107518461Y-82245532D01*
X107423223Y-82293151D01*
X107089890Y-82293151D01*
X107851795Y-82912199D02*
X108613700Y-82912199D01*
X109185128Y-82293151D02*
X109327985Y-82340770D01*
X109375604Y-82388389D01*
X109423223Y-82483627D01*
X109423223Y-82626484D01*
X109375604Y-82721722D01*
X109327985Y-82769341D01*
X109232747Y-82816960D01*
X108851795Y-82816960D01*
X108851795Y-81816960D01*
X109185128Y-81816960D01*
X109280366Y-81864580D01*
X109327985Y-81912199D01*
X109375604Y-82007437D01*
X109375604Y-82102675D01*
X109327985Y-82197913D01*
X109280366Y-82245532D01*
X109185128Y-82293151D01*
X108851795Y-82293151D01*
X109613700Y-82912199D02*
X110375604Y-82912199D01*
X110613700Y-82816960D02*
X110613700Y-81816960D01*
X110947033Y-82531246D01*
X111280366Y-81816960D01*
X111280366Y-82816960D01*
X111756557Y-82816960D02*
X111756557Y-82150294D01*
X111756557Y-81816960D02*
X111708938Y-81864580D01*
X111756557Y-81912199D01*
X111804176Y-81864580D01*
X111756557Y-81816960D01*
X111756557Y-81912199D01*
X112661319Y-82769341D02*
X112566080Y-82816960D01*
X112375604Y-82816960D01*
X112280366Y-82769341D01*
X112232747Y-82721722D01*
X112185128Y-82626484D01*
X112185128Y-82340770D01*
X112232747Y-82245532D01*
X112280366Y-82197913D01*
X112375604Y-82150294D01*
X112566080Y-82150294D01*
X112661319Y-82197913D01*
X113089890Y-82816960D02*
X113089890Y-82150294D01*
X113089890Y-82340770D02*
X113137509Y-82245532D01*
X113185128Y-82197913D01*
X113280366Y-82150294D01*
X113375604Y-82150294D01*
X113851795Y-82816960D02*
X113756557Y-82769341D01*
X113708938Y-82721722D01*
X113661319Y-82626484D01*
X113661319Y-82340770D01*
X113708938Y-82245532D01*
X113756557Y-82197913D01*
X113851795Y-82150294D01*
X113994652Y-82150294D01*
X114089890Y-82197913D01*
X114137509Y-82245532D01*
X114185128Y-82340770D01*
X114185128Y-82626484D01*
X114137509Y-82721722D01*
X114089890Y-82769341D01*
X113994652Y-82816960D01*
X113851795Y-82816960D01*
X114693700Y-81562960D02*
X114693700Y-81801056D01*
X114455604Y-81705818D02*
X114693700Y-81801056D01*
X114931795Y-81705818D01*
X114550842Y-81991532D02*
X114693700Y-81801056D01*
X114836557Y-81991532D01*
D12*
%TO.C,C13*%
X81154814Y-61881294D02*
X81125785Y-61910322D01*
X81038700Y-61939351D01*
X80980642Y-61939351D01*
X80893557Y-61910322D01*
X80835500Y-61852265D01*
X80806471Y-61794208D01*
X80777442Y-61678094D01*
X80777442Y-61591008D01*
X80806471Y-61474894D01*
X80835500Y-61416837D01*
X80893557Y-61358780D01*
X80980642Y-61329751D01*
X81038700Y-61329751D01*
X81125785Y-61358780D01*
X81154814Y-61387808D01*
X81735385Y-61939351D02*
X81387042Y-61939351D01*
X81561214Y-61939351D02*
X81561214Y-61329751D01*
X81503157Y-61416837D01*
X81445100Y-61474894D01*
X81387042Y-61503922D01*
X81938585Y-61329751D02*
X82315957Y-61329751D01*
X82112757Y-61561980D01*
X82199842Y-61561980D01*
X82257900Y-61591008D01*
X82286928Y-61620037D01*
X82315957Y-61678094D01*
X82315957Y-61823237D01*
X82286928Y-61881294D01*
X82257900Y-61910322D01*
X82199842Y-61939351D01*
X82025671Y-61939351D01*
X81967614Y-61910322D01*
X81938585Y-61881294D01*
X79514700Y-58992951D02*
X79514700Y-59399351D01*
X79369557Y-58760722D02*
X79224414Y-59196151D01*
X79601785Y-59196151D01*
X79834014Y-59341294D02*
X79863042Y-59370322D01*
X79834014Y-59399351D01*
X79804985Y-59370322D01*
X79834014Y-59341294D01*
X79834014Y-59399351D01*
X80066242Y-58789751D02*
X80472642Y-58789751D01*
X80211385Y-59399351D01*
X80704871Y-58789751D02*
X80704871Y-59283237D01*
X80733900Y-59341294D01*
X80762928Y-59370322D01*
X80820985Y-59399351D01*
X80937100Y-59399351D01*
X80995157Y-59370322D01*
X81024185Y-59341294D01*
X81053214Y-59283237D01*
X81053214Y-58789751D01*
X82127271Y-59399351D02*
X81778928Y-59399351D01*
X81953100Y-59399351D02*
X81953100Y-58789751D01*
X81895042Y-58876837D01*
X81836985Y-58934894D01*
X81778928Y-58963922D01*
X82359500Y-58847808D02*
X82388528Y-58818780D01*
X82446585Y-58789751D01*
X82591728Y-58789751D01*
X82649785Y-58818780D01*
X82678814Y-58847808D01*
X82707842Y-58905865D01*
X82707842Y-58963922D01*
X82678814Y-59051008D01*
X82330471Y-59399351D01*
X82707842Y-59399351D01*
X83085214Y-58789751D02*
X83143271Y-58789751D01*
X83201328Y-58818780D01*
X83230357Y-58847808D01*
X83259385Y-58905865D01*
X83288414Y-59021980D01*
X83288414Y-59167122D01*
X83259385Y-59283237D01*
X83230357Y-59341294D01*
X83201328Y-59370322D01*
X83143271Y-59399351D01*
X83085214Y-59399351D01*
X83027157Y-59370322D01*
X82998128Y-59341294D01*
X82969100Y-59283237D01*
X82940071Y-59167122D01*
X82940071Y-59021980D01*
X82969100Y-58905865D01*
X82998128Y-58847808D01*
X83027157Y-58818780D01*
X83085214Y-58789751D01*
X83810928Y-58789751D02*
X83694814Y-58789751D01*
X83636757Y-58818780D01*
X83607728Y-58847808D01*
X83549671Y-58934894D01*
X83520642Y-59051008D01*
X83520642Y-59283237D01*
X83549671Y-59341294D01*
X83578700Y-59370322D01*
X83636757Y-59399351D01*
X83752871Y-59399351D01*
X83810928Y-59370322D01*
X83839957Y-59341294D01*
X83868985Y-59283237D01*
X83868985Y-59138094D01*
X83839957Y-59080037D01*
X83810928Y-59051008D01*
X83752871Y-59021980D01*
X83636757Y-59021980D01*
X83578700Y-59051008D01*
X83549671Y-59080037D01*
X83520642Y-59138094D01*
%TO.C,R13*%
X56135814Y-77534951D02*
X55932614Y-77244665D01*
X55787471Y-77534951D02*
X55787471Y-76925351D01*
X56019700Y-76925351D01*
X56077757Y-76954380D01*
X56106785Y-76983408D01*
X56135814Y-77041465D01*
X56135814Y-77128551D01*
X56106785Y-77186608D01*
X56077757Y-77215637D01*
X56019700Y-77244665D01*
X55787471Y-77244665D01*
X56716385Y-77534951D02*
X56368042Y-77534951D01*
X56542214Y-77534951D02*
X56542214Y-76925351D01*
X56484157Y-77012437D01*
X56426100Y-77070494D01*
X56368042Y-77099522D01*
X56919585Y-76925351D02*
X57296957Y-76925351D01*
X57093757Y-77157580D01*
X57180842Y-77157580D01*
X57238900Y-77186608D01*
X57267928Y-77215637D01*
X57296957Y-77273694D01*
X57296957Y-77418837D01*
X57267928Y-77476894D01*
X57238900Y-77505922D01*
X57180842Y-77534951D01*
X57006671Y-77534951D01*
X56948614Y-77505922D01*
X56919585Y-77476894D01*
X54727928Y-75248951D02*
X54379585Y-75248951D01*
X54553757Y-75248951D02*
X54553757Y-74639351D01*
X54495700Y-74726437D01*
X54437642Y-74784494D01*
X54379585Y-74813522D01*
X55105300Y-74639351D02*
X55163357Y-74639351D01*
X55221414Y-74668380D01*
X55250442Y-74697408D01*
X55279471Y-74755465D01*
X55308500Y-74871580D01*
X55308500Y-75016722D01*
X55279471Y-75132837D01*
X55250442Y-75190894D01*
X55221414Y-75219922D01*
X55163357Y-75248951D01*
X55105300Y-75248951D01*
X55047242Y-75219922D01*
X55018214Y-75190894D01*
X54989185Y-75132837D01*
X54960157Y-75016722D01*
X54960157Y-74871580D01*
X54989185Y-74755465D01*
X55018214Y-74697408D01*
X55047242Y-74668380D01*
X55105300Y-74639351D01*
X55685871Y-74639351D02*
X55743928Y-74639351D01*
X55801985Y-74668380D01*
X55831014Y-74697408D01*
X55860042Y-74755465D01*
X55889071Y-74871580D01*
X55889071Y-75016722D01*
X55860042Y-75132837D01*
X55831014Y-75190894D01*
X55801985Y-75219922D01*
X55743928Y-75248951D01*
X55685871Y-75248951D01*
X55627814Y-75219922D01*
X55598785Y-75190894D01*
X55569757Y-75132837D01*
X55540728Y-75016722D01*
X55540728Y-74871580D01*
X55569757Y-74755465D01*
X55598785Y-74697408D01*
X55627814Y-74668380D01*
X55685871Y-74639351D01*
X56730900Y-74639351D02*
X56788957Y-74639351D01*
X56847014Y-74668380D01*
X56876042Y-74697408D01*
X56905071Y-74755465D01*
X56934100Y-74871580D01*
X56934100Y-75016722D01*
X56905071Y-75132837D01*
X56876042Y-75190894D01*
X56847014Y-75219922D01*
X56788957Y-75248951D01*
X56730900Y-75248951D01*
X56672842Y-75219922D01*
X56643814Y-75190894D01*
X56614785Y-75132837D01*
X56585757Y-75016722D01*
X56585757Y-74871580D01*
X56614785Y-74755465D01*
X56643814Y-74697408D01*
X56672842Y-74668380D01*
X56730900Y-74639351D01*
X57456614Y-74842551D02*
X57456614Y-75248951D01*
X57311471Y-74610322D02*
X57166328Y-75045751D01*
X57543700Y-75045751D01*
X57892042Y-74639351D02*
X57950100Y-74639351D01*
X58008157Y-74668380D01*
X58037185Y-74697408D01*
X58066214Y-74755465D01*
X58095242Y-74871580D01*
X58095242Y-75016722D01*
X58066214Y-75132837D01*
X58037185Y-75190894D01*
X58008157Y-75219922D01*
X57950100Y-75248951D01*
X57892042Y-75248951D01*
X57833985Y-75219922D01*
X57804957Y-75190894D01*
X57775928Y-75132837D01*
X57746900Y-75016722D01*
X57746900Y-74871580D01*
X57775928Y-74755465D01*
X57804957Y-74697408D01*
X57833985Y-74668380D01*
X57892042Y-74639351D01*
X58327471Y-74697408D02*
X58356500Y-74668380D01*
X58414557Y-74639351D01*
X58559700Y-74639351D01*
X58617757Y-74668380D01*
X58646785Y-74697408D01*
X58675814Y-74755465D01*
X58675814Y-74813522D01*
X58646785Y-74900608D01*
X58298442Y-75248951D01*
X58675814Y-75248951D01*
D10*
%TO.C,F1*%
X71101366Y-70772151D02*
X70768033Y-70772151D01*
X70768033Y-71295960D02*
X70768033Y-70295960D01*
X71244223Y-70295960D01*
X72148985Y-71295960D02*
X71577557Y-71295960D01*
X71863271Y-71295960D02*
X71863271Y-70295960D01*
X71768033Y-70438818D01*
X71672795Y-70534056D01*
X71577557Y-70581675D01*
D11*
%TO.C,C3*%
X78284307Y-76240196D02*
X78303055Y-76258944D01*
X78321802Y-76315187D01*
X78321802Y-76352682D01*
X78303055Y-76408925D01*
X78265559Y-76446421D01*
X78228064Y-76465168D01*
X78153073Y-76483916D01*
X78096830Y-76483916D01*
X78021840Y-76465168D01*
X77984344Y-76446421D01*
X77946849Y-76408925D01*
X77928101Y-76352682D01*
X77928101Y-76315187D01*
X77946849Y-76258944D01*
X77965597Y-76240196D01*
X77928101Y-76108963D02*
X77928101Y-75865243D01*
X78078083Y-75996477D01*
X78078083Y-75940234D01*
X78096830Y-75902738D01*
X78115578Y-75883991D01*
X78153073Y-75865243D01*
X78246812Y-75865243D01*
X78284307Y-75883991D01*
X78303055Y-75902738D01*
X78321802Y-75940234D01*
X78321802Y-76052720D01*
X78303055Y-76090215D01*
X78284307Y-76108963D01*
D10*
%TO.C,Q4*%
X128142079Y-39756818D02*
X128094460Y-39852056D01*
X127999221Y-39947294D01*
X127856364Y-40090151D01*
X127808745Y-40185389D01*
X127808745Y-40280627D01*
X128046840Y-40233008D02*
X127999221Y-40328246D01*
X127903983Y-40423484D01*
X127713507Y-40471103D01*
X127380174Y-40471103D01*
X127189698Y-40423484D01*
X127094460Y-40328246D01*
X127046840Y-40233008D01*
X127046840Y-40042532D01*
X127094460Y-39947294D01*
X127189698Y-39852056D01*
X127380174Y-39804437D01*
X127713507Y-39804437D01*
X127903983Y-39852056D01*
X127999221Y-39947294D01*
X128046840Y-40042532D01*
X128046840Y-40233008D01*
X127380174Y-38947294D02*
X128046840Y-38947294D01*
X126999221Y-39185389D02*
X127713507Y-39423484D01*
X127713507Y-38804437D01*
%TO.C,Q1*%
X81609461Y-74730959D02*
X81514223Y-74683340D01*
X81418985Y-74588101D01*
X81276128Y-74445244D01*
X81180890Y-74397625D01*
X81085652Y-74397625D01*
X81133271Y-74635720D02*
X81038033Y-74588101D01*
X80942795Y-74492863D01*
X80895176Y-74302387D01*
X80895176Y-73969054D01*
X80942795Y-73778578D01*
X81038033Y-73683340D01*
X81133271Y-73635720D01*
X81323747Y-73635720D01*
X81418985Y-73683340D01*
X81514223Y-73778578D01*
X81561842Y-73969054D01*
X81561842Y-74302387D01*
X81514223Y-74492863D01*
X81418985Y-74588101D01*
X81323747Y-74635720D01*
X81133271Y-74635720D01*
X82514223Y-74635720D02*
X81942795Y-74635720D01*
X82228509Y-74635720D02*
X82228509Y-73635720D01*
X82133271Y-73778578D01*
X82038033Y-73873816D01*
X81942795Y-73921435D01*
%TO.C,Q5*%
X118250461Y-82838439D02*
X118155223Y-82790820D01*
X118059985Y-82695581D01*
X117917128Y-82552724D01*
X117821890Y-82505105D01*
X117726652Y-82505105D01*
X117774271Y-82743200D02*
X117679033Y-82695581D01*
X117583795Y-82600343D01*
X117536176Y-82409867D01*
X117536176Y-82076534D01*
X117583795Y-81886058D01*
X117679033Y-81790820D01*
X117774271Y-81743200D01*
X117964747Y-81743200D01*
X118059985Y-81790820D01*
X118155223Y-81886058D01*
X118202842Y-82076534D01*
X118202842Y-82409867D01*
X118155223Y-82600343D01*
X118059985Y-82695581D01*
X117964747Y-82743200D01*
X117774271Y-82743200D01*
X119107604Y-81743200D02*
X118631414Y-81743200D01*
X118583795Y-82219391D01*
X118631414Y-82171772D01*
X118726652Y-82124153D01*
X118964747Y-82124153D01*
X119059985Y-82171772D01*
X119107604Y-82219391D01*
X119155223Y-82314629D01*
X119155223Y-82552724D01*
X119107604Y-82647962D01*
X119059985Y-82695581D01*
X118964747Y-82743200D01*
X118726652Y-82743200D01*
X118631414Y-82695581D01*
X118583795Y-82647962D01*
%TO.C,U1*%
X90424095Y-65238380D02*
X90424095Y-66047904D01*
X90471714Y-66143142D01*
X90519333Y-66190761D01*
X90614571Y-66238380D01*
X90805047Y-66238380D01*
X90900285Y-66190761D01*
X90947904Y-66143142D01*
X90995523Y-66047904D01*
X90995523Y-65238380D01*
X91995523Y-66238380D02*
X91424095Y-66238380D01*
X91709809Y-66238380D02*
X91709809Y-65238380D01*
X91614571Y-65381238D01*
X91519333Y-65476476D01*
X91424095Y-65524095D01*
X89039700Y-63528960D02*
X89039700Y-63767056D01*
X88801604Y-63671818D02*
X89039700Y-63767056D01*
X89277795Y-63671818D01*
X88896842Y-63957532D02*
X89039700Y-63767056D01*
X89182557Y-63957532D01*
%TO.C,J3*%
X59790080Y-74315913D02*
X60504366Y-74315913D01*
X60647223Y-74363532D01*
X60742461Y-74458770D01*
X60790080Y-74601627D01*
X60790080Y-74696865D01*
X59790080Y-73934960D02*
X59790080Y-73315913D01*
X60171033Y-73649246D01*
X60171033Y-73506389D01*
X60218652Y-73411151D01*
X60266271Y-73363532D01*
X60361509Y-73315913D01*
X60599604Y-73315913D01*
X60694842Y-73363532D01*
X60742461Y-73411151D01*
X60790080Y-73506389D01*
X60790080Y-73792103D01*
X60742461Y-73887341D01*
X60694842Y-73934960D01*
X62012461Y-76196865D02*
X62060080Y-76054008D01*
X62060080Y-75815913D01*
X62012461Y-75720675D01*
X61964842Y-75673056D01*
X61869604Y-75625437D01*
X61774366Y-75625437D01*
X61679128Y-75673056D01*
X61631509Y-75720675D01*
X61583890Y-75815913D01*
X61536271Y-76006389D01*
X61488652Y-76101627D01*
X61441033Y-76149246D01*
X61345795Y-76196865D01*
X61250557Y-76196865D01*
X61155319Y-76149246D01*
X61107700Y-76101627D01*
X61060080Y-76006389D01*
X61060080Y-75768294D01*
X61107700Y-75625437D01*
X61393414Y-75292103D02*
X62060080Y-75101627D01*
X61583890Y-74911151D01*
X62060080Y-74720675D01*
X61393414Y-74530199D01*
X62060080Y-74149246D02*
X61393414Y-74149246D01*
X61060080Y-74149246D02*
X61107700Y-74196865D01*
X61155319Y-74149246D01*
X61107700Y-74101627D01*
X61060080Y-74149246D01*
X61155319Y-74149246D01*
X61393414Y-73815913D02*
X61393414Y-73434960D01*
X61060080Y-73673056D02*
X61917223Y-73673056D01*
X62012461Y-73625437D01*
X62060080Y-73530199D01*
X62060080Y-73434960D01*
X62012461Y-72673056D02*
X62060080Y-72768294D01*
X62060080Y-72958770D01*
X62012461Y-73054008D01*
X61964842Y-73101627D01*
X61869604Y-73149246D01*
X61583890Y-73149246D01*
X61488652Y-73101627D01*
X61441033Y-73054008D01*
X61393414Y-72958770D01*
X61393414Y-72768294D01*
X61441033Y-72673056D01*
X62060080Y-72244484D02*
X61060080Y-72244484D01*
X62060080Y-71815913D02*
X61536271Y-71815913D01*
X61441033Y-71863532D01*
X61393414Y-71958770D01*
X61393414Y-72101627D01*
X61441033Y-72196865D01*
X61488652Y-72244484D01*
X61936380Y-76962000D02*
X62174476Y-76962000D01*
X62079238Y-77200095D02*
X62174476Y-76962000D01*
X62079238Y-76723904D01*
X62364952Y-77104857D02*
X62174476Y-76962000D01*
X62364952Y-76819142D01*
D12*
%TO.C,R15*%
X56186614Y-57113351D02*
X55983414Y-56823065D01*
X55838271Y-57113351D02*
X55838271Y-56503751D01*
X56070500Y-56503751D01*
X56128557Y-56532780D01*
X56157585Y-56561808D01*
X56186614Y-56619865D01*
X56186614Y-56706951D01*
X56157585Y-56765008D01*
X56128557Y-56794037D01*
X56070500Y-56823065D01*
X55838271Y-56823065D01*
X56767185Y-57113351D02*
X56418842Y-57113351D01*
X56593014Y-57113351D02*
X56593014Y-56503751D01*
X56534957Y-56590837D01*
X56476900Y-56648894D01*
X56418842Y-56677922D01*
X57318728Y-56503751D02*
X57028442Y-56503751D01*
X56999414Y-56794037D01*
X57028442Y-56765008D01*
X57086500Y-56735980D01*
X57231642Y-56735980D01*
X57289700Y-56765008D01*
X57318728Y-56794037D01*
X57347757Y-56852094D01*
X57347757Y-56997237D01*
X57318728Y-57055294D01*
X57289700Y-57084322D01*
X57231642Y-57113351D01*
X57086500Y-57113351D01*
X57028442Y-57084322D01*
X56999414Y-57055294D01*
X55809242Y-54420951D02*
X55809242Y-54827351D01*
X55664100Y-54188722D02*
X55518957Y-54624151D01*
X55896328Y-54624151D01*
X56070500Y-54217751D02*
X56476900Y-54217751D01*
X56215642Y-54827351D01*
X56825242Y-54217751D02*
X56883300Y-54217751D01*
X56941357Y-54246780D01*
X56970385Y-54275808D01*
X56999414Y-54333865D01*
X57028442Y-54449980D01*
X57028442Y-54595122D01*
X56999414Y-54711237D01*
X56970385Y-54769294D01*
X56941357Y-54798322D01*
X56883300Y-54827351D01*
X56825242Y-54827351D01*
X56767185Y-54798322D01*
X56738157Y-54769294D01*
X56709128Y-54711237D01*
X56680100Y-54595122D01*
X56680100Y-54449980D01*
X56709128Y-54333865D01*
X56738157Y-54275808D01*
X56767185Y-54246780D01*
X56825242Y-54217751D01*
X57638042Y-54827351D02*
X57434842Y-54537065D01*
X57289700Y-54827351D02*
X57289700Y-54217751D01*
X57521928Y-54217751D01*
X57579985Y-54246780D01*
X57609014Y-54275808D01*
X57638042Y-54333865D01*
X57638042Y-54420951D01*
X57609014Y-54479008D01*
X57579985Y-54508037D01*
X57521928Y-54537065D01*
X57289700Y-54537065D01*
D10*
%TO.C,Q2*%
X98819461Y-75726439D02*
X98724223Y-75678820D01*
X98628985Y-75583581D01*
X98486128Y-75440724D01*
X98390890Y-75393105D01*
X98295652Y-75393105D01*
X98343271Y-75631200D02*
X98248033Y-75583581D01*
X98152795Y-75488343D01*
X98105176Y-75297867D01*
X98105176Y-74964534D01*
X98152795Y-74774058D01*
X98248033Y-74678820D01*
X98343271Y-74631200D01*
X98533747Y-74631200D01*
X98628985Y-74678820D01*
X98724223Y-74774058D01*
X98771842Y-74964534D01*
X98771842Y-75297867D01*
X98724223Y-75488343D01*
X98628985Y-75583581D01*
X98533747Y-75631200D01*
X98343271Y-75631200D01*
X99152795Y-74726439D02*
X99200414Y-74678820D01*
X99295652Y-74631200D01*
X99533747Y-74631200D01*
X99628985Y-74678820D01*
X99676604Y-74726439D01*
X99724223Y-74821677D01*
X99724223Y-74916915D01*
X99676604Y-75059772D01*
X99105176Y-75631200D01*
X99724223Y-75631200D01*
%TO.C,J5*%
X143216044Y-67135538D02*
X143930769Y-67135538D01*
X144073713Y-67183186D01*
X144169010Y-67278482D01*
X144216658Y-67421427D01*
X144216658Y-67516724D01*
X143216044Y-66182572D02*
X143216044Y-66659055D01*
X143692527Y-66706703D01*
X143644879Y-66659055D01*
X143597231Y-66563758D01*
X143597231Y-66325517D01*
X143644879Y-66230220D01*
X143692527Y-66182572D01*
X143787824Y-66134924D01*
X144026065Y-66134924D01*
X144121362Y-66182572D01*
X144169010Y-66230220D01*
X144216658Y-66325517D01*
X144216658Y-66563758D01*
X144169010Y-66659055D01*
X144121362Y-66706703D01*
%TO.C,J2*%
X88706366Y-85328637D02*
X88706366Y-86042923D01*
X88658747Y-86185780D01*
X88563509Y-86281018D01*
X88420652Y-86328637D01*
X88325414Y-86328637D01*
X89134938Y-85423876D02*
X89182557Y-85376257D01*
X89277795Y-85328637D01*
X89515890Y-85328637D01*
X89611128Y-85376257D01*
X89658747Y-85423876D01*
X89706366Y-85519114D01*
X89706366Y-85614352D01*
X89658747Y-85757209D01*
X89087319Y-86328637D01*
X89706366Y-86328637D01*
X85063509Y-83788637D02*
X85063509Y-82788637D01*
X85063509Y-83264828D02*
X85634938Y-83264828D01*
X85634938Y-83788637D02*
X85634938Y-82788637D01*
X86111128Y-83788637D02*
X86111128Y-82788637D01*
X86349223Y-82788637D01*
X86492080Y-82836257D01*
X86587319Y-82931495D01*
X86634938Y-83026733D01*
X86682557Y-83217209D01*
X86682557Y-83360066D01*
X86634938Y-83550542D01*
X86587319Y-83645780D01*
X86492080Y-83741018D01*
X86349223Y-83788637D01*
X86111128Y-83788637D01*
X87111128Y-83788637D02*
X87111128Y-82788637D01*
X87444461Y-83502923D01*
X87777795Y-82788637D01*
X87777795Y-83788637D01*
X88253985Y-83788637D02*
X88253985Y-82788637D01*
X88492080Y-83883876D02*
X89253985Y-83883876D01*
X89444461Y-83502923D02*
X89920652Y-83502923D01*
X89349223Y-83788637D02*
X89682557Y-82788637D01*
X90015890Y-83788637D01*
X90111128Y-83883876D02*
X90873033Y-83883876D01*
X91634938Y-83788637D02*
X91063509Y-83788637D01*
X91349223Y-83788637D02*
X91349223Y-82788637D01*
X91253985Y-82931495D01*
X91158747Y-83026733D01*
X91063509Y-83074352D01*
X92063509Y-83693399D02*
X92111128Y-83741018D01*
X92063509Y-83788637D01*
X92015890Y-83741018D01*
X92063509Y-83693399D01*
X92063509Y-83788637D01*
X92968271Y-83121971D02*
X92968271Y-83788637D01*
X92730176Y-82741018D02*
X92492080Y-83455304D01*
X93111128Y-83455304D01*
D11*
%TO.C,C10*%
X126417307Y-58266673D02*
X126436055Y-58285421D01*
X126454802Y-58341664D01*
X126454802Y-58379159D01*
X126436055Y-58435402D01*
X126398559Y-58472897D01*
X126361064Y-58491645D01*
X126286073Y-58510393D01*
X126229830Y-58510393D01*
X126154840Y-58491645D01*
X126117344Y-58472897D01*
X126079849Y-58435402D01*
X126061101Y-58379159D01*
X126061101Y-58341664D01*
X126079849Y-58285421D01*
X126098597Y-58266673D01*
X126454802Y-57891720D02*
X126454802Y-58116692D01*
X126454802Y-58004206D02*
X126061101Y-58004206D01*
X126117344Y-58041701D01*
X126154840Y-58079196D01*
X126173587Y-58116692D01*
X126061101Y-57648000D02*
X126061101Y-57610505D01*
X126079849Y-57573009D01*
X126098597Y-57554262D01*
X126136092Y-57535514D01*
X126211083Y-57516766D01*
X126304821Y-57516766D01*
X126379812Y-57535514D01*
X126417307Y-57554262D01*
X126436055Y-57573009D01*
X126454802Y-57610505D01*
X126454802Y-57648000D01*
X126436055Y-57685495D01*
X126417307Y-57704243D01*
X126379812Y-57722991D01*
X126304821Y-57741738D01*
X126211083Y-57741738D01*
X126136092Y-57722991D01*
X126098597Y-57704243D01*
X126079849Y-57685495D01*
X126061101Y-57648000D01*
D12*
%TO.C,R10*%
X117623771Y-61605885D02*
X117333485Y-61809085D01*
X117623771Y-61954228D02*
X117014171Y-61954228D01*
X117014171Y-61722000D01*
X117043200Y-61663942D01*
X117072228Y-61634914D01*
X117130285Y-61605885D01*
X117217371Y-61605885D01*
X117275428Y-61634914D01*
X117304457Y-61663942D01*
X117333485Y-61722000D01*
X117333485Y-61954228D01*
X117623771Y-61025314D02*
X117623771Y-61373657D01*
X117623771Y-61199485D02*
X117014171Y-61199485D01*
X117101257Y-61257542D01*
X117159314Y-61315600D01*
X117188342Y-61373657D01*
X117014171Y-60647942D02*
X117014171Y-60589885D01*
X117043200Y-60531828D01*
X117072228Y-60502800D01*
X117130285Y-60473771D01*
X117246400Y-60444742D01*
X117391542Y-60444742D01*
X117507657Y-60473771D01*
X117565714Y-60502800D01*
X117594742Y-60531828D01*
X117623771Y-60589885D01*
X117623771Y-60647942D01*
X117594742Y-60706000D01*
X117565714Y-60735028D01*
X117507657Y-60764057D01*
X117391542Y-60793085D01*
X117246400Y-60793085D01*
X117130285Y-60764057D01*
X117072228Y-60735028D01*
X117043200Y-60706000D01*
X117014171Y-60647942D01*
X116607771Y-63572571D02*
X116607771Y-63920914D01*
X116607771Y-63746742D02*
X115998171Y-63746742D01*
X116085257Y-63804800D01*
X116143314Y-63862857D01*
X116172342Y-63920914D01*
X115998171Y-63195200D02*
X115998171Y-63137142D01*
X116027200Y-63079085D01*
X116056228Y-63050057D01*
X116114285Y-63021028D01*
X116230400Y-62992000D01*
X116375542Y-62992000D01*
X116491657Y-63021028D01*
X116549714Y-63050057D01*
X116578742Y-63079085D01*
X116607771Y-63137142D01*
X116607771Y-63195200D01*
X116578742Y-63253257D01*
X116549714Y-63282285D01*
X116491657Y-63311314D01*
X116375542Y-63340342D01*
X116230400Y-63340342D01*
X116114285Y-63311314D01*
X116056228Y-63282285D01*
X116027200Y-63253257D01*
X115998171Y-63195200D01*
X115998171Y-62614628D02*
X115998171Y-62556571D01*
X116027200Y-62498514D01*
X116056228Y-62469485D01*
X116114285Y-62440457D01*
X116230400Y-62411428D01*
X116375542Y-62411428D01*
X116491657Y-62440457D01*
X116549714Y-62469485D01*
X116578742Y-62498514D01*
X116607771Y-62556571D01*
X116607771Y-62614628D01*
X116578742Y-62672685D01*
X116549714Y-62701714D01*
X116491657Y-62730742D01*
X116375542Y-62759771D01*
X116230400Y-62759771D01*
X116114285Y-62730742D01*
X116056228Y-62701714D01*
X116027200Y-62672685D01*
X115998171Y-62614628D01*
X116607771Y-62150171D02*
X115998171Y-62150171D01*
X116607771Y-61801828D02*
X116259428Y-62063085D01*
X115998171Y-61801828D02*
X116346514Y-62150171D01*
X115998171Y-60960000D02*
X115998171Y-60901942D01*
X116027200Y-60843885D01*
X116056228Y-60814857D01*
X116114285Y-60785828D01*
X116230400Y-60756800D01*
X116375542Y-60756800D01*
X116491657Y-60785828D01*
X116549714Y-60814857D01*
X116578742Y-60843885D01*
X116607771Y-60901942D01*
X116607771Y-60960000D01*
X116578742Y-61018057D01*
X116549714Y-61047085D01*
X116491657Y-61076114D01*
X116375542Y-61105142D01*
X116230400Y-61105142D01*
X116114285Y-61076114D01*
X116056228Y-61047085D01*
X116027200Y-61018057D01*
X115998171Y-60960000D01*
X116201371Y-60234285D02*
X116607771Y-60234285D01*
X115969142Y-60379428D02*
X116404571Y-60524571D01*
X116404571Y-60147200D01*
X115998171Y-59798857D02*
X115998171Y-59740800D01*
X116027200Y-59682742D01*
X116056228Y-59653714D01*
X116114285Y-59624685D01*
X116230400Y-59595657D01*
X116375542Y-59595657D01*
X116491657Y-59624685D01*
X116549714Y-59653714D01*
X116578742Y-59682742D01*
X116607771Y-59740800D01*
X116607771Y-59798857D01*
X116578742Y-59856914D01*
X116549714Y-59885942D01*
X116491657Y-59914971D01*
X116375542Y-59944000D01*
X116230400Y-59944000D01*
X116114285Y-59914971D01*
X116056228Y-59885942D01*
X116027200Y-59856914D01*
X115998171Y-59798857D01*
X116056228Y-59363428D02*
X116027200Y-59334400D01*
X115998171Y-59276342D01*
X115998171Y-59131200D01*
X116027200Y-59073142D01*
X116056228Y-59044114D01*
X116114285Y-59015085D01*
X116172342Y-59015085D01*
X116259428Y-59044114D01*
X116607771Y-59392457D01*
X116607771Y-59015085D01*
%TO.C,D2*%
X56192057Y-51329771D02*
X56192057Y-50720171D01*
X56337200Y-50720171D01*
X56424285Y-50749200D01*
X56482342Y-50807257D01*
X56511371Y-50865314D01*
X56540400Y-50981428D01*
X56540400Y-51068514D01*
X56511371Y-51184628D01*
X56482342Y-51242685D01*
X56424285Y-51300742D01*
X56337200Y-51329771D01*
X56192057Y-51329771D01*
X56772628Y-50778228D02*
X56801657Y-50749200D01*
X56859714Y-50720171D01*
X57004857Y-50720171D01*
X57062914Y-50749200D01*
X57091942Y-50778228D01*
X57120971Y-50836285D01*
X57120971Y-50894342D01*
X57091942Y-50981428D01*
X56743600Y-51329771D01*
X57120971Y-51329771D01*
X54274357Y-52062742D02*
X54361442Y-52091771D01*
X54506585Y-52091771D01*
X54564642Y-52062742D01*
X54593671Y-52033714D01*
X54622700Y-51975657D01*
X54622700Y-51917600D01*
X54593671Y-51859542D01*
X54564642Y-51830514D01*
X54506585Y-51801485D01*
X54390471Y-51772457D01*
X54332414Y-51743428D01*
X54303385Y-51714400D01*
X54274357Y-51656342D01*
X54274357Y-51598285D01*
X54303385Y-51540228D01*
X54332414Y-51511200D01*
X54390471Y-51482171D01*
X54535614Y-51482171D01*
X54622700Y-51511200D01*
X54796871Y-51685371D02*
X55029100Y-51685371D01*
X54883957Y-51482171D02*
X54883957Y-52004685D01*
X54912985Y-52062742D01*
X54971042Y-52091771D01*
X55029100Y-52091771D01*
X55493557Y-52091771D02*
X55493557Y-51772457D01*
X55464528Y-51714400D01*
X55406471Y-51685371D01*
X55290357Y-51685371D01*
X55232300Y-51714400D01*
X55493557Y-52062742D02*
X55435500Y-52091771D01*
X55290357Y-52091771D01*
X55232300Y-52062742D01*
X55203271Y-52004685D01*
X55203271Y-51946628D01*
X55232300Y-51888571D01*
X55290357Y-51859542D01*
X55435500Y-51859542D01*
X55493557Y-51830514D01*
X55696757Y-51685371D02*
X55928985Y-51685371D01*
X55783842Y-51482171D02*
X55783842Y-52004685D01*
X55812871Y-52062742D01*
X55870928Y-52091771D01*
X55928985Y-52091771D01*
X56393442Y-51685371D02*
X56393442Y-52091771D01*
X56132185Y-51685371D02*
X56132185Y-52004685D01*
X56161214Y-52062742D01*
X56219271Y-52091771D01*
X56306357Y-52091771D01*
X56364414Y-52062742D01*
X56393442Y-52033714D01*
X56654700Y-52062742D02*
X56712757Y-52091771D01*
X56828871Y-52091771D01*
X56886928Y-52062742D01*
X56915957Y-52004685D01*
X56915957Y-51975657D01*
X56886928Y-51917600D01*
X56828871Y-51888571D01*
X56741785Y-51888571D01*
X56683728Y-51859542D01*
X56654700Y-51801485D01*
X56654700Y-51772457D01*
X56683728Y-51714400D01*
X56741785Y-51685371D01*
X56828871Y-51685371D01*
X56886928Y-51714400D01*
X57931957Y-52091771D02*
X57641671Y-52091771D01*
X57641671Y-51482171D01*
X58135157Y-51772457D02*
X58338357Y-51772457D01*
X58425442Y-52091771D02*
X58135157Y-52091771D01*
X58135157Y-51482171D01*
X58425442Y-51482171D01*
X58686700Y-52091771D02*
X58686700Y-51482171D01*
X58831842Y-51482171D01*
X58918928Y-51511200D01*
X58976985Y-51569257D01*
X59006014Y-51627314D01*
X59035042Y-51743428D01*
X59035042Y-51830514D01*
X59006014Y-51946628D01*
X58976985Y-52004685D01*
X58918928Y-52062742D01*
X58831842Y-52091771D01*
X58686700Y-52091771D01*
%TO.C,R9*%
X112277071Y-63347600D02*
X111986785Y-63550800D01*
X112277071Y-63695942D02*
X111667471Y-63695942D01*
X111667471Y-63463714D01*
X111696500Y-63405657D01*
X111725528Y-63376628D01*
X111783585Y-63347600D01*
X111870671Y-63347600D01*
X111928728Y-63376628D01*
X111957757Y-63405657D01*
X111986785Y-63463714D01*
X111986785Y-63695942D01*
X112277071Y-63057314D02*
X112277071Y-62941200D01*
X112248042Y-62883142D01*
X112219014Y-62854114D01*
X112131928Y-62796057D01*
X112015814Y-62767028D01*
X111783585Y-62767028D01*
X111725528Y-62796057D01*
X111696500Y-62825085D01*
X111667471Y-62883142D01*
X111667471Y-62999257D01*
X111696500Y-63057314D01*
X111725528Y-63086342D01*
X111783585Y-63115371D01*
X111928728Y-63115371D01*
X111986785Y-63086342D01*
X112015814Y-63057314D01*
X112044842Y-62999257D01*
X112044842Y-62883142D01*
X112015814Y-62825085D01*
X111986785Y-62796057D01*
X111928728Y-62767028D01*
X113559771Y-63539551D02*
X113559771Y-63887894D01*
X113559771Y-63713722D02*
X112950171Y-63713722D01*
X113037257Y-63771780D01*
X113095314Y-63829837D01*
X113124342Y-63887894D01*
X112950171Y-63162180D02*
X112950171Y-63104122D01*
X112979200Y-63046065D01*
X113008228Y-63017037D01*
X113066285Y-62988008D01*
X113182400Y-62958980D01*
X113327542Y-62958980D01*
X113443657Y-62988008D01*
X113501714Y-63017037D01*
X113530742Y-63046065D01*
X113559771Y-63104122D01*
X113559771Y-63162180D01*
X113530742Y-63220237D01*
X113501714Y-63249265D01*
X113443657Y-63278294D01*
X113327542Y-63307322D01*
X113182400Y-63307322D01*
X113066285Y-63278294D01*
X113008228Y-63249265D01*
X112979200Y-63220237D01*
X112950171Y-63162180D01*
X112950171Y-62581608D02*
X112950171Y-62523551D01*
X112979200Y-62465494D01*
X113008228Y-62436465D01*
X113066285Y-62407437D01*
X113182400Y-62378408D01*
X113327542Y-62378408D01*
X113443657Y-62407437D01*
X113501714Y-62436465D01*
X113530742Y-62465494D01*
X113559771Y-62523551D01*
X113559771Y-62581608D01*
X113530742Y-62639665D01*
X113501714Y-62668694D01*
X113443657Y-62697722D01*
X113327542Y-62726751D01*
X113182400Y-62726751D01*
X113066285Y-62697722D01*
X113008228Y-62668694D01*
X112979200Y-62639665D01*
X112950171Y-62581608D01*
X113559771Y-62117151D02*
X112950171Y-62117151D01*
X113559771Y-61768808D02*
X113211428Y-62030065D01*
X112950171Y-61768808D02*
X113298514Y-62117151D01*
X112950171Y-60926980D02*
X112950171Y-60868922D01*
X112979200Y-60810865D01*
X113008228Y-60781837D01*
X113066285Y-60752808D01*
X113182400Y-60723780D01*
X113327542Y-60723780D01*
X113443657Y-60752808D01*
X113501714Y-60781837D01*
X113530742Y-60810865D01*
X113559771Y-60868922D01*
X113559771Y-60926980D01*
X113530742Y-60985037D01*
X113501714Y-61014065D01*
X113443657Y-61043094D01*
X113327542Y-61072122D01*
X113182400Y-61072122D01*
X113066285Y-61043094D01*
X113008228Y-61014065D01*
X112979200Y-60985037D01*
X112950171Y-60926980D01*
X113153371Y-60201265D02*
X113559771Y-60201265D01*
X112921142Y-60346408D02*
X113356571Y-60491551D01*
X113356571Y-60114180D01*
X112950171Y-59765837D02*
X112950171Y-59707780D01*
X112979200Y-59649722D01*
X113008228Y-59620694D01*
X113066285Y-59591665D01*
X113182400Y-59562637D01*
X113327542Y-59562637D01*
X113443657Y-59591665D01*
X113501714Y-59620694D01*
X113530742Y-59649722D01*
X113559771Y-59707780D01*
X113559771Y-59765837D01*
X113530742Y-59823894D01*
X113501714Y-59852922D01*
X113443657Y-59881951D01*
X113327542Y-59910980D01*
X113182400Y-59910980D01*
X113066285Y-59881951D01*
X113008228Y-59852922D01*
X112979200Y-59823894D01*
X112950171Y-59765837D01*
X113008228Y-59330408D02*
X112979200Y-59301380D01*
X112950171Y-59243322D01*
X112950171Y-59098180D01*
X112979200Y-59040122D01*
X113008228Y-59011094D01*
X113066285Y-58982065D01*
X113124342Y-58982065D01*
X113211428Y-59011094D01*
X113559771Y-59359437D01*
X113559771Y-58982065D01*
%TO.C,C12*%
X85853814Y-59214294D02*
X85824785Y-59243322D01*
X85737700Y-59272351D01*
X85679642Y-59272351D01*
X85592557Y-59243322D01*
X85534500Y-59185265D01*
X85505471Y-59127208D01*
X85476442Y-59011094D01*
X85476442Y-58924008D01*
X85505471Y-58807894D01*
X85534500Y-58749837D01*
X85592557Y-58691780D01*
X85679642Y-58662751D01*
X85737700Y-58662751D01*
X85824785Y-58691780D01*
X85853814Y-58720808D01*
X86434385Y-59272351D02*
X86086042Y-59272351D01*
X86260214Y-59272351D02*
X86260214Y-58662751D01*
X86202157Y-58749837D01*
X86144100Y-58807894D01*
X86086042Y-58836922D01*
X86666614Y-58720808D02*
X86695642Y-58691780D01*
X86753700Y-58662751D01*
X86898842Y-58662751D01*
X86956900Y-58691780D01*
X86985928Y-58720808D01*
X87014957Y-58778865D01*
X87014957Y-58836922D01*
X86985928Y-58924008D01*
X86637585Y-59272351D01*
X87014957Y-59272351D01*
X84068557Y-56122751D02*
X84126614Y-56122751D01*
X84184671Y-56151780D01*
X84213700Y-56180808D01*
X84242728Y-56238865D01*
X84271757Y-56354980D01*
X84271757Y-56500122D01*
X84242728Y-56616237D01*
X84213700Y-56674294D01*
X84184671Y-56703322D01*
X84126614Y-56732351D01*
X84068557Y-56732351D01*
X84010500Y-56703322D01*
X83981471Y-56674294D01*
X83952442Y-56616237D01*
X83923414Y-56500122D01*
X83923414Y-56354980D01*
X83952442Y-56238865D01*
X83981471Y-56180808D01*
X84010500Y-56151780D01*
X84068557Y-56122751D01*
X84533014Y-56674294D02*
X84562042Y-56703322D01*
X84533014Y-56732351D01*
X84503985Y-56703322D01*
X84533014Y-56674294D01*
X84533014Y-56732351D01*
X85142614Y-56732351D02*
X84794271Y-56732351D01*
X84968442Y-56732351D02*
X84968442Y-56122751D01*
X84910385Y-56209837D01*
X84852328Y-56267894D01*
X84794271Y-56296922D01*
X85403871Y-56122751D02*
X85403871Y-56616237D01*
X85432900Y-56674294D01*
X85461928Y-56703322D01*
X85519985Y-56732351D01*
X85636100Y-56732351D01*
X85694157Y-56703322D01*
X85723185Y-56674294D01*
X85752214Y-56616237D01*
X85752214Y-56122751D01*
X86623071Y-56122751D02*
X86681128Y-56122751D01*
X86739185Y-56151780D01*
X86768214Y-56180808D01*
X86797242Y-56238865D01*
X86826271Y-56354980D01*
X86826271Y-56500122D01*
X86797242Y-56616237D01*
X86768214Y-56674294D01*
X86739185Y-56703322D01*
X86681128Y-56732351D01*
X86623071Y-56732351D01*
X86565014Y-56703322D01*
X86535985Y-56674294D01*
X86506957Y-56616237D01*
X86477928Y-56500122D01*
X86477928Y-56354980D01*
X86506957Y-56238865D01*
X86535985Y-56180808D01*
X86565014Y-56151780D01*
X86623071Y-56122751D01*
X87348785Y-56325951D02*
X87348785Y-56732351D01*
X87203642Y-56093722D02*
X87058500Y-56529151D01*
X87435871Y-56529151D01*
X87784214Y-56122751D02*
X87842271Y-56122751D01*
X87900328Y-56151780D01*
X87929357Y-56180808D01*
X87958385Y-56238865D01*
X87987414Y-56354980D01*
X87987414Y-56500122D01*
X87958385Y-56616237D01*
X87929357Y-56674294D01*
X87900328Y-56703322D01*
X87842271Y-56732351D01*
X87784214Y-56732351D01*
X87726157Y-56703322D01*
X87697128Y-56674294D01*
X87668100Y-56616237D01*
X87639071Y-56500122D01*
X87639071Y-56354980D01*
X87668100Y-56238865D01*
X87697128Y-56180808D01*
X87726157Y-56151780D01*
X87784214Y-56122751D01*
X88219642Y-56180808D02*
X88248671Y-56151780D01*
X88306728Y-56122751D01*
X88451871Y-56122751D01*
X88509928Y-56151780D01*
X88538957Y-56180808D01*
X88567985Y-56238865D01*
X88567985Y-56296922D01*
X88538957Y-56384008D01*
X88190614Y-56732351D01*
X88567985Y-56732351D01*
%TO.C,R11*%
X129307771Y-63129885D02*
X129017485Y-63333085D01*
X129307771Y-63478228D02*
X128698171Y-63478228D01*
X128698171Y-63246000D01*
X128727200Y-63187942D01*
X128756228Y-63158914D01*
X128814285Y-63129885D01*
X128901371Y-63129885D01*
X128959428Y-63158914D01*
X128988457Y-63187942D01*
X129017485Y-63246000D01*
X129017485Y-63478228D01*
X129307771Y-62549314D02*
X129307771Y-62897657D01*
X129307771Y-62723485D02*
X128698171Y-62723485D01*
X128785257Y-62781542D01*
X128843314Y-62839600D01*
X128872342Y-62897657D01*
X129307771Y-61968742D02*
X129307771Y-62317085D01*
X129307771Y-62142914D02*
X128698171Y-62142914D01*
X128785257Y-62200971D01*
X128843314Y-62259028D01*
X128872342Y-62317085D01*
X130171371Y-66642342D02*
X130577771Y-66642342D01*
X129939142Y-66787485D02*
X130374571Y-66932628D01*
X130374571Y-66555257D01*
X129968171Y-66381085D02*
X129968171Y-65974685D01*
X130577771Y-66235942D01*
X130577771Y-65742457D02*
X129968171Y-65742457D01*
X130577771Y-65394114D02*
X130229428Y-65655371D01*
X129968171Y-65394114D02*
X130316514Y-65742457D01*
X129968171Y-64552285D02*
X129968171Y-64494228D01*
X129997200Y-64436171D01*
X130026228Y-64407142D01*
X130084285Y-64378114D01*
X130200400Y-64349085D01*
X130345542Y-64349085D01*
X130461657Y-64378114D01*
X130519714Y-64407142D01*
X130548742Y-64436171D01*
X130577771Y-64494228D01*
X130577771Y-64552285D01*
X130548742Y-64610342D01*
X130519714Y-64639371D01*
X130461657Y-64668400D01*
X130345542Y-64697428D01*
X130200400Y-64697428D01*
X130084285Y-64668400D01*
X130026228Y-64639371D01*
X129997200Y-64610342D01*
X129968171Y-64552285D01*
X129968171Y-63826571D02*
X129968171Y-63942685D01*
X129997200Y-64000742D01*
X130026228Y-64029771D01*
X130113314Y-64087828D01*
X130229428Y-64116857D01*
X130461657Y-64116857D01*
X130519714Y-64087828D01*
X130548742Y-64058800D01*
X130577771Y-64000742D01*
X130577771Y-63884628D01*
X130548742Y-63826571D01*
X130519714Y-63797542D01*
X130461657Y-63768514D01*
X130316514Y-63768514D01*
X130258457Y-63797542D01*
X130229428Y-63826571D01*
X130200400Y-63884628D01*
X130200400Y-64000742D01*
X130229428Y-64058800D01*
X130258457Y-64087828D01*
X130316514Y-64116857D01*
X129968171Y-63391142D02*
X129968171Y-63333085D01*
X129997200Y-63275028D01*
X130026228Y-63246000D01*
X130084285Y-63216971D01*
X130200400Y-63187942D01*
X130345542Y-63187942D01*
X130461657Y-63216971D01*
X130519714Y-63246000D01*
X130548742Y-63275028D01*
X130577771Y-63333085D01*
X130577771Y-63391142D01*
X130548742Y-63449200D01*
X130519714Y-63478228D01*
X130461657Y-63507257D01*
X130345542Y-63536285D01*
X130200400Y-63536285D01*
X130084285Y-63507257D01*
X130026228Y-63478228D01*
X129997200Y-63449200D01*
X129968171Y-63391142D01*
X129968171Y-62984742D02*
X129968171Y-62607371D01*
X130200400Y-62810571D01*
X130200400Y-62723485D01*
X130229428Y-62665428D01*
X130258457Y-62636400D01*
X130316514Y-62607371D01*
X130461657Y-62607371D01*
X130519714Y-62636400D01*
X130548742Y-62665428D01*
X130577771Y-62723485D01*
X130577771Y-62897657D01*
X130548742Y-62955714D01*
X130519714Y-62984742D01*
%TO.C,R7*%
X145834100Y-56097351D02*
X145630900Y-55807065D01*
X145485757Y-56097351D02*
X145485757Y-55487751D01*
X145717985Y-55487751D01*
X145776042Y-55516780D01*
X145805071Y-55545808D01*
X145834100Y-55603865D01*
X145834100Y-55690951D01*
X145805071Y-55749008D01*
X145776042Y-55778037D01*
X145717985Y-55807065D01*
X145485757Y-55807065D01*
X146037300Y-55487751D02*
X146443700Y-55487751D01*
X146182442Y-56097351D01*
X144261477Y-56511371D02*
X144261477Y-56917771D01*
X144116334Y-56279142D02*
X143971191Y-56714571D01*
X144348562Y-56714571D01*
X144522734Y-56308171D02*
X144929134Y-56308171D01*
X144667877Y-56917771D01*
X145161362Y-56917771D02*
X145161362Y-56308171D01*
X145509705Y-56917771D02*
X145248448Y-56569428D01*
X145509705Y-56308171D02*
X145161362Y-56656514D01*
X146351534Y-56308171D02*
X146409591Y-56308171D01*
X146467648Y-56337200D01*
X146496677Y-56366228D01*
X146525705Y-56424285D01*
X146554734Y-56540400D01*
X146554734Y-56685542D01*
X146525705Y-56801657D01*
X146496677Y-56859714D01*
X146467648Y-56888742D01*
X146409591Y-56917771D01*
X146351534Y-56917771D01*
X146293477Y-56888742D01*
X146264448Y-56859714D01*
X146235420Y-56801657D01*
X146206391Y-56685542D01*
X146206391Y-56540400D01*
X146235420Y-56424285D01*
X146264448Y-56366228D01*
X146293477Y-56337200D01*
X146351534Y-56308171D01*
X147077248Y-56308171D02*
X146961134Y-56308171D01*
X146903077Y-56337200D01*
X146874048Y-56366228D01*
X146815991Y-56453314D01*
X146786962Y-56569428D01*
X146786962Y-56801657D01*
X146815991Y-56859714D01*
X146845020Y-56888742D01*
X146903077Y-56917771D01*
X147019191Y-56917771D01*
X147077248Y-56888742D01*
X147106277Y-56859714D01*
X147135305Y-56801657D01*
X147135305Y-56656514D01*
X147106277Y-56598457D01*
X147077248Y-56569428D01*
X147019191Y-56540400D01*
X146903077Y-56540400D01*
X146845020Y-56569428D01*
X146815991Y-56598457D01*
X146786962Y-56656514D01*
X147512677Y-56308171D02*
X147570734Y-56308171D01*
X147628791Y-56337200D01*
X147657820Y-56366228D01*
X147686848Y-56424285D01*
X147715877Y-56540400D01*
X147715877Y-56685542D01*
X147686848Y-56801657D01*
X147657820Y-56859714D01*
X147628791Y-56888742D01*
X147570734Y-56917771D01*
X147512677Y-56917771D01*
X147454620Y-56888742D01*
X147425591Y-56859714D01*
X147396562Y-56801657D01*
X147367534Y-56685542D01*
X147367534Y-56540400D01*
X147396562Y-56424285D01*
X147425591Y-56366228D01*
X147454620Y-56337200D01*
X147512677Y-56308171D01*
X147919077Y-56308171D02*
X148296448Y-56308171D01*
X148093248Y-56540400D01*
X148180334Y-56540400D01*
X148238391Y-56569428D01*
X148267420Y-56598457D01*
X148296448Y-56656514D01*
X148296448Y-56801657D01*
X148267420Y-56859714D01*
X148238391Y-56888742D01*
X148180334Y-56917771D01*
X148006162Y-56917771D01*
X147948105Y-56888742D01*
X147919077Y-56859714D01*
%TO.C,C4*%
X121388414Y-68242180D02*
X121417442Y-68271208D01*
X121446471Y-68358294D01*
X121446471Y-68416351D01*
X121417442Y-68503437D01*
X121359385Y-68561494D01*
X121301328Y-68590522D01*
X121185214Y-68619551D01*
X121098128Y-68619551D01*
X120982014Y-68590522D01*
X120923957Y-68561494D01*
X120865900Y-68503437D01*
X120836871Y-68416351D01*
X120836871Y-68358294D01*
X120865900Y-68271208D01*
X120894928Y-68242180D01*
X121040071Y-67719665D02*
X121446471Y-67719665D01*
X120807842Y-67864808D02*
X121243271Y-68009951D01*
X121243271Y-67632580D01*
X123986471Y-69969380D02*
X123986471Y-70317722D01*
X123986471Y-70143551D02*
X123376871Y-70143551D01*
X123463957Y-70201608D01*
X123522014Y-70259665D01*
X123551042Y-70317722D01*
X123376871Y-69592008D02*
X123376871Y-69533951D01*
X123405900Y-69475894D01*
X123434928Y-69446865D01*
X123492985Y-69417837D01*
X123609100Y-69388808D01*
X123754242Y-69388808D01*
X123870357Y-69417837D01*
X123928414Y-69446865D01*
X123957442Y-69475894D01*
X123986471Y-69533951D01*
X123986471Y-69592008D01*
X123957442Y-69650065D01*
X123928414Y-69679094D01*
X123870357Y-69708122D01*
X123754242Y-69737151D01*
X123609100Y-69737151D01*
X123492985Y-69708122D01*
X123434928Y-69679094D01*
X123405900Y-69650065D01*
X123376871Y-69592008D01*
X123376871Y-69127551D02*
X123870357Y-69127551D01*
X123928414Y-69098522D01*
X123957442Y-69069494D01*
X123986471Y-69011437D01*
X123986471Y-68895322D01*
X123957442Y-68837265D01*
X123928414Y-68808237D01*
X123870357Y-68779208D01*
X123376871Y-68779208D01*
X123376871Y-67908351D02*
X123376871Y-67850294D01*
X123405900Y-67792237D01*
X123434928Y-67763208D01*
X123492985Y-67734180D01*
X123609100Y-67705151D01*
X123754242Y-67705151D01*
X123870357Y-67734180D01*
X123928414Y-67763208D01*
X123957442Y-67792237D01*
X123986471Y-67850294D01*
X123986471Y-67908351D01*
X123957442Y-67966408D01*
X123928414Y-67995437D01*
X123870357Y-68024465D01*
X123754242Y-68053494D01*
X123609100Y-68053494D01*
X123492985Y-68024465D01*
X123434928Y-67995437D01*
X123405900Y-67966408D01*
X123376871Y-67908351D01*
X123638128Y-67356808D02*
X123609100Y-67414865D01*
X123580071Y-67443894D01*
X123522014Y-67472922D01*
X123492985Y-67472922D01*
X123434928Y-67443894D01*
X123405900Y-67414865D01*
X123376871Y-67356808D01*
X123376871Y-67240694D01*
X123405900Y-67182637D01*
X123434928Y-67153608D01*
X123492985Y-67124580D01*
X123522014Y-67124580D01*
X123580071Y-67153608D01*
X123609100Y-67182637D01*
X123638128Y-67240694D01*
X123638128Y-67356808D01*
X123667157Y-67414865D01*
X123696185Y-67443894D01*
X123754242Y-67472922D01*
X123870357Y-67472922D01*
X123928414Y-67443894D01*
X123957442Y-67414865D01*
X123986471Y-67356808D01*
X123986471Y-67240694D01*
X123957442Y-67182637D01*
X123928414Y-67153608D01*
X123870357Y-67124580D01*
X123754242Y-67124580D01*
X123696185Y-67153608D01*
X123667157Y-67182637D01*
X123638128Y-67240694D01*
X123376871Y-66747208D02*
X123376871Y-66689151D01*
X123405900Y-66631094D01*
X123434928Y-66602065D01*
X123492985Y-66573037D01*
X123609100Y-66544008D01*
X123754242Y-66544008D01*
X123870357Y-66573037D01*
X123928414Y-66602065D01*
X123957442Y-66631094D01*
X123986471Y-66689151D01*
X123986471Y-66747208D01*
X123957442Y-66805265D01*
X123928414Y-66834294D01*
X123870357Y-66863322D01*
X123754242Y-66892351D01*
X123609100Y-66892351D01*
X123492985Y-66863322D01*
X123434928Y-66834294D01*
X123405900Y-66805265D01*
X123376871Y-66747208D01*
X123376871Y-65992465D02*
X123376871Y-66282751D01*
X123667157Y-66311780D01*
X123638128Y-66282751D01*
X123609100Y-66224694D01*
X123609100Y-66079551D01*
X123638128Y-66021494D01*
X123667157Y-65992465D01*
X123725214Y-65963437D01*
X123870357Y-65963437D01*
X123928414Y-65992465D01*
X123957442Y-66021494D01*
X123986471Y-66079551D01*
X123986471Y-66224694D01*
X123957442Y-66282751D01*
X123928414Y-66311780D01*
%TO.C,C5*%
X114263714Y-68173600D02*
X114292742Y-68202628D01*
X114321771Y-68289714D01*
X114321771Y-68347771D01*
X114292742Y-68434857D01*
X114234685Y-68492914D01*
X114176628Y-68521942D01*
X114060514Y-68550971D01*
X113973428Y-68550971D01*
X113857314Y-68521942D01*
X113799257Y-68492914D01*
X113741200Y-68434857D01*
X113712171Y-68347771D01*
X113712171Y-68289714D01*
X113741200Y-68202628D01*
X113770228Y-68173600D01*
X113712171Y-67622057D02*
X113712171Y-67912342D01*
X114002457Y-67941371D01*
X113973428Y-67912342D01*
X113944400Y-67854285D01*
X113944400Y-67709142D01*
X113973428Y-67651085D01*
X114002457Y-67622057D01*
X114060514Y-67593028D01*
X114205657Y-67593028D01*
X114263714Y-67622057D01*
X114292742Y-67651085D01*
X114321771Y-67709142D01*
X114321771Y-67854285D01*
X114292742Y-67912342D01*
X114263714Y-67941371D01*
X115591771Y-68122800D02*
X115591771Y-68471142D01*
X115591771Y-68296971D02*
X114982171Y-68296971D01*
X115069257Y-68355028D01*
X115127314Y-68413085D01*
X115156342Y-68471142D01*
X114982171Y-67745428D02*
X114982171Y-67687371D01*
X115011200Y-67629314D01*
X115040228Y-67600285D01*
X115098285Y-67571257D01*
X115214400Y-67542228D01*
X115359542Y-67542228D01*
X115475657Y-67571257D01*
X115533714Y-67600285D01*
X115562742Y-67629314D01*
X115591771Y-67687371D01*
X115591771Y-67745428D01*
X115562742Y-67803485D01*
X115533714Y-67832514D01*
X115475657Y-67861542D01*
X115359542Y-67890571D01*
X115214400Y-67890571D01*
X115098285Y-67861542D01*
X115040228Y-67832514D01*
X115011200Y-67803485D01*
X114982171Y-67745428D01*
X114982171Y-67280971D02*
X115475657Y-67280971D01*
X115533714Y-67251942D01*
X115562742Y-67222914D01*
X115591771Y-67164857D01*
X115591771Y-67048742D01*
X115562742Y-66990685D01*
X115533714Y-66961657D01*
X115475657Y-66932628D01*
X114982171Y-66932628D01*
X114982171Y-66061771D02*
X114982171Y-66003714D01*
X115011200Y-65945657D01*
X115040228Y-65916628D01*
X115098285Y-65887600D01*
X115214400Y-65858571D01*
X115359542Y-65858571D01*
X115475657Y-65887600D01*
X115533714Y-65916628D01*
X115562742Y-65945657D01*
X115591771Y-66003714D01*
X115591771Y-66061771D01*
X115562742Y-66119828D01*
X115533714Y-66148857D01*
X115475657Y-66177885D01*
X115359542Y-66206914D01*
X115214400Y-66206914D01*
X115098285Y-66177885D01*
X115040228Y-66148857D01*
X115011200Y-66119828D01*
X114982171Y-66061771D01*
X115243428Y-65510228D02*
X115214400Y-65568285D01*
X115185371Y-65597314D01*
X115127314Y-65626342D01*
X115098285Y-65626342D01*
X115040228Y-65597314D01*
X115011200Y-65568285D01*
X114982171Y-65510228D01*
X114982171Y-65394114D01*
X115011200Y-65336057D01*
X115040228Y-65307028D01*
X115098285Y-65278000D01*
X115127314Y-65278000D01*
X115185371Y-65307028D01*
X115214400Y-65336057D01*
X115243428Y-65394114D01*
X115243428Y-65510228D01*
X115272457Y-65568285D01*
X115301485Y-65597314D01*
X115359542Y-65626342D01*
X115475657Y-65626342D01*
X115533714Y-65597314D01*
X115562742Y-65568285D01*
X115591771Y-65510228D01*
X115591771Y-65394114D01*
X115562742Y-65336057D01*
X115533714Y-65307028D01*
X115475657Y-65278000D01*
X115359542Y-65278000D01*
X115301485Y-65307028D01*
X115272457Y-65336057D01*
X115243428Y-65394114D01*
X114982171Y-64900628D02*
X114982171Y-64842571D01*
X115011200Y-64784514D01*
X115040228Y-64755485D01*
X115098285Y-64726457D01*
X115214400Y-64697428D01*
X115359542Y-64697428D01*
X115475657Y-64726457D01*
X115533714Y-64755485D01*
X115562742Y-64784514D01*
X115591771Y-64842571D01*
X115591771Y-64900628D01*
X115562742Y-64958685D01*
X115533714Y-64987714D01*
X115475657Y-65016742D01*
X115359542Y-65045771D01*
X115214400Y-65045771D01*
X115098285Y-65016742D01*
X115040228Y-64987714D01*
X115011200Y-64958685D01*
X114982171Y-64900628D01*
X114982171Y-64145885D02*
X114982171Y-64436171D01*
X115272457Y-64465200D01*
X115243428Y-64436171D01*
X115214400Y-64378114D01*
X115214400Y-64232971D01*
X115243428Y-64174914D01*
X115272457Y-64145885D01*
X115330514Y-64116857D01*
X115475657Y-64116857D01*
X115533714Y-64145885D01*
X115562742Y-64174914D01*
X115591771Y-64232971D01*
X115591771Y-64378114D01*
X115562742Y-64436171D01*
X115533714Y-64465200D01*
%TO.C,C6*%
X109766100Y-65437294D02*
X109737071Y-65466322D01*
X109649985Y-65495351D01*
X109591928Y-65495351D01*
X109504842Y-65466322D01*
X109446785Y-65408265D01*
X109417757Y-65350208D01*
X109388728Y-65234094D01*
X109388728Y-65147008D01*
X109417757Y-65030894D01*
X109446785Y-64972837D01*
X109504842Y-64914780D01*
X109591928Y-64885751D01*
X109649985Y-64885751D01*
X109737071Y-64914780D01*
X109766100Y-64943808D01*
X110288614Y-64885751D02*
X110172500Y-64885751D01*
X110114442Y-64914780D01*
X110085414Y-64943808D01*
X110027357Y-65030894D01*
X109998328Y-65147008D01*
X109998328Y-65379237D01*
X110027357Y-65437294D01*
X110056385Y-65466322D01*
X110114442Y-65495351D01*
X110230557Y-65495351D01*
X110288614Y-65466322D01*
X110317642Y-65437294D01*
X110346671Y-65379237D01*
X110346671Y-65234094D01*
X110317642Y-65176037D01*
X110288614Y-65147008D01*
X110230557Y-65117980D01*
X110114442Y-65117980D01*
X110056385Y-65147008D01*
X110027357Y-65176037D01*
X109998328Y-65234094D01*
X108566857Y-67230171D02*
X108624914Y-67230171D01*
X108682971Y-67259200D01*
X108712000Y-67288228D01*
X108741028Y-67346285D01*
X108770057Y-67462400D01*
X108770057Y-67607542D01*
X108741028Y-67723657D01*
X108712000Y-67781714D01*
X108682971Y-67810742D01*
X108624914Y-67839771D01*
X108566857Y-67839771D01*
X108508800Y-67810742D01*
X108479771Y-67781714D01*
X108450742Y-67723657D01*
X108421714Y-67607542D01*
X108421714Y-67462400D01*
X108450742Y-67346285D01*
X108479771Y-67288228D01*
X108508800Y-67259200D01*
X108566857Y-67230171D01*
X109031314Y-67781714D02*
X109060342Y-67810742D01*
X109031314Y-67839771D01*
X109002285Y-67810742D01*
X109031314Y-67781714D01*
X109031314Y-67839771D01*
X109640914Y-67839771D02*
X109292571Y-67839771D01*
X109466742Y-67839771D02*
X109466742Y-67230171D01*
X109408685Y-67317257D01*
X109350628Y-67375314D01*
X109292571Y-67404342D01*
X109902171Y-67230171D02*
X109902171Y-67723657D01*
X109931200Y-67781714D01*
X109960228Y-67810742D01*
X110018285Y-67839771D01*
X110134400Y-67839771D01*
X110192457Y-67810742D01*
X110221485Y-67781714D01*
X110250514Y-67723657D01*
X110250514Y-67230171D01*
X111121371Y-67230171D02*
X111179428Y-67230171D01*
X111237485Y-67259200D01*
X111266514Y-67288228D01*
X111295542Y-67346285D01*
X111324571Y-67462400D01*
X111324571Y-67607542D01*
X111295542Y-67723657D01*
X111266514Y-67781714D01*
X111237485Y-67810742D01*
X111179428Y-67839771D01*
X111121371Y-67839771D01*
X111063314Y-67810742D01*
X111034285Y-67781714D01*
X111005257Y-67723657D01*
X110976228Y-67607542D01*
X110976228Y-67462400D01*
X111005257Y-67346285D01*
X111034285Y-67288228D01*
X111063314Y-67259200D01*
X111121371Y-67230171D01*
X111847085Y-67433371D02*
X111847085Y-67839771D01*
X111701942Y-67201142D02*
X111556800Y-67636571D01*
X111934171Y-67636571D01*
X112282514Y-67230171D02*
X112340571Y-67230171D01*
X112398628Y-67259200D01*
X112427657Y-67288228D01*
X112456685Y-67346285D01*
X112485714Y-67462400D01*
X112485714Y-67607542D01*
X112456685Y-67723657D01*
X112427657Y-67781714D01*
X112398628Y-67810742D01*
X112340571Y-67839771D01*
X112282514Y-67839771D01*
X112224457Y-67810742D01*
X112195428Y-67781714D01*
X112166400Y-67723657D01*
X112137371Y-67607542D01*
X112137371Y-67462400D01*
X112166400Y-67346285D01*
X112195428Y-67288228D01*
X112224457Y-67259200D01*
X112282514Y-67230171D01*
X112717942Y-67288228D02*
X112746971Y-67259200D01*
X112805028Y-67230171D01*
X112950171Y-67230171D01*
X113008228Y-67259200D01*
X113037257Y-67288228D01*
X113066285Y-67346285D01*
X113066285Y-67404342D01*
X113037257Y-67491428D01*
X112688914Y-67839771D01*
X113066285Y-67839771D01*
D10*
%TO.C,J6*%
X128916266Y-80546960D02*
X128916266Y-81261246D01*
X128868647Y-81404103D01*
X128773409Y-81499341D01*
X128630552Y-81546960D01*
X128535314Y-81546960D01*
X129821028Y-80546960D02*
X129630552Y-80546960D01*
X129535314Y-80594580D01*
X129487695Y-80642199D01*
X129392457Y-80785056D01*
X129344838Y-80975532D01*
X129344838Y-81356484D01*
X129392457Y-81451722D01*
X129440076Y-81499341D01*
X129535314Y-81546960D01*
X129725790Y-81546960D01*
X129821028Y-81499341D01*
X129868647Y-81451722D01*
X129916266Y-81356484D01*
X129916266Y-81118389D01*
X129868647Y-81023151D01*
X129821028Y-80975532D01*
X129725790Y-80927913D01*
X129535314Y-80927913D01*
X129440076Y-80975532D01*
X129392457Y-81023151D01*
X129344838Y-81118389D01*
X127178171Y-78514960D02*
X127178171Y-79324484D01*
X127225790Y-79419722D01*
X127273409Y-79467341D01*
X127368647Y-79514960D01*
X127559123Y-79514960D01*
X127654361Y-79467341D01*
X127701980Y-79419722D01*
X127749600Y-79324484D01*
X127749600Y-78514960D01*
X128178171Y-79467341D02*
X128321028Y-79514960D01*
X128559123Y-79514960D01*
X128654361Y-79467341D01*
X128701980Y-79419722D01*
X128749600Y-79324484D01*
X128749600Y-79229246D01*
X128701980Y-79134008D01*
X128654361Y-79086389D01*
X128559123Y-79038770D01*
X128368647Y-78991151D01*
X128273409Y-78943532D01*
X128225790Y-78895913D01*
X128178171Y-78800675D01*
X128178171Y-78705437D01*
X128225790Y-78610199D01*
X128273409Y-78562580D01*
X128368647Y-78514960D01*
X128606742Y-78514960D01*
X128749600Y-78562580D01*
X129511504Y-78991151D02*
X129654361Y-79038770D01*
X129701980Y-79086389D01*
X129749600Y-79181627D01*
X129749600Y-79324484D01*
X129701980Y-79419722D01*
X129654361Y-79467341D01*
X129559123Y-79514960D01*
X129178171Y-79514960D01*
X129178171Y-78514960D01*
X129511504Y-78514960D01*
X129606742Y-78562580D01*
X129654361Y-78610199D01*
X129701980Y-78705437D01*
X129701980Y-78800675D01*
X129654361Y-78895913D01*
X129606742Y-78943532D01*
X129511504Y-78991151D01*
X129178171Y-78991151D01*
X129940076Y-79610199D02*
X130701980Y-79610199D01*
X130892457Y-79229246D02*
X131368647Y-79229246D01*
X130797219Y-79514960D02*
X131130552Y-78514960D01*
X131463885Y-79514960D01*
X124460000Y-75398380D02*
X124460000Y-75636476D01*
X124221904Y-75541238D02*
X124460000Y-75636476D01*
X124698095Y-75541238D01*
X124317142Y-75826952D02*
X124460000Y-75636476D01*
X124602857Y-75826952D01*
%TO.C,L2*%
X114146033Y-79700380D02*
X113669842Y-79700380D01*
X113669842Y-78700380D01*
X114431747Y-78795619D02*
X114479366Y-78748000D01*
X114574604Y-78700380D01*
X114812700Y-78700380D01*
X114907938Y-78748000D01*
X114955557Y-78795619D01*
X115003176Y-78890857D01*
X115003176Y-78986095D01*
X114955557Y-79128952D01*
X114384128Y-79700380D01*
X115003176Y-79700380D01*
X114312700Y-75720960D02*
X114312700Y-75959056D01*
X114074604Y-75863818D02*
X114312700Y-75959056D01*
X114550795Y-75863818D01*
X114169842Y-76149532D02*
X114312700Y-75959056D01*
X114455557Y-76149532D01*
%TO.C,M1*%
X52027080Y-65267103D02*
X51027080Y-65267103D01*
X51741366Y-64933770D01*
X51027080Y-64600437D01*
X52027080Y-64600437D01*
X52027080Y-63600437D02*
X52027080Y-64171865D01*
X52027080Y-63886151D02*
X51027080Y-63886151D01*
X51169938Y-63981389D01*
X51265176Y-64076627D01*
X51312795Y-64171865D01*
X53582842Y-66632151D02*
X53630461Y-66679770D01*
X53678080Y-66822627D01*
X53678080Y-66917865D01*
X53630461Y-67060722D01*
X53535223Y-67155960D01*
X53439985Y-67203580D01*
X53249509Y-67251199D01*
X53106652Y-67251199D01*
X52916176Y-67203580D01*
X52820938Y-67155960D01*
X52725700Y-67060722D01*
X52678080Y-66917865D01*
X52678080Y-66822627D01*
X52725700Y-66679770D01*
X52773319Y-66632151D01*
X53678080Y-66203580D02*
X52678080Y-66203580D01*
X52678080Y-65822627D01*
X52725700Y-65727389D01*
X52773319Y-65679770D01*
X52868557Y-65632151D01*
X53011414Y-65632151D01*
X53106652Y-65679770D01*
X53154271Y-65727389D01*
X53201890Y-65822627D01*
X53201890Y-66203580D01*
X52678080Y-65203580D02*
X53487604Y-65203580D01*
X53582842Y-65155960D01*
X53630461Y-65108341D01*
X53678080Y-65013103D01*
X53678080Y-64822627D01*
X53630461Y-64727389D01*
X53582842Y-64679770D01*
X53487604Y-64632151D01*
X52678080Y-64632151D01*
X53154271Y-63060722D02*
X53154271Y-63394056D01*
X53678080Y-63394056D02*
X52678080Y-63394056D01*
X52678080Y-62917865D01*
X53678080Y-62108341D02*
X53154271Y-62108341D01*
X53059033Y-62155960D01*
X53011414Y-62251199D01*
X53011414Y-62441675D01*
X53059033Y-62536913D01*
X53630461Y-62108341D02*
X53678080Y-62203580D01*
X53678080Y-62441675D01*
X53630461Y-62536913D01*
X53535223Y-62584532D01*
X53439985Y-62584532D01*
X53344747Y-62536913D01*
X53297128Y-62441675D01*
X53297128Y-62203580D01*
X53249509Y-62108341D01*
X53011414Y-61632151D02*
X53678080Y-61632151D01*
X53106652Y-61632151D02*
X53059033Y-61584532D01*
X53011414Y-61489294D01*
X53011414Y-61346437D01*
X53059033Y-61251199D01*
X53154271Y-61203580D01*
X53678080Y-61203580D01*
X55218080Y-68013580D02*
X55456176Y-68013580D01*
X55360938Y-68251675D02*
X55456176Y-68013580D01*
X55360938Y-67775484D01*
X55646652Y-68156437D02*
X55456176Y-68013580D01*
X55646652Y-67870722D01*
D12*
%TO.C,C2*%
X87339714Y-69697600D02*
X87368742Y-69726628D01*
X87397771Y-69813714D01*
X87397771Y-69871771D01*
X87368742Y-69958857D01*
X87310685Y-70016914D01*
X87252628Y-70045942D01*
X87136514Y-70074971D01*
X87049428Y-70074971D01*
X86933314Y-70045942D01*
X86875257Y-70016914D01*
X86817200Y-69958857D01*
X86788171Y-69871771D01*
X86788171Y-69813714D01*
X86817200Y-69726628D01*
X86846228Y-69697600D01*
X86846228Y-69465371D02*
X86817200Y-69436342D01*
X86788171Y-69378285D01*
X86788171Y-69233142D01*
X86817200Y-69175085D01*
X86846228Y-69146057D01*
X86904285Y-69117028D01*
X86962342Y-69117028D01*
X87049428Y-69146057D01*
X87397771Y-69494400D01*
X87397771Y-69117028D01*
X87804171Y-70249142D02*
X87804171Y-70191085D01*
X87833200Y-70133028D01*
X87862228Y-70104000D01*
X87920285Y-70074971D01*
X88036400Y-70045942D01*
X88181542Y-70045942D01*
X88297657Y-70074971D01*
X88355714Y-70104000D01*
X88384742Y-70133028D01*
X88413771Y-70191085D01*
X88413771Y-70249142D01*
X88384742Y-70307200D01*
X88355714Y-70336228D01*
X88297657Y-70365257D01*
X88181542Y-70394285D01*
X88036400Y-70394285D01*
X87920285Y-70365257D01*
X87862228Y-70336228D01*
X87833200Y-70307200D01*
X87804171Y-70249142D01*
X88355714Y-69784685D02*
X88384742Y-69755657D01*
X88413771Y-69784685D01*
X88384742Y-69813714D01*
X88355714Y-69784685D01*
X88413771Y-69784685D01*
X88413771Y-69175085D02*
X88413771Y-69523428D01*
X88413771Y-69349257D02*
X87804171Y-69349257D01*
X87891257Y-69407314D01*
X87949314Y-69465371D01*
X87978342Y-69523428D01*
X87804171Y-68913828D02*
X88297657Y-68913828D01*
X88355714Y-68884800D01*
X88384742Y-68855771D01*
X88413771Y-68797714D01*
X88413771Y-68681600D01*
X88384742Y-68623542D01*
X88355714Y-68594514D01*
X88297657Y-68565485D01*
X87804171Y-68565485D01*
X87804171Y-67694628D02*
X87804171Y-67636571D01*
X87833200Y-67578514D01*
X87862228Y-67549485D01*
X87920285Y-67520457D01*
X88036400Y-67491428D01*
X88181542Y-67491428D01*
X88297657Y-67520457D01*
X88355714Y-67549485D01*
X88384742Y-67578514D01*
X88413771Y-67636571D01*
X88413771Y-67694628D01*
X88384742Y-67752685D01*
X88355714Y-67781714D01*
X88297657Y-67810742D01*
X88181542Y-67839771D01*
X88036400Y-67839771D01*
X87920285Y-67810742D01*
X87862228Y-67781714D01*
X87833200Y-67752685D01*
X87804171Y-67694628D01*
X88007371Y-66968914D02*
X88413771Y-66968914D01*
X87775142Y-67114057D02*
X88210571Y-67259200D01*
X88210571Y-66881828D01*
X87804171Y-66533485D02*
X87804171Y-66475428D01*
X87833200Y-66417371D01*
X87862228Y-66388342D01*
X87920285Y-66359314D01*
X88036400Y-66330285D01*
X88181542Y-66330285D01*
X88297657Y-66359314D01*
X88355714Y-66388342D01*
X88384742Y-66417371D01*
X88413771Y-66475428D01*
X88413771Y-66533485D01*
X88384742Y-66591542D01*
X88355714Y-66620571D01*
X88297657Y-66649600D01*
X88181542Y-66678628D01*
X88036400Y-66678628D01*
X87920285Y-66649600D01*
X87862228Y-66620571D01*
X87833200Y-66591542D01*
X87804171Y-66533485D01*
X87862228Y-66098057D02*
X87833200Y-66069028D01*
X87804171Y-66010971D01*
X87804171Y-65865828D01*
X87833200Y-65807771D01*
X87862228Y-65778742D01*
X87920285Y-65749714D01*
X87978342Y-65749714D01*
X88065428Y-65778742D01*
X88413771Y-66127085D01*
X88413771Y-65749714D01*
%TO.C,R12*%
X56440614Y-73826551D02*
X56237414Y-73536265D01*
X56092271Y-73826551D02*
X56092271Y-73216951D01*
X56324500Y-73216951D01*
X56382557Y-73245980D01*
X56411585Y-73275008D01*
X56440614Y-73333065D01*
X56440614Y-73420151D01*
X56411585Y-73478208D01*
X56382557Y-73507237D01*
X56324500Y-73536265D01*
X56092271Y-73536265D01*
X57021185Y-73826551D02*
X56672842Y-73826551D01*
X56847014Y-73826551D02*
X56847014Y-73216951D01*
X56788957Y-73304037D01*
X56730900Y-73362094D01*
X56672842Y-73391122D01*
X57253414Y-73275008D02*
X57282442Y-73245980D01*
X57340500Y-73216951D01*
X57485642Y-73216951D01*
X57543700Y-73245980D01*
X57572728Y-73275008D01*
X57601757Y-73333065D01*
X57601757Y-73391122D01*
X57572728Y-73478208D01*
X57224385Y-73826551D01*
X57601757Y-73826551D01*
X54727928Y-71540551D02*
X54379585Y-71540551D01*
X54553757Y-71540551D02*
X54553757Y-70930951D01*
X54495700Y-71018037D01*
X54437642Y-71076094D01*
X54379585Y-71105122D01*
X55105300Y-70930951D02*
X55163357Y-70930951D01*
X55221414Y-70959980D01*
X55250442Y-70989008D01*
X55279471Y-71047065D01*
X55308500Y-71163180D01*
X55308500Y-71308322D01*
X55279471Y-71424437D01*
X55250442Y-71482494D01*
X55221414Y-71511522D01*
X55163357Y-71540551D01*
X55105300Y-71540551D01*
X55047242Y-71511522D01*
X55018214Y-71482494D01*
X54989185Y-71424437D01*
X54960157Y-71308322D01*
X54960157Y-71163180D01*
X54989185Y-71047065D01*
X55018214Y-70989008D01*
X55047242Y-70959980D01*
X55105300Y-70930951D01*
X55685871Y-70930951D02*
X55743928Y-70930951D01*
X55801985Y-70959980D01*
X55831014Y-70989008D01*
X55860042Y-71047065D01*
X55889071Y-71163180D01*
X55889071Y-71308322D01*
X55860042Y-71424437D01*
X55831014Y-71482494D01*
X55801985Y-71511522D01*
X55743928Y-71540551D01*
X55685871Y-71540551D01*
X55627814Y-71511522D01*
X55598785Y-71482494D01*
X55569757Y-71424437D01*
X55540728Y-71308322D01*
X55540728Y-71163180D01*
X55569757Y-71047065D01*
X55598785Y-70989008D01*
X55627814Y-70959980D01*
X55685871Y-70930951D01*
X56150328Y-71540551D02*
X56150328Y-70930951D01*
X56498671Y-71540551D02*
X56237414Y-71192208D01*
X56498671Y-70930951D02*
X56150328Y-71279294D01*
X57340500Y-70930951D02*
X57398557Y-70930951D01*
X57456614Y-70959980D01*
X57485642Y-70989008D01*
X57514671Y-71047065D01*
X57543700Y-71163180D01*
X57543700Y-71308322D01*
X57514671Y-71424437D01*
X57485642Y-71482494D01*
X57456614Y-71511522D01*
X57398557Y-71540551D01*
X57340500Y-71540551D01*
X57282442Y-71511522D01*
X57253414Y-71482494D01*
X57224385Y-71424437D01*
X57195357Y-71308322D01*
X57195357Y-71163180D01*
X57224385Y-71047065D01*
X57253414Y-70989008D01*
X57282442Y-70959980D01*
X57340500Y-70930951D01*
X58066214Y-71134151D02*
X58066214Y-71540551D01*
X57921071Y-70901922D02*
X57775928Y-71337351D01*
X58153300Y-71337351D01*
X58501642Y-70930951D02*
X58559700Y-70930951D01*
X58617757Y-70959980D01*
X58646785Y-70989008D01*
X58675814Y-71047065D01*
X58704842Y-71163180D01*
X58704842Y-71308322D01*
X58675814Y-71424437D01*
X58646785Y-71482494D01*
X58617757Y-71511522D01*
X58559700Y-71540551D01*
X58501642Y-71540551D01*
X58443585Y-71511522D01*
X58414557Y-71482494D01*
X58385528Y-71424437D01*
X58356500Y-71308322D01*
X58356500Y-71163180D01*
X58385528Y-71047065D01*
X58414557Y-70989008D01*
X58443585Y-70959980D01*
X58501642Y-70930951D01*
X58937071Y-70989008D02*
X58966100Y-70959980D01*
X59024157Y-70930951D01*
X59169300Y-70930951D01*
X59227357Y-70959980D01*
X59256385Y-70989008D01*
X59285414Y-71047065D01*
X59285414Y-71105122D01*
X59256385Y-71192208D01*
X58908042Y-71540551D01*
X59285414Y-71540551D01*
%TO.C,C8*%
X108421714Y-60045600D02*
X108450742Y-60074628D01*
X108479771Y-60161714D01*
X108479771Y-60219771D01*
X108450742Y-60306857D01*
X108392685Y-60364914D01*
X108334628Y-60393942D01*
X108218514Y-60422971D01*
X108131428Y-60422971D01*
X108015314Y-60393942D01*
X107957257Y-60364914D01*
X107899200Y-60306857D01*
X107870171Y-60219771D01*
X107870171Y-60161714D01*
X107899200Y-60074628D01*
X107928228Y-60045600D01*
X108131428Y-59697257D02*
X108102400Y-59755314D01*
X108073371Y-59784342D01*
X108015314Y-59813371D01*
X107986285Y-59813371D01*
X107928228Y-59784342D01*
X107899200Y-59755314D01*
X107870171Y-59697257D01*
X107870171Y-59581142D01*
X107899200Y-59523085D01*
X107928228Y-59494057D01*
X107986285Y-59465028D01*
X108015314Y-59465028D01*
X108073371Y-59494057D01*
X108102400Y-59523085D01*
X108131428Y-59581142D01*
X108131428Y-59697257D01*
X108160457Y-59755314D01*
X108189485Y-59784342D01*
X108247542Y-59813371D01*
X108363657Y-59813371D01*
X108421714Y-59784342D01*
X108450742Y-59755314D01*
X108479771Y-59697257D01*
X108479771Y-59581142D01*
X108450742Y-59523085D01*
X108421714Y-59494057D01*
X108363657Y-59465028D01*
X108247542Y-59465028D01*
X108189485Y-59494057D01*
X108160457Y-59523085D01*
X108131428Y-59581142D01*
X109762471Y-63042800D02*
X109762471Y-63391142D01*
X109762471Y-63216971D02*
X109152871Y-63216971D01*
X109239957Y-63275028D01*
X109298014Y-63333085D01*
X109327042Y-63391142D01*
X109152871Y-62665428D02*
X109152871Y-62607371D01*
X109181900Y-62549314D01*
X109210928Y-62520285D01*
X109268985Y-62491257D01*
X109385100Y-62462228D01*
X109530242Y-62462228D01*
X109646357Y-62491257D01*
X109704414Y-62520285D01*
X109733442Y-62549314D01*
X109762471Y-62607371D01*
X109762471Y-62665428D01*
X109733442Y-62723485D01*
X109704414Y-62752514D01*
X109646357Y-62781542D01*
X109530242Y-62810571D01*
X109385100Y-62810571D01*
X109268985Y-62781542D01*
X109210928Y-62752514D01*
X109181900Y-62723485D01*
X109152871Y-62665428D01*
X109152871Y-62200971D02*
X109646357Y-62200971D01*
X109704414Y-62171942D01*
X109733442Y-62142914D01*
X109762471Y-62084857D01*
X109762471Y-61968742D01*
X109733442Y-61910685D01*
X109704414Y-61881657D01*
X109646357Y-61852628D01*
X109152871Y-61852628D01*
X109152871Y-60981771D02*
X109152871Y-60923714D01*
X109181900Y-60865657D01*
X109210928Y-60836628D01*
X109268985Y-60807600D01*
X109385100Y-60778571D01*
X109530242Y-60778571D01*
X109646357Y-60807600D01*
X109704414Y-60836628D01*
X109733442Y-60865657D01*
X109762471Y-60923714D01*
X109762471Y-60981771D01*
X109733442Y-61039828D01*
X109704414Y-61068857D01*
X109646357Y-61097885D01*
X109530242Y-61126914D01*
X109385100Y-61126914D01*
X109268985Y-61097885D01*
X109210928Y-61068857D01*
X109181900Y-61039828D01*
X109152871Y-60981771D01*
X109414128Y-60430228D02*
X109385100Y-60488285D01*
X109356071Y-60517314D01*
X109298014Y-60546342D01*
X109268985Y-60546342D01*
X109210928Y-60517314D01*
X109181900Y-60488285D01*
X109152871Y-60430228D01*
X109152871Y-60314114D01*
X109181900Y-60256057D01*
X109210928Y-60227028D01*
X109268985Y-60198000D01*
X109298014Y-60198000D01*
X109356071Y-60227028D01*
X109385100Y-60256057D01*
X109414128Y-60314114D01*
X109414128Y-60430228D01*
X109443157Y-60488285D01*
X109472185Y-60517314D01*
X109530242Y-60546342D01*
X109646357Y-60546342D01*
X109704414Y-60517314D01*
X109733442Y-60488285D01*
X109762471Y-60430228D01*
X109762471Y-60314114D01*
X109733442Y-60256057D01*
X109704414Y-60227028D01*
X109646357Y-60198000D01*
X109530242Y-60198000D01*
X109472185Y-60227028D01*
X109443157Y-60256057D01*
X109414128Y-60314114D01*
X109152871Y-59820628D02*
X109152871Y-59762571D01*
X109181900Y-59704514D01*
X109210928Y-59675485D01*
X109268985Y-59646457D01*
X109385100Y-59617428D01*
X109530242Y-59617428D01*
X109646357Y-59646457D01*
X109704414Y-59675485D01*
X109733442Y-59704514D01*
X109762471Y-59762571D01*
X109762471Y-59820628D01*
X109733442Y-59878685D01*
X109704414Y-59907714D01*
X109646357Y-59936742D01*
X109530242Y-59965771D01*
X109385100Y-59965771D01*
X109268985Y-59936742D01*
X109210928Y-59907714D01*
X109181900Y-59878685D01*
X109152871Y-59820628D01*
X109152871Y-59065885D02*
X109152871Y-59356171D01*
X109443157Y-59385200D01*
X109414128Y-59356171D01*
X109385100Y-59298114D01*
X109385100Y-59152971D01*
X109414128Y-59094914D01*
X109443157Y-59065885D01*
X109501214Y-59036857D01*
X109646357Y-59036857D01*
X109704414Y-59065885D01*
X109733442Y-59094914D01*
X109762471Y-59152971D01*
X109762471Y-59298114D01*
X109733442Y-59356171D01*
X109704414Y-59385200D01*
%TO.C,C14*%
X125947714Y-63383885D02*
X125976742Y-63412914D01*
X126005771Y-63500000D01*
X126005771Y-63558057D01*
X125976742Y-63645142D01*
X125918685Y-63703200D01*
X125860628Y-63732228D01*
X125744514Y-63761257D01*
X125657428Y-63761257D01*
X125541314Y-63732228D01*
X125483257Y-63703200D01*
X125425200Y-63645142D01*
X125396171Y-63558057D01*
X125396171Y-63500000D01*
X125425200Y-63412914D01*
X125454228Y-63383885D01*
X126005771Y-62803314D02*
X126005771Y-63151657D01*
X126005771Y-62977485D02*
X125396171Y-62977485D01*
X125483257Y-63035542D01*
X125541314Y-63093600D01*
X125570342Y-63151657D01*
X125599371Y-62280800D02*
X126005771Y-62280800D01*
X125367142Y-62425942D02*
X125802571Y-62571085D01*
X125802571Y-62193714D01*
X126666171Y-66185142D02*
X126666171Y-66127085D01*
X126695200Y-66069028D01*
X126724228Y-66040000D01*
X126782285Y-66010971D01*
X126898400Y-65981942D01*
X127043542Y-65981942D01*
X127159657Y-66010971D01*
X127217714Y-66040000D01*
X127246742Y-66069028D01*
X127275771Y-66127085D01*
X127275771Y-66185142D01*
X127246742Y-66243200D01*
X127217714Y-66272228D01*
X127159657Y-66301257D01*
X127043542Y-66330285D01*
X126898400Y-66330285D01*
X126782285Y-66301257D01*
X126724228Y-66272228D01*
X126695200Y-66243200D01*
X126666171Y-66185142D01*
X127217714Y-65720685D02*
X127246742Y-65691657D01*
X127275771Y-65720685D01*
X127246742Y-65749714D01*
X127217714Y-65720685D01*
X127275771Y-65720685D01*
X127275771Y-65111085D02*
X127275771Y-65459428D01*
X127275771Y-65285257D02*
X126666171Y-65285257D01*
X126753257Y-65343314D01*
X126811314Y-65401371D01*
X126840342Y-65459428D01*
X126666171Y-64849828D02*
X127159657Y-64849828D01*
X127217714Y-64820800D01*
X127246742Y-64791771D01*
X127275771Y-64733714D01*
X127275771Y-64617600D01*
X127246742Y-64559542D01*
X127217714Y-64530514D01*
X127159657Y-64501485D01*
X126666171Y-64501485D01*
X126666171Y-63630628D02*
X126666171Y-63572571D01*
X126695200Y-63514514D01*
X126724228Y-63485485D01*
X126782285Y-63456457D01*
X126898400Y-63427428D01*
X127043542Y-63427428D01*
X127159657Y-63456457D01*
X127217714Y-63485485D01*
X127246742Y-63514514D01*
X127275771Y-63572571D01*
X127275771Y-63630628D01*
X127246742Y-63688685D01*
X127217714Y-63717714D01*
X127159657Y-63746742D01*
X127043542Y-63775771D01*
X126898400Y-63775771D01*
X126782285Y-63746742D01*
X126724228Y-63717714D01*
X126695200Y-63688685D01*
X126666171Y-63630628D01*
X126869371Y-62904914D02*
X127275771Y-62904914D01*
X126637142Y-63050057D02*
X127072571Y-63195200D01*
X127072571Y-62817828D01*
X126666171Y-62469485D02*
X126666171Y-62411428D01*
X126695200Y-62353371D01*
X126724228Y-62324342D01*
X126782285Y-62295314D01*
X126898400Y-62266285D01*
X127043542Y-62266285D01*
X127159657Y-62295314D01*
X127217714Y-62324342D01*
X127246742Y-62353371D01*
X127275771Y-62411428D01*
X127275771Y-62469485D01*
X127246742Y-62527542D01*
X127217714Y-62556571D01*
X127159657Y-62585600D01*
X127043542Y-62614628D01*
X126898400Y-62614628D01*
X126782285Y-62585600D01*
X126724228Y-62556571D01*
X126695200Y-62527542D01*
X126666171Y-62469485D01*
X126724228Y-62034057D02*
X126695200Y-62005028D01*
X126666171Y-61946971D01*
X126666171Y-61801828D01*
X126695200Y-61743771D01*
X126724228Y-61714742D01*
X126782285Y-61685714D01*
X126840342Y-61685714D01*
X126927428Y-61714742D01*
X127275771Y-62063085D01*
X127275771Y-61685714D01*
%TO.C,R1*%
X92109471Y-69639180D02*
X91819185Y-69842380D01*
X92109471Y-69987522D02*
X91499871Y-69987522D01*
X91499871Y-69755294D01*
X91528900Y-69697237D01*
X91557928Y-69668208D01*
X91615985Y-69639180D01*
X91703071Y-69639180D01*
X91761128Y-69668208D01*
X91790157Y-69697237D01*
X91819185Y-69755294D01*
X91819185Y-69987522D01*
X92109471Y-69058608D02*
X92109471Y-69406951D01*
X92109471Y-69232780D02*
X91499871Y-69232780D01*
X91586957Y-69290837D01*
X91645014Y-69348894D01*
X91674042Y-69406951D01*
X92376171Y-70437465D02*
X92376171Y-70379408D01*
X92405200Y-70321351D01*
X92434228Y-70292322D01*
X92492285Y-70263294D01*
X92608400Y-70234265D01*
X92753542Y-70234265D01*
X92869657Y-70263294D01*
X92927714Y-70292322D01*
X92956742Y-70321351D01*
X92985771Y-70379408D01*
X92985771Y-70437465D01*
X92956742Y-70495522D01*
X92927714Y-70524551D01*
X92869657Y-70553580D01*
X92753542Y-70582608D01*
X92608400Y-70582608D01*
X92492285Y-70553580D01*
X92434228Y-70524551D01*
X92405200Y-70495522D01*
X92376171Y-70437465D01*
X92579371Y-69711751D02*
X92985771Y-69711751D01*
X92347142Y-69856894D02*
X92782571Y-70002037D01*
X92782571Y-69624665D01*
X92376171Y-69276322D02*
X92376171Y-69218265D01*
X92405200Y-69160208D01*
X92434228Y-69131180D01*
X92492285Y-69102151D01*
X92608400Y-69073122D01*
X92753542Y-69073122D01*
X92869657Y-69102151D01*
X92927714Y-69131180D01*
X92956742Y-69160208D01*
X92985771Y-69218265D01*
X92985771Y-69276322D01*
X92956742Y-69334380D01*
X92927714Y-69363408D01*
X92869657Y-69392437D01*
X92753542Y-69421465D01*
X92608400Y-69421465D01*
X92492285Y-69392437D01*
X92434228Y-69363408D01*
X92405200Y-69334380D01*
X92376171Y-69276322D01*
X92434228Y-68840894D02*
X92405200Y-68811865D01*
X92376171Y-68753808D01*
X92376171Y-68608665D01*
X92405200Y-68550608D01*
X92434228Y-68521580D01*
X92492285Y-68492551D01*
X92550342Y-68492551D01*
X92637428Y-68521580D01*
X92985771Y-68869922D01*
X92985771Y-68492551D01*
D10*
%TO.C,Q3*%
X132566559Y-39310818D02*
X132518940Y-39406056D01*
X132423701Y-39501294D01*
X132280844Y-39644151D01*
X132233225Y-39739389D01*
X132233225Y-39834627D01*
X132471320Y-39787008D02*
X132423701Y-39882246D01*
X132328463Y-39977484D01*
X132137987Y-40025103D01*
X131804654Y-40025103D01*
X131614178Y-39977484D01*
X131518940Y-39882246D01*
X131471320Y-39787008D01*
X131471320Y-39596532D01*
X131518940Y-39501294D01*
X131614178Y-39406056D01*
X131804654Y-39358437D01*
X132137987Y-39358437D01*
X132328463Y-39406056D01*
X132423701Y-39501294D01*
X132471320Y-39596532D01*
X132471320Y-39787008D01*
X131471320Y-39025103D02*
X131471320Y-38406056D01*
X131852273Y-38739389D01*
X131852273Y-38596532D01*
X131899892Y-38501294D01*
X131947511Y-38453675D01*
X132042749Y-38406056D01*
X132280844Y-38406056D01*
X132376082Y-38453675D01*
X132423701Y-38501294D01*
X132471320Y-38596532D01*
X132471320Y-38882246D01*
X132423701Y-38977484D01*
X132376082Y-39025103D01*
%TO.C,U5*%
X67818095Y-40092380D02*
X67818095Y-40901904D01*
X67865714Y-40997142D01*
X67913333Y-41044761D01*
X68008571Y-41092380D01*
X68199047Y-41092380D01*
X68294285Y-41044761D01*
X68341904Y-40997142D01*
X68389523Y-40901904D01*
X68389523Y-40092380D01*
X69341904Y-40092380D02*
X68865714Y-40092380D01*
X68818095Y-40568571D01*
X68865714Y-40520952D01*
X68960952Y-40473333D01*
X69199047Y-40473333D01*
X69294285Y-40520952D01*
X69341904Y-40568571D01*
X69389523Y-40663809D01*
X69389523Y-40901904D01*
X69341904Y-40997142D01*
X69294285Y-41044761D01*
X69199047Y-41092380D01*
X68960952Y-41092380D01*
X68865714Y-41044761D01*
X68818095Y-40997142D01*
D12*
%TO.C,D1*%
X121470057Y-38629771D02*
X121470057Y-38020171D01*
X121615200Y-38020171D01*
X121702285Y-38049200D01*
X121760342Y-38107257D01*
X121789371Y-38165314D01*
X121818400Y-38281428D01*
X121818400Y-38368514D01*
X121789371Y-38484628D01*
X121760342Y-38542685D01*
X121702285Y-38600742D01*
X121615200Y-38629771D01*
X121470057Y-38629771D01*
X122398971Y-38629771D02*
X122050628Y-38629771D01*
X122224800Y-38629771D02*
X122224800Y-38020171D01*
X122166742Y-38107257D01*
X122108685Y-38165314D01*
X122050628Y-38194342D01*
X118015657Y-39616742D02*
X118102742Y-39645771D01*
X118247885Y-39645771D01*
X118305942Y-39616742D01*
X118334971Y-39587714D01*
X118364000Y-39529657D01*
X118364000Y-39471600D01*
X118334971Y-39413542D01*
X118305942Y-39384514D01*
X118247885Y-39355485D01*
X118131771Y-39326457D01*
X118073714Y-39297428D01*
X118044685Y-39268400D01*
X118015657Y-39210342D01*
X118015657Y-39152285D01*
X118044685Y-39094228D01*
X118073714Y-39065200D01*
X118131771Y-39036171D01*
X118276914Y-39036171D01*
X118364000Y-39065200D01*
X118538171Y-39239371D02*
X118770400Y-39239371D01*
X118625257Y-39036171D02*
X118625257Y-39558685D01*
X118654285Y-39616742D01*
X118712342Y-39645771D01*
X118770400Y-39645771D01*
X119234857Y-39645771D02*
X119234857Y-39326457D01*
X119205828Y-39268400D01*
X119147771Y-39239371D01*
X119031657Y-39239371D01*
X118973600Y-39268400D01*
X119234857Y-39616742D02*
X119176800Y-39645771D01*
X119031657Y-39645771D01*
X118973600Y-39616742D01*
X118944571Y-39558685D01*
X118944571Y-39500628D01*
X118973600Y-39442571D01*
X119031657Y-39413542D01*
X119176800Y-39413542D01*
X119234857Y-39384514D01*
X119438057Y-39239371D02*
X119670285Y-39239371D01*
X119525142Y-39036171D02*
X119525142Y-39558685D01*
X119554171Y-39616742D01*
X119612228Y-39645771D01*
X119670285Y-39645771D01*
X120134742Y-39239371D02*
X120134742Y-39645771D01*
X119873485Y-39239371D02*
X119873485Y-39558685D01*
X119902514Y-39616742D01*
X119960571Y-39645771D01*
X120047657Y-39645771D01*
X120105714Y-39616742D01*
X120134742Y-39587714D01*
X120396000Y-39616742D02*
X120454057Y-39645771D01*
X120570171Y-39645771D01*
X120628228Y-39616742D01*
X120657257Y-39558685D01*
X120657257Y-39529657D01*
X120628228Y-39471600D01*
X120570171Y-39442571D01*
X120483085Y-39442571D01*
X120425028Y-39413542D01*
X120396000Y-39355485D01*
X120396000Y-39326457D01*
X120425028Y-39268400D01*
X120483085Y-39239371D01*
X120570171Y-39239371D01*
X120628228Y-39268400D01*
X121673257Y-39645771D02*
X121382971Y-39645771D01*
X121382971Y-39036171D01*
X121876457Y-39326457D02*
X122079657Y-39326457D01*
X122166742Y-39645771D02*
X121876457Y-39645771D01*
X121876457Y-39036171D01*
X122166742Y-39036171D01*
X122428000Y-39645771D02*
X122428000Y-39036171D01*
X122573142Y-39036171D01*
X122660228Y-39065200D01*
X122718285Y-39123257D01*
X122747314Y-39181314D01*
X122776342Y-39297428D01*
X122776342Y-39384514D01*
X122747314Y-39500628D01*
X122718285Y-39558685D01*
X122660228Y-39616742D01*
X122573142Y-39645771D01*
X122428000Y-39645771D01*
D10*
%TO.C,L1*%
X117435333Y-74620380D02*
X116959142Y-74620380D01*
X116959142Y-73620380D01*
X118292476Y-74620380D02*
X117721047Y-74620380D01*
X118006761Y-74620380D02*
X118006761Y-73620380D01*
X117911523Y-73763238D01*
X117816285Y-73858476D01*
X117721047Y-73906095D01*
X117487700Y-70513960D02*
X117487700Y-70752056D01*
X117249604Y-70656818D02*
X117487700Y-70752056D01*
X117725795Y-70656818D01*
X117344842Y-70942532D02*
X117487700Y-70752056D01*
X117630557Y-70942532D01*
D11*
%TO.C,C16*%
X101994607Y-66039093D02*
X102013355Y-66057841D01*
X102032102Y-66114084D01*
X102032102Y-66151579D01*
X102013355Y-66207822D01*
X101975859Y-66245317D01*
X101938364Y-66264065D01*
X101863373Y-66282813D01*
X101807130Y-66282813D01*
X101732140Y-66264065D01*
X101694644Y-66245317D01*
X101657149Y-66207822D01*
X101638401Y-66151579D01*
X101638401Y-66114084D01*
X101657149Y-66057841D01*
X101675897Y-66039093D01*
X102032102Y-65664140D02*
X102032102Y-65889112D01*
X102032102Y-65776626D02*
X101638401Y-65776626D01*
X101694644Y-65814121D01*
X101732140Y-65851616D01*
X101750887Y-65889112D01*
X101638401Y-65326682D02*
X101638401Y-65401672D01*
X101657149Y-65439168D01*
X101675897Y-65457915D01*
X101732140Y-65495411D01*
X101807130Y-65514158D01*
X101957112Y-65514158D01*
X101994607Y-65495411D01*
X102013355Y-65476663D01*
X102032102Y-65439168D01*
X102032102Y-65364177D01*
X102013355Y-65326682D01*
X101994607Y-65307934D01*
X101957112Y-65289186D01*
X101863373Y-65289186D01*
X101825878Y-65307934D01*
X101807130Y-65326682D01*
X101788383Y-65364177D01*
X101788383Y-65439168D01*
X101807130Y-65476663D01*
X101825878Y-65495411D01*
X101863373Y-65514158D01*
D10*
%TO.C,J4*%
X142427366Y-47399960D02*
X142427366Y-48114246D01*
X142379747Y-48257103D01*
X142284509Y-48352341D01*
X142141652Y-48399960D01*
X142046414Y-48399960D01*
X143332128Y-47733294D02*
X143332128Y-48399960D01*
X143094033Y-47352341D02*
X142855938Y-48066627D01*
X143474985Y-48066627D01*
X139665461Y-49146151D02*
X139808319Y-49193770D01*
X139855938Y-49241389D01*
X139903557Y-49336627D01*
X139903557Y-49479484D01*
X139855938Y-49574722D01*
X139808319Y-49622341D01*
X139713080Y-49669960D01*
X139332128Y-49669960D01*
X139332128Y-48669960D01*
X139665461Y-48669960D01*
X139760700Y-48717580D01*
X139808319Y-48765199D01*
X139855938Y-48860437D01*
X139855938Y-48955675D01*
X139808319Y-49050913D01*
X139760700Y-49098532D01*
X139665461Y-49146151D01*
X139332128Y-49146151D01*
X140474985Y-49669960D02*
X140379747Y-49622341D01*
X140332128Y-49574722D01*
X140284509Y-49479484D01*
X140284509Y-49193770D01*
X140332128Y-49098532D01*
X140379747Y-49050913D01*
X140474985Y-49003294D01*
X140617842Y-49003294D01*
X140713080Y-49050913D01*
X140760700Y-49098532D01*
X140808319Y-49193770D01*
X140808319Y-49479484D01*
X140760700Y-49574722D01*
X140713080Y-49622341D01*
X140617842Y-49669960D01*
X140474985Y-49669960D01*
X141379747Y-49669960D02*
X141284509Y-49622341D01*
X141236890Y-49574722D01*
X141189271Y-49479484D01*
X141189271Y-49193770D01*
X141236890Y-49098532D01*
X141284509Y-49050913D01*
X141379747Y-49003294D01*
X141522604Y-49003294D01*
X141617842Y-49050913D01*
X141665461Y-49098532D01*
X141713080Y-49193770D01*
X141713080Y-49479484D01*
X141665461Y-49574722D01*
X141617842Y-49622341D01*
X141522604Y-49669960D01*
X141379747Y-49669960D01*
X141998795Y-49003294D02*
X142379747Y-49003294D01*
X142141652Y-48669960D02*
X142141652Y-49527103D01*
X142189271Y-49622341D01*
X142284509Y-49669960D01*
X142379747Y-49669960D01*
X143474985Y-49669960D02*
X143474985Y-48669960D01*
X143855938Y-48669960D01*
X143951176Y-48717580D01*
X143998795Y-48765199D01*
X144046414Y-48860437D01*
X144046414Y-49003294D01*
X143998795Y-49098532D01*
X143951176Y-49146151D01*
X143855938Y-49193770D01*
X143474985Y-49193770D01*
X144474985Y-49669960D02*
X144474985Y-49003294D01*
X144474985Y-48669960D02*
X144427366Y-48717580D01*
X144474985Y-48765199D01*
X144522604Y-48717580D01*
X144474985Y-48669960D01*
X144474985Y-48765199D01*
X144951176Y-49003294D02*
X144951176Y-49669960D01*
X144951176Y-49098532D02*
X144998795Y-49050913D01*
X145094033Y-49003294D01*
X145236890Y-49003294D01*
X145332128Y-49050913D01*
X145379747Y-49146151D01*
X145379747Y-49669960D01*
X145808319Y-49622341D02*
X145903557Y-49669960D01*
X146094033Y-49669960D01*
X146189271Y-49622341D01*
X146236890Y-49527103D01*
X146236890Y-49479484D01*
X146189271Y-49384246D01*
X146094033Y-49336627D01*
X145951176Y-49336627D01*
X145855938Y-49289008D01*
X145808319Y-49193770D01*
X145808319Y-49146151D01*
X145855938Y-49050913D01*
X145951176Y-49003294D01*
X146094033Y-49003294D01*
X146189271Y-49050913D01*
X138176000Y-49998380D02*
X138176000Y-50236476D01*
X137937904Y-50141238D02*
X138176000Y-50236476D01*
X138414095Y-50141238D01*
X138033142Y-50426952D02*
X138176000Y-50236476D01*
X138318857Y-50426952D01*
D12*
%TO.C,R4*%
X106337100Y-65622351D02*
X106133900Y-65332065D01*
X105988757Y-65622351D02*
X105988757Y-65012751D01*
X106220985Y-65012751D01*
X106279042Y-65041780D01*
X106308071Y-65070808D01*
X106337100Y-65128865D01*
X106337100Y-65215951D01*
X106308071Y-65274008D01*
X106279042Y-65303037D01*
X106220985Y-65332065D01*
X105988757Y-65332065D01*
X106859614Y-65215951D02*
X106859614Y-65622351D01*
X106714471Y-64983722D02*
X106569328Y-65419151D01*
X106946700Y-65419151D01*
X103305428Y-67908351D02*
X102957085Y-67908351D01*
X103131257Y-67908351D02*
X103131257Y-67298751D01*
X103073200Y-67385837D01*
X103015142Y-67443894D01*
X102957085Y-67472922D01*
X103682800Y-67298751D02*
X103740857Y-67298751D01*
X103798914Y-67327780D01*
X103827942Y-67356808D01*
X103856971Y-67414865D01*
X103886000Y-67530980D01*
X103886000Y-67676122D01*
X103856971Y-67792237D01*
X103827942Y-67850294D01*
X103798914Y-67879322D01*
X103740857Y-67908351D01*
X103682800Y-67908351D01*
X103624742Y-67879322D01*
X103595714Y-67850294D01*
X103566685Y-67792237D01*
X103537657Y-67676122D01*
X103537657Y-67530980D01*
X103566685Y-67414865D01*
X103595714Y-67356808D01*
X103624742Y-67327780D01*
X103682800Y-67298751D01*
X104263371Y-67298751D02*
X104321428Y-67298751D01*
X104379485Y-67327780D01*
X104408514Y-67356808D01*
X104437542Y-67414865D01*
X104466571Y-67530980D01*
X104466571Y-67676122D01*
X104437542Y-67792237D01*
X104408514Y-67850294D01*
X104379485Y-67879322D01*
X104321428Y-67908351D01*
X104263371Y-67908351D01*
X104205314Y-67879322D01*
X104176285Y-67850294D01*
X104147257Y-67792237D01*
X104118228Y-67676122D01*
X104118228Y-67530980D01*
X104147257Y-67414865D01*
X104176285Y-67356808D01*
X104205314Y-67327780D01*
X104263371Y-67298751D01*
X104727828Y-67908351D02*
X104727828Y-67298751D01*
X105076171Y-67908351D02*
X104814914Y-67560008D01*
X105076171Y-67298751D02*
X104727828Y-67647094D01*
X105918000Y-67298751D02*
X105976057Y-67298751D01*
X106034114Y-67327780D01*
X106063142Y-67356808D01*
X106092171Y-67414865D01*
X106121200Y-67530980D01*
X106121200Y-67676122D01*
X106092171Y-67792237D01*
X106063142Y-67850294D01*
X106034114Y-67879322D01*
X105976057Y-67908351D01*
X105918000Y-67908351D01*
X105859942Y-67879322D01*
X105830914Y-67850294D01*
X105801885Y-67792237D01*
X105772857Y-67676122D01*
X105772857Y-67530980D01*
X105801885Y-67414865D01*
X105830914Y-67356808D01*
X105859942Y-67327780D01*
X105918000Y-67298751D01*
X106643714Y-67501951D02*
X106643714Y-67908351D01*
X106498571Y-67269722D02*
X106353428Y-67705151D01*
X106730800Y-67705151D01*
X107079142Y-67298751D02*
X107137200Y-67298751D01*
X107195257Y-67327780D01*
X107224285Y-67356808D01*
X107253314Y-67414865D01*
X107282342Y-67530980D01*
X107282342Y-67676122D01*
X107253314Y-67792237D01*
X107224285Y-67850294D01*
X107195257Y-67879322D01*
X107137200Y-67908351D01*
X107079142Y-67908351D01*
X107021085Y-67879322D01*
X106992057Y-67850294D01*
X106963028Y-67792237D01*
X106934000Y-67676122D01*
X106934000Y-67530980D01*
X106963028Y-67414865D01*
X106992057Y-67356808D01*
X107021085Y-67327780D01*
X107079142Y-67298751D01*
X107514571Y-67356808D02*
X107543600Y-67327780D01*
X107601657Y-67298751D01*
X107746800Y-67298751D01*
X107804857Y-67327780D01*
X107833885Y-67356808D01*
X107862914Y-67414865D01*
X107862914Y-67472922D01*
X107833885Y-67560008D01*
X107485542Y-67908351D01*
X107862914Y-67908351D01*
D11*
%TO.C,C15*%
X74054607Y-67055093D02*
X74073355Y-67073841D01*
X74092102Y-67130084D01*
X74092102Y-67167579D01*
X74073355Y-67223822D01*
X74035859Y-67261317D01*
X73998364Y-67280065D01*
X73923373Y-67298813D01*
X73867130Y-67298813D01*
X73792140Y-67280065D01*
X73754644Y-67261317D01*
X73717149Y-67223822D01*
X73698401Y-67167579D01*
X73698401Y-67130084D01*
X73717149Y-67073841D01*
X73735897Y-67055093D01*
X74092102Y-66680140D02*
X74092102Y-66905112D01*
X74092102Y-66792626D02*
X73698401Y-66792626D01*
X73754644Y-66830121D01*
X73792140Y-66867616D01*
X73810887Y-66905112D01*
X73698401Y-66323934D02*
X73698401Y-66511411D01*
X73885878Y-66530158D01*
X73867130Y-66511411D01*
X73848383Y-66473915D01*
X73848383Y-66380177D01*
X73867130Y-66342682D01*
X73885878Y-66323934D01*
X73923373Y-66305186D01*
X74017112Y-66305186D01*
X74054607Y-66323934D01*
X74073355Y-66342682D01*
X74092102Y-66380177D01*
X74092102Y-66473915D01*
X74073355Y-66511411D01*
X74054607Y-66530158D01*
D10*
%TO.C,U6*%
X129286095Y-71842380D02*
X129286095Y-72651904D01*
X129333714Y-72747142D01*
X129381333Y-72794761D01*
X129476571Y-72842380D01*
X129667047Y-72842380D01*
X129762285Y-72794761D01*
X129809904Y-72747142D01*
X129857523Y-72651904D01*
X129857523Y-71842380D01*
X130762285Y-71842380D02*
X130571809Y-71842380D01*
X130476571Y-71890000D01*
X130428952Y-71937619D01*
X130333714Y-72080476D01*
X130286095Y-72270952D01*
X130286095Y-72651904D01*
X130333714Y-72747142D01*
X130381333Y-72794761D01*
X130476571Y-72842380D01*
X130667047Y-72842380D01*
X130762285Y-72794761D01*
X130809904Y-72747142D01*
X130857523Y-72651904D01*
X130857523Y-72413809D01*
X130809904Y-72318571D01*
X130762285Y-72270952D01*
X130667047Y-72223333D01*
X130476571Y-72223333D01*
X130381333Y-72270952D01*
X130333714Y-72318571D01*
X130286095Y-72413809D01*
X126522201Y-70113960D02*
X126522201Y-70352056D01*
X126284105Y-70256818D02*
X126522201Y-70352056D01*
X126760296Y-70256818D01*
X126379343Y-70542532D02*
X126522201Y-70352056D01*
X126665058Y-70542532D01*
X126522201Y-70113960D02*
X126522201Y-70352056D01*
X126284105Y-70256818D02*
X126522201Y-70352056D01*
X126760296Y-70256818D01*
X126379343Y-70542532D02*
X126522201Y-70352056D01*
X126665058Y-70542532D01*
D13*
%TO.C,J1*%
X71095144Y-80409278D02*
X71095144Y-80040480D01*
X61900344Y-86635082D02*
X61900344Y-89768679D01*
X71095144Y-80040480D02*
X61900344Y-80040480D01*
X61900344Y-89768679D02*
X71095144Y-89768679D01*
X71095144Y-84149879D02*
X71095144Y-83605681D01*
X61900344Y-83605687D02*
X61900344Y-84149879D01*
X71095144Y-89768679D02*
X71095144Y-86635082D01*
X61900344Y-80040480D02*
X61900344Y-80409274D01*
D12*
%TO.C,C17*%
X95478700Y-73662580D02*
X94538700Y-73662580D01*
X95478700Y-71762580D02*
X94538700Y-71762580D01*
%TO.C,C9*%
X120723700Y-58653580D02*
X120723700Y-59593580D01*
X118823700Y-58653580D02*
X118823700Y-59593580D01*
D14*
%TO.C,R3*%
X76395580Y-84061300D02*
X76791820Y-84061300D01*
X76395580Y-83461860D02*
X76791820Y-83461860D01*
X76791820Y-84061300D02*
X76791820Y-83461860D01*
X76395580Y-84061300D02*
X76395580Y-83461860D01*
%TO.C,R5*%
X100804980Y-74561700D02*
X101404420Y-74561700D01*
X100804980Y-74165460D02*
X100804980Y-74561700D01*
X100804980Y-74165460D02*
X101404420Y-74165460D01*
X101404420Y-74165460D02*
X101404420Y-74561700D01*
%TO.C,R8*%
X102430580Y-38722300D02*
X102430580Y-38122860D01*
X102826820Y-38722300D02*
X102826820Y-38122860D01*
X102430580Y-38122860D02*
X102826820Y-38122860D01*
X102430580Y-38722300D02*
X102826820Y-38722300D01*
%TO.C,R2*%
X83370420Y-68069460D02*
X83370420Y-68465700D01*
X82770980Y-68069460D02*
X83370420Y-68069460D01*
X82770980Y-68069460D02*
X82770980Y-68465700D01*
X82770980Y-68465700D02*
X83370420Y-68465700D01*
D13*
%TO.C,U2*%
X85699600Y-76433680D02*
X85699600Y-74833480D01*
X83235800Y-74833480D02*
X83235800Y-76433680D01*
D14*
%TO.C,R6*%
X114622580Y-37868860D02*
X115018820Y-37868860D01*
X115018820Y-38468300D02*
X115018820Y-37868860D01*
X114622580Y-38468300D02*
X115018820Y-38468300D01*
X114622580Y-38468300D02*
X114622580Y-37868860D01*
%TO.C,R14*%
X100423980Y-86611460D02*
X101023420Y-86611460D01*
X101023420Y-86611460D02*
X101023420Y-87007700D01*
X100423980Y-86611460D02*
X100423980Y-87007700D01*
X100423980Y-87007700D02*
X101023420Y-87007700D01*
%TO.C,C11*%
X95216980Y-62989460D02*
X95216980Y-63385700D01*
X95216980Y-63385700D02*
X95816420Y-63385700D01*
X95216980Y-62989460D02*
X95816420Y-62989460D01*
X95816420Y-62989460D02*
X95816420Y-63385700D01*
D12*
%TO.C,U4*%
X93402700Y-58277580D02*
X92042700Y-58277580D01*
X93402700Y-60477580D02*
X92042700Y-60477580D01*
X94634503Y-60477580D02*
G75*
G03*
X94634503Y-60477580I-111803J0D01*
G01*
D14*
%TO.C,C1*%
X85402420Y-65783460D02*
X85402420Y-66179700D01*
X84802980Y-66179700D02*
X85402420Y-66179700D01*
X84802980Y-65783460D02*
X84802980Y-66179700D01*
X84802980Y-65783460D02*
X85402420Y-65783460D01*
D13*
%TO.C,U3*%
X105065700Y-72290580D02*
X108065700Y-72290580D01*
X106565700Y-69070580D02*
X108065700Y-69070580D01*
%TO.C,J7*%
X105562400Y-87253600D02*
X105562400Y-89743280D01*
X105562400Y-89743280D02*
X113665000Y-89743280D01*
X113665000Y-89743280D02*
X113665000Y-87253600D01*
X113665000Y-86144163D02*
X113665000Y-85276159D01*
X111680861Y-83621881D02*
X111449640Y-83621881D01*
X107777760Y-83621881D02*
X107546539Y-83621881D01*
X105562400Y-85276159D02*
X105562400Y-86144163D01*
D14*
%TO.C,C13*%
X81744820Y-60693300D02*
X81348580Y-60693300D01*
X81348580Y-60093860D02*
X81348580Y-60693300D01*
X81744820Y-60093860D02*
X81348580Y-60093860D01*
X81744820Y-60093860D02*
X81744820Y-60693300D01*
%TO.C,R13*%
X56725820Y-75816460D02*
X56725820Y-76415900D01*
X56725820Y-76415900D02*
X56329580Y-76415900D01*
X56329580Y-75816460D02*
X56329580Y-76415900D01*
X56725820Y-75816460D02*
X56329580Y-75816460D01*
D12*
%TO.C,F1*%
X68984700Y-75642080D02*
X73534700Y-75642080D01*
X73534700Y-71815080D02*
X68984700Y-71815080D01*
%TO.C,C3*%
X77543700Y-76814580D02*
X77543700Y-77754580D01*
X75643700Y-76814580D02*
X75643700Y-77754580D01*
D15*
%TO.C,Q4*%
X126219460Y-38386580D02*
X126419460Y-38586580D01*
X126419460Y-38586580D02*
X126419460Y-39036580D01*
X126419460Y-39036580D02*
X126619460Y-39036580D01*
X125919460Y-38386580D02*
X126219460Y-38386580D01*
%TO.C,Q1*%
X82779700Y-73008340D02*
X82329700Y-73008340D01*
X82979700Y-72808340D02*
X82779700Y-73008340D01*
X82979700Y-72508340D02*
X82979700Y-72808340D01*
X82329700Y-73008340D02*
X82329700Y-73208340D01*
%TO.C,Q5*%
X117720700Y-83465820D02*
X117720700Y-83265820D01*
X117070700Y-83665820D02*
X117270700Y-83465820D01*
X117270700Y-83465820D02*
X117720700Y-83465820D01*
X117070700Y-83965820D02*
X117070700Y-83665820D01*
D13*
%TO.C,U1*%
X89592440Y-65003580D02*
X90666700Y-65003580D01*
X90666700Y-65003580D02*
X90666700Y-63687092D01*
X87412700Y-65003580D02*
X88486960Y-65003580D01*
X87412700Y-63687092D02*
X87412700Y-65003580D01*
X89686960Y-63149580D02*
X88392440Y-63149580D01*
X91936700Y-62676580D02*
G75*
G03*
X91936700Y-62676580I-127000J0D01*
G01*
%TO.C,J3*%
X62750700Y-76649580D02*
X65544700Y-76649580D01*
X62750700Y-71315580D02*
X62750700Y-76649580D01*
X65544700Y-71315580D02*
X62750700Y-71315580D01*
X65544700Y-76649580D02*
X65544700Y-71315580D01*
D14*
%TO.C,R15*%
X56776620Y-55394860D02*
X56776620Y-55994300D01*
X56776620Y-55394860D02*
X56380380Y-55394860D01*
X56380380Y-55394860D02*
X56380380Y-55994300D01*
X56776620Y-55994300D02*
X56380380Y-55994300D01*
D15*
%TO.C,Q2*%
X97639700Y-76853820D02*
X97639700Y-76553820D01*
X98289700Y-76353820D02*
X98289700Y-76153820D01*
X97839700Y-76353820D02*
X98289700Y-76353820D01*
X97639700Y-76553820D02*
X97839700Y-76353820D01*
D12*
%TO.C,J5*%
X139204700Y-73989580D02*
X139204700Y-58989580D01*
X139204700Y-58989580D02*
X142674700Y-58989580D01*
X139204700Y-73989580D02*
X142674700Y-73989580D01*
X146824700Y-58989580D02*
X146824700Y-73989580D01*
X146174700Y-58989580D02*
X146824700Y-58989580D01*
X146174700Y-73989580D02*
X146824700Y-73989580D01*
D16*
X141814700Y-74589580D02*
G75*
G03*
X141814700Y-74589580I-100000J0D01*
G01*
D13*
%TO.C,J2*%
X96672400Y-85468106D02*
X96672400Y-82983227D01*
X84041859Y-80262603D02*
X81407000Y-80262603D01*
X81407000Y-87924232D02*
X81407000Y-89609803D01*
X81407000Y-82983227D02*
X81407000Y-85468106D01*
X96672400Y-89609803D02*
X96672400Y-87924232D01*
X81407000Y-89609803D02*
X96672400Y-89609803D01*
X96672400Y-80609288D02*
X96672400Y-80262603D01*
X81407000Y-80262603D02*
X81407000Y-80609288D01*
X96672400Y-80262603D02*
X94037541Y-80262603D01*
D12*
%TO.C,C10*%
X125676700Y-58653580D02*
X125676700Y-59593580D01*
X123776700Y-58653580D02*
X123776700Y-59593580D01*
D14*
%TO.C,R10*%
X114800380Y-61287660D02*
X114800380Y-61683900D01*
X114800380Y-61287660D02*
X115399820Y-61287660D01*
X114800380Y-61683900D02*
X115399820Y-61683900D01*
X115399820Y-61287660D02*
X115399820Y-61683900D01*
D12*
%TO.C,D2*%
X58242200Y-52425600D02*
X58242200Y-53375560D01*
D14*
%TO.C,R9*%
X111701580Y-61236860D02*
X111701580Y-61633100D01*
X112301020Y-61236860D02*
X112301020Y-61633100D01*
X111701580Y-61236860D02*
X112301020Y-61236860D01*
X111701580Y-61633100D02*
X112301020Y-61633100D01*
%TO.C,C12*%
X86047580Y-57426860D02*
X86047580Y-58026300D01*
X86443820Y-58026300D02*
X86047580Y-58026300D01*
X86443820Y-57426860D02*
X86443820Y-58026300D01*
X86443820Y-57426860D02*
X86047580Y-57426860D01*
%TO.C,R11*%
X128617980Y-65275460D02*
X128617980Y-65671700D01*
X128617980Y-65671700D02*
X129217420Y-65671700D01*
X128617980Y-65275460D02*
X129217420Y-65275460D01*
X129217420Y-65275460D02*
X129217420Y-65671700D01*
%TO.C,R7*%
X146133820Y-54851300D02*
X145737580Y-54851300D01*
X145737580Y-54251860D02*
X145737580Y-54851300D01*
X146133820Y-54251860D02*
X145737580Y-54251860D01*
X146133820Y-54251860D02*
X146133820Y-54851300D01*
%TO.C,C6*%
X109669580Y-66789300D02*
X109669580Y-66189860D01*
X110065820Y-66789300D02*
X110065820Y-66189860D01*
X109669580Y-66789300D02*
X110065820Y-66789300D01*
X109669580Y-66189860D02*
X110065820Y-66189860D01*
D13*
%TO.C,J6*%
X122074100Y-75004971D02*
X122074100Y-77689120D01*
X122074100Y-80956821D02*
X122074100Y-89762371D01*
X136425100Y-77689120D02*
X136425100Y-75004971D01*
X122074100Y-89762371D02*
X136425100Y-89762371D01*
X136425100Y-75004971D02*
X122074100Y-75004971D01*
X136425100Y-89762371D02*
X136425100Y-80956821D01*
%TO.C,L2*%
X116535200Y-74046080D02*
X112090200Y-74046080D01*
X112090200Y-78491080D02*
X116535200Y-78491080D01*
X117424200Y-76268580D02*
G75*
G03*
X117424200Y-76268580I-76200J0D01*
G01*
%TO.C,M1*%
X59702700Y-69410580D02*
X59702700Y-58996580D01*
X54368700Y-69410580D02*
X59702700Y-69410580D01*
X54368700Y-58996580D02*
X54368700Y-69410580D01*
X59702700Y-58996580D02*
X54368700Y-58996580D01*
D14*
%TO.C,C2*%
X86707980Y-67957700D02*
X87307420Y-67957700D01*
X87307420Y-67561460D02*
X87307420Y-67957700D01*
X86707980Y-67561460D02*
X86707980Y-67957700D01*
X86707980Y-67561460D02*
X87307420Y-67561460D01*
%TO.C,R12*%
X57030620Y-72108060D02*
X56634380Y-72108060D01*
X57030620Y-72707500D02*
X56634380Y-72707500D01*
X56634380Y-72108060D02*
X56634380Y-72707500D01*
X57030620Y-72108060D02*
X57030620Y-72707500D01*
%TO.C,C14*%
X125569980Y-65544700D02*
X126169420Y-65544700D01*
X125569980Y-65148460D02*
X125569980Y-65544700D01*
X126169420Y-65148460D02*
X126169420Y-65544700D01*
X125569980Y-65148460D02*
X126169420Y-65148460D01*
%TO.C,R1*%
X90390980Y-69735700D02*
X90990420Y-69735700D01*
X90390980Y-69339460D02*
X90390980Y-69735700D01*
X90390980Y-69339460D02*
X90990420Y-69339460D01*
X90990420Y-69339460D02*
X90990420Y-69735700D01*
D15*
%TO.C,Q3*%
X133393940Y-40490580D02*
X133193940Y-40290580D01*
X133693940Y-40490580D02*
X133393940Y-40490580D01*
X133193940Y-39840580D02*
X132993940Y-39840580D01*
X133193940Y-40290580D02*
X133193940Y-39840580D01*
D12*
%TO.C,U5*%
X64081700Y-56944580D02*
X64081700Y-68094580D01*
X64281700Y-48944580D02*
X64831700Y-48944580D01*
X64081700Y-68094580D02*
X68181700Y-68094580D01*
X64831700Y-48944580D02*
X64831700Y-55544580D01*
X131481700Y-68094580D02*
X135581700Y-68094580D01*
X67431700Y-48944580D02*
X67431700Y-50794580D01*
X67431700Y-50794580D02*
X67686700Y-50794580D01*
X135581700Y-68094580D02*
X135581700Y-56944580D01*
X64831700Y-55544580D02*
X64081700Y-56944580D01*
X132231700Y-50794580D02*
X132231700Y-48948980D01*
X64831700Y-48944580D02*
X67431700Y-48944580D01*
X67986700Y-42094580D02*
X64281700Y-42094580D01*
X131481700Y-68094580D02*
X131481700Y-61714580D01*
X134831700Y-55544580D02*
X135581700Y-56944580D01*
X135381700Y-42094580D02*
X131976700Y-42094580D01*
X135381700Y-48944580D02*
X132231700Y-48944580D01*
X68181700Y-68094580D02*
X68181700Y-61714580D01*
X134831700Y-48944580D02*
X134831700Y-55544580D01*
X135381700Y-48944580D02*
X135381700Y-42094580D01*
X64281700Y-42094580D02*
X64281700Y-48944580D01*
X131676700Y-50794580D02*
X132231700Y-50794580D01*
D16*
X131581700Y-40994580D02*
G75*
G03*
X131581700Y-40994580I-100000J0D01*
G01*
D12*
%TO.C,D1*%
X120980200Y-37820600D02*
X120980200Y-38770560D01*
D13*
%TO.C,L1*%
X119710200Y-68839080D02*
X115265200Y-68839080D01*
X115265200Y-73284080D02*
X119710200Y-73284080D01*
X120599200Y-71061580D02*
G75*
G03*
X120599200Y-71061580I-76200J0D01*
G01*
D12*
%TO.C,C16*%
X101165700Y-65179580D02*
X101165700Y-66119580D01*
X99265700Y-65179580D02*
X99265700Y-66119580D01*
D13*
%TO.C,J4*%
X138569700Y-52951380D02*
X146951700Y-52951380D01*
X138569700Y-50055780D02*
X138569700Y-52951380D01*
X146951700Y-52951380D02*
X146951700Y-50055780D01*
X146951700Y-50055780D02*
X138569700Y-50055780D01*
D14*
%TO.C,R4*%
X106240580Y-66189860D02*
X106636820Y-66189860D01*
X106240580Y-66789300D02*
X106636820Y-66789300D01*
X106636820Y-66789300D02*
X106636820Y-66189860D01*
X106240580Y-66789300D02*
X106240580Y-66189860D01*
D12*
%TO.C,C15*%
X73225700Y-66273580D02*
X73225700Y-67213580D01*
X71325700Y-66273580D02*
X71325700Y-67213580D01*
%TO.C,U6*%
G36*
X127946201Y-69605881D02*
G01*
X127565201Y-69605881D01*
X127565201Y-69351881D01*
X127946201Y-69351881D01*
X127946201Y-69605881D01*
G37*
D15*
X127946201Y-69605881D02*
X127565201Y-69605881D01*
X127565201Y-69351881D01*
X127946201Y-69351881D01*
X127946201Y-69605881D01*
%TD*%
M02*
